STARTFONT 2.3
FONT -FontForge-Butcherman-Book-R-Normal--24-240-72-72-P-130-ISO10646-1
SIZE 24 72 72  4
FONTBOUNDINGBOX 37 48 -3 -17
COMMENT "Generated by fontforge, http://fontforge.sourceforge.net"
COMMENT "Copyright (c) 2011, Typomondo, with Reserved Font Name  "Butcherman"."
STARTPROPERTIES 41
FOUNDRY "FontForge"
FAMILY_NAME "Butcherman"
WEIGHT_NAME "Book"
SLANT "R"
SETWIDTH_NAME "Normal"
ADD_STYLE_NAME ""
PIXEL_SIZE 24
POINT_SIZE 240
RESOLUTION_X 72
RESOLUTION_Y 72
SPACING "P"
AVERAGE_WIDTH 130
CHARSET_REGISTRY "ISO10646"
CHARSET_ENCODING "1"
FONTNAME_REGISTRY ""
CHARSET_COLLECTIONS "ISO8859-2 ISO8859-9 ISO8859-4 ISO10646-1"
BITS_PER_PIXEL 4
FONT_NAME "Butcherman-Regular"
FACE_NAME "Butcherman Regular"
COPYRIGHT "Copyright (c) 2011, Typomondo, with Reserved Font Name  "Butcherman"."
FONT_VERSION "001.004"
FONT_ASCENT 19
FONT_DESCENT 5
UNDERLINE_POSITION -2
UNDERLINE_THICKNESS 2
X_HEIGHT 17
CAP_HEIGHT 17
DEFAULT_CHAR 3
RAW_ASCENT 799
RAW_DESCENT 200
NORM_SPACE 4
RELATIVE_WEIGHT 40
RELATIVE_SETWIDTH 50
SUPERSCRIPT_X 0
SUPERSCRIPT_Y 8
SUPERSCRIPT_SIZE 14
SUBSCRIPT_X 0
SUBSCRIPT_Y 1
SUBSCRIPT_SIZE 14
AVG_LOWERCASE_WIDTH 140
AVG_UPPERCASE_WIDTH 134
ENDPROPERTIES
CHARS 331
STARTCHAR NULL.dup1
ENCODING 0
SWIDTH 161 0
DWIDTH 4 0
BBX 1 1 0 0
BITMAP
00
ENDCHAR
STARTCHAR CR
ENCODING 13
SWIDTH 161 0
DWIDTH 4 0
BBX 1 1 0 0
BITMAP
00
ENDCHAR
STARTCHAR space
ENCODING 32
SWIDTH 161 0
DWIDTH 4 0
BBX 1 1 0 0
BITMAP
00
ENDCHAR
STARTCHAR exclam
ENCODING 33
SWIDTH 350 0
DWIDTH 8 0
BBX 8 29 0 1
BITMAP
00575410
5EFFFFE6
4FFFFFF8
1FFFFFE1
07FFFFD0
06FFFFC0
09FFFFA0
0BFFFF80
07FFFF60
02FFFF30
00EFFF10
00AFFF40
008FFE10
007FFD00
006FFE00
006FFE00
006FFD00
006FFB00
003AC900
00000100
00000000
02357861
2EFFFFF4
0BFFFFF3
06FFFFF4
05FFFFF6
04FFFFF5
05FFFFF4
05DC9792
ENDCHAR
STARTCHAR quotedbl
ENCODING 34
SWIDTH 541 0
DWIDTH 13 0
BBX 11 9 1 9
BITMAP
799A6079BA40
DFFFB0CFFFA0
9FFFB08FFF90
6FFFA04FFF60
3FFF601FFF40
1FFF400CFF20
0DFF3009FF00
09FF1007FC00
06DB0006C700
ENDCHAR
STARTCHAR numbersign
ENCODING 35
SWIDTH 583 0
DWIDTH 14 0
BBX 14 22 0 -3
BITMAP
00000194000A90
000005F4001FC0
00000AF1006F90
00001ED000CF50
00002FA000DF10
00BCCFC9ABEF96
00EFFFFFFFFFF2
00FFFFFFFFFFD0
00FFFFFFFFFFC0
0049FB85CFC860
000BF200AF7000
001FC000CF3000
005FA000FE0000
339F7113FB3200
BFFFFFFFFFF500
CFFFFFFFFFD000
7AFEDBCEEDB000
05F4000D900000
0BE0004F400000
1FB0008F100000
2B8000BD000000
00100024000000
ENDCHAR
STARTCHAR dollar
ENCODING 36
SWIDTH 534 0
DWIDTH 13 0
BBX 12 31 0 -7
BITMAP
000000420000
000004F40000
000006F50000
000007F50000
000008F30000
000006F60000
000018FB6100
0008FFFFFD40
00BFFFFFFFF5
03FFFFFFFFFD
0BFFFFFFFFFD
0FFFFFFFFFFC
1FFFFFFFFFFB
1FFFFFEFFFFA
0FFFFB1CFFF8
0DFFFD058799
09FFFFED8000
03EFFFFFFA00
001AEFFFFF50
0000159FFFA0
029AA70BFFC0
04FFFD2DFFA0
00CFFFFFFE20
004FFFFFF900
000699FA6200
000005F20000
000007F10000
000009F10000
000009F20000
000007F10000
000002300000
ENDCHAR
STARTCHAR percent
ENCODING 37
SWIDTH 828 0
DWIDTH 20 0
BBX 20 22 0 -3
BITMAP
000000000002A7000000
00021000000AF6000000
05EFFB10001FF4000000
2EFFFFB0005FD0000000
4FFFFFE0007F90000000
2FFFFFF1009F90000000
2FF4CFF100BF40000000
1FF0AFE001EE001AC600
0FF0AFC007F800CFFF60
0DF3CF600CF303FFFFB0
0AFEFE203FC002FFFFD0
026CE6009F8001FFEFD0
00012001EF5000FFCFE0
00000006FE2005FEBFF1
00000006FB0008F68FD0
00000004F40007FDDF70
00000009E000028EFC10
0000001E900000026000
0000006F600000000000
0000008F300000000000
0000007B000000000000
00000001000000000000
ENDCHAR
STARTCHAR ampersand
ENCODING 38
SWIDTH 522 0
DWIDTH 13 0
BBX 11 13 1 3
BITMAP
000121000000
000AFFF30000
0009FFF30000
0009FFF20000
333AFFF21220
FFFFFFFFFF80
FFFFFFFFFF70
FFFFFFFFFF70
DFFFFFFFFF50
011AFFF32100
000AFFF30000
000AFFF10000
0008DDB00000
ENDCHAR
STARTCHAR quotesingle
ENCODING 39
SWIDTH 300 0
DWIDTH 7 0
BBX 5 10 1 8
BITMAP
789950
AFFFD0
8FFFC0
5FFFB0
3FFF80
0FFF70
0DFF50
0AFF40
07DC20
010000
ENDCHAR
STARTCHAR parenleft
ENCODING 40
SWIDTH 372 0
DWIDTH 9 0
BBX 9 24 0 -3
BITMAP
0000000340
000005CF70
0000AFFF60
0007FFFF40
002FFFFF20
008FFFFF00
03FFFFFD00
07FFFFFC00
0AFFFFE900
0CFFFD1000
0EFFF60000
0FFFF40000
1FFFF30000
1FFFF20000
1FFFF10000
0FFFF20000
0DFFF40000
08FFF90000
03FFFE1000
00BFFFD100
005FFFF700
000BFFFA00
0002DFFB00
000006B400
ENDCHAR
STARTCHAR parenright
ENCODING 41
SWIDTH 338 0
DWIDTH 8 0
BBX 7 24 0 -4
BITMAP
3EA71000
5FFFC100
2FFFFD10
1FFFFF90
0FFFFFD0
0EFFFFE0
0DFFFFE0
0DFFFFE0
048FFFE0
000BFFD0
0008FFC0
0007FFC0
0006FFB0
0006FFA0
0007FF80
000AFF60
000BFF40
000EFF10
004FFC00
028FF700
3FFFB000
7FFE1000
6EE40000
01000000
ENDCHAR
STARTCHAR asterisk
ENCODING 42
SWIDTH 513 0
DWIDTH 12 0
BBX 12 15 0 5
BITMAP
000000001000
000020079100
001AD009F600
003FF61EF500
000CFC8FE000
0007FFFFA000
2532FFFF5310
4FFFFFFFFFFA
4FFFFFFFFFF6
0677CFFF8651
0000DFFF7000
0002FFBFC000
0009FD4FF500
000DF80BF600
000262001000
ENDCHAR
STARTCHAR plus
ENCODING 43
SWIDTH 458 0
DWIDTH 11 0
BBX 9 10 1 4
BITMAP
002DBA2000
002FFF2000
001FFF0000
BCDFFFBBB0
EFFFFFFFD0
EFFFFFFFC0
ABCFFFAB90
002FFF2000
002FFF1000
002DDD1000
ENDCHAR
STARTCHAR comma
ENCODING 44
SWIDTH 361 0
DWIDTH 9 0
BBX 7 13 1 -4
BITMAP
13200100
AFFFEF40
BFFFFF50
BFFFFF60
CFFFFF70
DFFFFF50
DFFFFF60
BCCFFF60
0002FF40
0004FF20
0007FE00
0009FC00
00047500
ENDCHAR
STARTCHAR hyphen
ENCODING 45
SWIDTH 478 0
DWIDTH 11 0
BBX 10 6 1 6
BITMAP
5887776771
9FFFFFFFE0
9FFFFFFFA0
AFFFFFFF80
7BFFCEDE80
0000000100
ENDCHAR
STARTCHAR period
ENCODING 46
SWIDTH 374 0
DWIDTH 9 0
BBX 7 8 1 1
BITMAP
02367620
BFFFFFA0
7FFFFFA0
6FFFFF90
4FFFFFC0
3FFFFFB0
2FFFFFA0
2EC97950
ENDCHAR
STARTCHAR slash
ENCODING 47
SWIDTH 291 0
DWIDTH 7 0
BBX 8 22 -1 -3
BITMAP
00000089
000002FB
000007F9
00000DF4
00000FE0
00002FD0
00006F90
0000AF40
0004FE00
0009FA00
000DF500
001FF100
005FC000
009F7000
009F3000
00AD0000
01E90000
06F50000
0BE10000
1FB00000
2A800000
00100000
ENDCHAR
STARTCHAR zero
ENCODING 48
SWIDTH 528 0
DWIDTH 13 0
BBX 11 20 1 -2
BITMAP
0017AA950000
03EFFFFF7000
1EFFFFFFF600
9FFFFFFFFF40
CFFFFFFFFF40
DFFFFFFFFF50
CFFFFFFFFF80
BFFFEEFFFF60
AFFF54FFFF70
AFFE00FFFF70
9FFD00EFFF50
8FFD00BFFF40
7FFD00DFFF20
5FFE00EFFC00
2FFF33FFF600
0FFFA9FFF200
0DFFFFFFD000
059EFFFF5000
00067FE61000
000017300000
ENDCHAR
STARTCHAR one
ENCODING 49
SWIDTH 366 0
DWIDTH 9 0
BBX 8 19 0 -1
BITMAP
000039A4
016BEFF5
AFFFFFF6
AFFFFFF6
479FFFFB
006FFFF9
004FFFF7
003FFFF6
001FFFF3
000FFFE1
000EFFF2
000CFFF2
000BFFC0
000AFFC0
0009FFD0
0007FFC0
0006FFA0
00047CB0
00000140
ENDCHAR
STARTCHAR two
ENCODING 50
SWIDTH 575 0
DWIDTH 14 0
BBX 13 21 1 -3
BITMAP
002ACCB7100000
04EFFFFFB10000
2EFFFFFFFD1000
AFFFFFFFFF6000
AFFFFFFFFFB000
BFFFFFFFFFD000
BFFFFFFFFFD000
AFFFFFFFFFB000
9FFFB3EFFF9000
7FFF50CFFF6000
498929FFFF4000
00000AFFFD0000
00000CFFF70000
00005FFFC00000
0003EFFF920330
265EFFFFFFFF40
8FFFFFFFFFFF20
9FFFFFFFCFFE00
CFFFCDB33BEC00
6893231005C200
00000000004000
ENDCHAR
STARTCHAR three
ENCODING 51
SWIDTH 517 0
DWIDTH 12 0
BBX 12 20 0 -2
BITMAP
00048A971000
009FFFFFC100
0AFFFFFFFC10
3FFFFFFFFF80
0FFFFFFFFFE0
0EFFFFFFFFF2
0DFFFFFFFFF3
0CFFFFFFFFF3
0AFFF76FFFF3
09EBB16FFFE1
041001BFFFB0
00001FFFFF70
00001FFFFF90
00000239FFF0
00025535FFF1
001EFF64FFD0
000BFFEDFF70
0003FFFFFE00
0000BFFCD700
000013000000
ENDCHAR
STARTCHAR four
ENCODING 52
SWIDTH 466 0
DWIDTH 11 0
BBX 11 24 0 -6
BITMAP
06BBAA9BDD40
01CFFFFFA100
008FFFFD1000
00EFFFF40000
00EFFFF40000
01FFFFD10000
03FFFF800000
05FFFF500000
03FFFF400000
00EFFF100000
02FFFC9CB700
04FFF8BFF900
07FFF5AFF400
08FFF28FF300
0AFFF9BFF430
0CFFFFFFFF80
0FFFFFFFFF60
2FFFFFFFFF60
153147BFFD60
0000004FA110
0000002F9000
0000002F8000
0000001E8000
000000014000
ENDCHAR
STARTCHAR five
ENCODING 53
SWIDTH 583 0
DWIDTH 14 0
BBX 13 20 1 -2
BITMAP
8BCDDCB9876520
BFFFFFFFFFFF50
BFFFFFFFFFFF30
9FFFFFFFFFFF00
AFFFFFFFFFFD00
CFFFFFFFFFFB00
AFFFFFFFFFF900
8FFFFFFFFFF700
9FFF99BCDEF500
CFFF4000001000
7FFF6566630000
6FFFFFFFF50000
0EFFFFFFF70000
0000238FFD0000
0025534FFE0000
01EFF82FFA0000
00AFFFDFF50000
002FFFFFD00000
000AFFCD700000
00014000000000
ENDCHAR
STARTCHAR six
ENCODING 54
SWIDTH 582 0
DWIDTH 14 0
BBX 14 20 0 -2
BITMAP
00036877620000
005FFFFFFF9000
09FFFFFFFFFB00
0EFFFFFFFFFF70
1FFFFFFFFFFFE1
1FFFFFFFFFFFF1
0EFFFFFFFFFFC0
0DFFFFFFFFFFA0
0BFFFD3CFFFF60
08FFFB03FFFE10
05FFF800EFFE00
01FFFA55227710
00CFFFFFFDB500
008FFF88CFFF10
007FFF106FFF10
006FFF407FFD00
002FFFDAEFFE00
000BFFFFFFFE00
0002EFFFFFFB00
00004799867100
ENDCHAR
STARTCHAR seven
ENCODING 55
SWIDTH 624 0
DWIDTH 15 0
BBX 15 21 0 -3
BITMAP
1357789BCDDDCC90
7FFFFFFFFFFFFF80
4FFFFFFFFFFFFF40
2FFFFFFFFFFFFC00
0EFFFFFFFFFFFA00
0CFFFFFFFFFFF700
0AFFFFFFFFFFF100
08FFFFFFFFFFA000
06FEDCB99FFF7000
001000008FFF5000
00000000CFFD0000
00000004FFF70000
00000009FFE10000
0000000EFF900000
0000005FFE100000
000000AFF9000000
000001EFF3000000
000006FFB0000000
00000BFF50000000
00003FFF10000000
0000012300000000
ENDCHAR
STARTCHAR eight
ENCODING 56
SWIDTH 459 0
DWIDTH 11 0
BBX 11 21 0 -3
BITMAP
005ABBB83000
09FFFFFFF800
1FFFFFFFFF00
1FFFFFFFFF10
0FFFFFFFFF00
0DFFFFFFFD00
0BFFFFFFFB00
08FFEBFFF800
06FFB0AFF600
03FFC0AFF300
00FFE8CFF000
007FFFFF7000
005FFFFF4000
00AFC8FF9000
00AF80DF9000
009F90EF8000
008FEAFF7000
003FFFFF3000
0008D8D90000
000050000000
000010000000
ENDCHAR
STARTCHAR nine
ENCODING 57
SWIDTH 584 0
DWIDTH 14 0
BBX 12 22 1 -4
BITMAP
000268B96000
007FFFFFF810
05FFFFFFFFD2
1FFFFFFFFFF7
9FFFFFFFFFF8
EFFFFFFFFFFB
EFFFFFFFFFFD
FFFFFEFFFFFE
EFFFF16FFFFF
CFFFF20EFFFE
6FFFFEDFFFFD
0CFFFFFFFFF8
01AEFEEFFFF3
0001100FFFC0
18BDD11FFF80
2FFFF48FFF20
0BFFFFFFF800
04FFFFFFE000
00597A97A000
000005200000
000006000000
000001000000
ENDCHAR
STARTCHAR colon
ENCODING 58
SWIDTH 386 0
DWIDTH 9 0
BBX 7 20 1 1
BITMAP
00155410
BFFFFFC0
7FFFFFA0
2FFFFFA0
4FFFFFC0
3FFFFFC0
1FFFFFD0
1FEA9B80
01000000
00000000
00000000
00000000
13577620
BFFFFF90
9FFFFF80
7FFFFFA0
6FFFFFC0
3FFFFFA0
0FFFFF90
1DD96950
ENDCHAR
STARTCHAR semicolon
ENCODING 59
SWIDTH 375 0
DWIDTH 9 0
BBX 8 25 0 -4
BITMAP
00127650
2CFFFFF8
0AFFFFF9
06FFFFF7
05FFFFF8
06FFFFF8
05FFFFF8
05FC99A5
00300000
00000000
00000000
00000000
01300010
0AFFDEF7
09FFFFF7
06FFFFF8
07FFFFF9
09FFFFF7
0BFFFFF7
09DCFFF8
00001FF6
00004FF4
00007FF2
00008FF0
00003890
ENDCHAR
STARTCHAR less
ENCODING 60
SWIDTH 459 0
DWIDTH 11 0
BBX 11 14 0 1
BITMAP
0002BAAA9920
0004FFFFFA00
0009FFFFA100
002FFFFE1000
02DFFFF50000
1DFFFF900000
3FFFFF100000
0BFFFF800000
04FFFFD00000
006FFFF70000
0009FFFF6000
0000BFFFF600
00001BFFFF40
000000115200
ENDCHAR
STARTCHAR equal
ENCODING 61
SWIDTH 485 0
DWIDTH 12 0
BBX 9 9 1 6
BITMAP
3898787780
7FFFFFFFF0
7FFFFFFFD0
1355443450
0000000000
6BAACCCBC0
8FFFFFFFE0
5BFFDEDDC0
0011000000
ENDCHAR
STARTCHAR greater
ENCODING 62
SWIDTH 432 0
DWIDTH 10 0
BBX 10 14 0 1
BITMAP
2BBBBC6000
0AFFFFB000
01DFFFE100
002FFFFB00
0008FFFF70
0001CFFFF4
00004FFFF9
0000CFFFF2
0002EFFFC1
001CFFFC00
01CFFFF400
0DFFFFA000
0EFFEC1000
0010000000
ENDCHAR
STARTCHAR question
ENCODING 63
SWIDTH 577 0
DWIDTH 14 0
BBX 12 22 1 -3
BITMAP
0019BBA61000
04EFFFFFB100
2FFFFFFFFE20
AFFFFFFFFF90
BFFFFFFFFFD0
BFFFFFFFFFF1
AFFFFFFFFFF0
7FFFC5EFFFE0
3FEF70BFFFC0
010001FFFF80
000006FFFD10
00000BFFF700
00000EFFD100
00001FFE3000
00004FB80000
000002110000
000002200000
000BFFFA0000
0007FFFA0000
0004FFFB0000
0003FFFB0000
000287640000
ENDCHAR
STARTCHAR at
ENCODING 64
SWIDTH 930 0
DWIDTH 22 0
BBX 22 27 0 -6
BITMAP
0000000068875300000000
0000003DFFFFFF80000000
000005EFFFFFFFFD200000
00004FFFB86559FFD20000
0002EFA20111103EFE2000
000BF804CFFEFD23FFC000
004FB03FFFFFFFD28FF800
00BF30AFFFFFFFF51FFF20
02FC00EFFFFFFFF60BFF90
07F800DFFFFFFFF207FFE0
0CF600AFFFFFFFF005FFF4
0FF4006FFF97FFD004FFF7
3FF4002FFE12FFC002FFF8
1DF4004FC701FFA000FFF8
0DF500046ADCFFA000CFF7
0DF7001FFE9AFFD0009FF5
0CFA001FFB00FFF6007FF2
0BFE001FFC16FFFE307FD0
07FF402FFFFFFFDFFCDF80
03FFA00EFFFFFE5FFFFE10
00BFF303A7BA8408DB6000
003FFC0000000000000000
0008FF9000000000000000
0000AFFB53335750000000
000009FFFFFFFFE1000000
0000004BFFFFFD82000000
0000000013421000000000
ENDCHAR
STARTCHAR A
ENCODING 65
SWIDTH 494 0
DWIDTH 12 0
BBX 12 24 0 -6
BITMAP
013455443100
3CFFFFFFFFA1
019FFFFFFD10
007FFFFFF600
006FFFFFF400
005FFFFFF200
007FFFFFF100
007FFFFFF000
005FFFFFE000
006FFBEFD000
006FF7DFD000
007FF4CFD000
008FF2BFE000
005FE8DFC000
009FFFFFD000
00AFFFFFB000
007FFDFF8000
005FF3CF5000
004FA0BF4000
004A706E2000
001620190000
000100270000
000000400000
000000100000
ENDCHAR
STARTCHAR B
ENCODING 66
SWIDTH 517 0
DWIDTH 12 0
BBX 12 19 0 -1
BITMAP
01469BCBA610
3EFFFFFFFFE2
06FFFFFFFFF8
00CFFFFFFFF9
007FFFFFFFF7
008FFFFFFFF5
006FFFFFFFF3
005FFFCEFFF1
003FFF32FFD0
003FFF43FFA0
003FFFB8FF70
003FFFFFFE10
002FFFFFFB00
000FFF8CFF20
000EFE15FF20
000BFF26FF10
000BFFCCFF00
000BEFFFFB00
000619AAD300
ENDCHAR
STARTCHAR C
ENCODING 67
SWIDTH 504 0
DWIDTH 12 0
BBX 12 21 0 -3
BITMAP
00029BCC8100
003EFFFFFC30
05FFFFFFFFC0
0DFFFFFFFFF7
3FFFFFFFFFF7
5FFFFFFFFFF7
4FFFFFFFFFF7
3FFFFFFFFFF6
0FFFFB3EFFF5
0DFFF608FFF4
0AFFF70598A1
08FFF6000000
05FFF4000000
03FFF507B730
00EFF70DFF70
00CFFC5FFF40
006FFFFFFE10
004EFFFFE400
0001A6AF7000
000061690000
000021350000
ENDCHAR
STARTCHAR D
ENCODING 68
SWIDTH 522 0
DWIDTH 13 0
BBX 12 22 1 -4
BITMAP
001246784000
BEFFFFFFF400
DFFFFFFFFF60
8FFFFFFFFFC0
2FFFFFFFFFF1
0DFFFFFFFFF1
0BFFFFFFFFF0
0AFFFFFFFFD0
08FFFA2CFFB0
07FFF607FF80
05FFF406FF50
04FFF305FF20
02FFF407FE00
00FFF40BFB00
00CFF60DFA00
009FFDFFF900
00AFFFFFF600
00AC5CFFC000
00940AE82000
006209800000
003008100000
000003000000
ENDCHAR
STARTCHAR E
ENCODING 69
SWIDTH 570 0
DWIDTH 14 0
BBX 13 20 0 -2
BITMAP
046899A9874200
2EFFFFFFFFFF90
05FFFFFFFFFF10
00CFFFFFFFFD00
00CFFFFFFFF900
00BFFFFFFFF500
00AFFFFFFFE100
009FFFEFFFB000
008FFF51486000
007FFF50000000
005FFFEEE50000
004FFFFFF60000
002FFFFFF50000
000FFF74520000
000DFF31000000
000CFFEFFB0000
000AFFFFF90000
000A39FEC80000
000807D4260000
00000200210000
ENDCHAR
STARTCHAR F
ENCODING 70
SWIDTH 559 0
DWIDTH 13 0
BBX 13 20 0 -2
BITMAP
13668874753100
3EFFFFFFFFFF40
03EFFFFFFFFB00
007FFFFFFFF700
002FFFFFFFF400
001FFFFFFFF200
001FFFFFFFF000
001FFFFFFFE000
000CFFE98CE000
0009FFF2003100
0009FFFFFF5000
0009FFFFFF4000
0008FFFFFF3000
0005FFF4252000
0005FFF2000000
0007FFF3000000
0009FFF3000000
0009FFF4000000
00074D75000000
00030502000000
ENDCHAR
STARTCHAR G
ENCODING 71
SWIDTH 499 0
DWIDTH 12 0
BBX 12 21 0 -3
BITMAP
000178850000
017EFFFFD500
0BFFFFFFFF80
0DFFFFFFFFE1
2FFFFFFFFFF6
2FFFFFFFFFF7
1FFFFFFFFFF6
0EFFFFFFFFF3
0CFFF18FFFF0
0AFFE01FFFE0
07FFC008CEE0
05FFC0533310
04FFE0BFFFC0
03FFF1AFFFE0
01FFF448FFD0
00DFF91AFFC0
008FFFFFFFA0
003FFFFFFF40
0006A9DEF700
000073627000
000040000000
ENDCHAR
STARTCHAR H
ENCODING 72
SWIDTH 726 0
DWIDTH 17 0
BBX 17 23 0 -5
BITMAP
000036890498866200
3ACEFFF803FFFFFF80
05FFFFF301EFFFFD00
00EFFFF400BFFFF700
00CFFFF301FFFFF100
00AFFFF303FFFFB000
006FFFF203FFFF7000
003FFFF203FFFF6000
001FFFF103FFFE1000
000DFFF215FFFB0000
000BFFFFFFFFF90000
0009FFFFFFFFF50000
0006FFFFDFFFF50000
0005FFF40AFFF30000
0003FFF40CFFD00000
0002FFF50CFFC00000
0001FFF50DFFA00000
0001FFF41EFF800000
0002C4400AEE600000
000000000144300000
000000000100000000
000000002300000000
000000003300000000
ENDCHAR
STARTCHAR I
ENCODING 73
SWIDTH 401 0
DWIDTH 10 0
BBX 9 20 0 -2
BITMAP
3BBBABBB80
2FFFFFFF70
05FFFFFF20
009FFFFA00
003FFFFD00
003FFFFB00
005FFFF900
005FFFF700
005FFFF400
003FFFF200
002FFFF300
001FFFF300
000EFFE000
000CFFD000
000AFFF000
0008FFD000
0006FFC000
0003ACD000
0001586100
0000010000
ENDCHAR
STARTCHAR J
ENCODING 74
SWIDTH 455 0
DWIDTH 11 0
BBX 12 19 -1 -1
BITMAP
000028887620
00002FFFFFC1
00000AFFFF60
000006FFFF40
000003FFFD00
000005FFF800
000007FFF600
000008FFF500
000009FFF400
000009FFF100
000007FFE000
000108FFC000
28BA09FFA000
7FFB09FF8000
3FFC0BFF6000
3FFF7FFF3000
0EFFFFFC0000
04CF8FD80000
00060C130000
ENDCHAR
STARTCHAR K
ENCODING 75
SWIDTH 580 0
DWIDTH 14 0
BBX 14 20 0 -2
BITMAP
379A7560595200
3DFFFF90CFFFD2
03FFFF90DFFD20
00BFFFA2FFC200
005FFFB5FF3000
001FFFBBFE0000
000CFFFFFB0000
000AFFFFF80000
000BFFFFFB0000
0009FFFFFC0000
0005FFFFFB0000
0004FFFFFC0000
0001FFFFFD0000
0001FFFFFE0000
0000EFD9FF4000
0000DF71FF7000
0000AF90CFB000
0000BFB0AFC000
00005260567000
00000010000000
ENDCHAR
STARTCHAR L
ENCODING 76
SWIDTH 416 0
DWIDTH 10 0
BBX 11 20 0 -2
BITMAP
6AAAA98A3000
1CFFFFF70000
05FFFFD00000
05FFFF600000
01FFFFA00000
00FFFF800000
00FFFF700000
00EFFF500000
00BFFF600000
008FFF700000
008FFF700000
007FFF700000
003FFF700000
003FFF700000
002FFFC42240
000EFFFFFF70
000CFFFFFF60
0008FFCFFF30
0002767ABE10
000021312500
ENDCHAR
STARTCHAR M
ENCODING 77
SWIDTH 740 0
DWIDTH 18 0
BBX 17 20 0 -1
BITMAP
000000010110100000
1468ADFA06DCEA6310
2EFFFFFB05FFFFFF90
06FFFFFF17FFFFF700
00CFFFFF5BFFFFF600
00CFFFFFAFFFFFF300
00AFFFFFFFFFFFF100
006FFFFFFFFFFFD000
004FFFFFFFFFFFD000
003FFFFFFFFFFFD000
002FFFFFFFFFFFD000
000EFFDFFFDEFFD000
000CFFADFF9FFFC000
0008FFC8FF5EFFB000
0006FFE5FF4DFF9000
0003FFF6FF3EFF6000
0002FFF2FC0EFF4000
0000FFF1BB1FFF2000
0000D87174464F0000
0000A3100000070000
ENDCHAR
STARTCHAR N
ENCODING 78
SWIDTH 610 0
DWIDTH 15 0
BBX 14 22 0 -4
BITMAP
03456770A96420
2EFFFFB09FFFFA
05FFFFE06FFFD1
00EFFFF55FFF50
00DFFFFC5FFF40
00CFFFFF6FFF30
00AFFFFFCFFF10
009FFFFFFFFE00
007FFFFFFFFC00
005FFFFFFFFA00
003FFFFFFFF800
000FFFFFFFF600
000CFFAFFFF500
0009FF8FFFF400
0008FF3DFFF400
0007FF49FFF300
0006FF54FFF100
0005FF61FFE000
0004FD70CCC000
00037160896000
00025050400000
00004050300000
ENDCHAR
STARTCHAR O
ENCODING 79
SWIDTH 504 0
DWIDTH 12 0
BBX 12 20 0 -2
BITMAP
000169871000
005EFFFFFA10
04FFFFFFFFB0
0DFFFFFFFFF4
4FFFFFFFFFF4
4FFFFFFFFFF7
2FFFFFFFFFF5
1FFFFEEFFFF5
0EFFF64FFFF7
0BFFF00FFFF7
08FFE00EFFF6
07FFE00CFFF4
05FFF10CFFD0
03FFF21EFF90
00EFF52FFF80
00CFFC8FFF30
00BFFFFFFD00
002CFFFFF600
0000A76E9200
000033493000
ENDCHAR
STARTCHAR P
ENCODING 80
SWIDTH 545 0
DWIDTH 13 0
BBX 13 20 0 -2
BITMAP
135788B9A86000
3DFFFFFFFFF800
02EFFFFFFFFF20
008FFFFFFFFF60
005FFFFFFFFF70
004FFFFFFFFF20
003FFFFFFFFF00
001FFFFBCFFE00
000EFFF31EFD00
000BFFF20EFC00
0008FFF30EFB00
0005FFF87EF800
0004FFFFFFF400
0003FFFFFFA000
0001EFF5220000
0000FFF4000000
0000EFF5000000
0000BFF5000000
000067D6000000
00000011000000
ENDCHAR
STARTCHAR Q
ENCODING 81
SWIDTH 520 0
DWIDTH 13 0
BBX 13 22 0 -4
BITMAP
00001798400000
0018EFFFF80000
05EFFFFFFFC000
0AFFFFFFFFF700
1EFFFFFFFFFB00
5FFFFFFFFFFC00
6FFFFFFFFFFD00
5FFFFFAAFFFE00
2FFFFF24FFFC00
0DFFFF02FFFB00
09FFFD01FFFB00
04FFFC00FFFA00
05FFFD00FFF900
00FFFF23FFF700
00AFFF87FFF500
002FFFEDFFD000
0007FFFFFFC000
00008FFFFFF920
000009FEDFFC10
000000003DE100
00000000038000
00000000001000
ENDCHAR
STARTCHAR R
ENCODING 82
SWIDTH 599 0
DWIDTH 14 0
BBX 14 20 0 -2
BITMAP
00247ABB985000
4EFFFFFFFFFC30
07FFFFFFFFFFE4
00AFFFFFFFFFFC
003FFFFFFFFFFD
000EFFFFFFFFFC
000DFFFFFFFFFC
000CFFFA8FFFFA
000BFFF507FFF9
0008FFF407FFF7
0006FFF94CFFF3
0003FFFFFFFFC0
0000DFFFFFFF80
0000BFFEDFFB00
0000AFF75FFF20
0000AFF72FFF40
00007FF91FFF30
00006FFA0EFF50
0000398505DF80
00000031011220
ENDCHAR
STARTCHAR S
ENCODING 83
SWIDTH 504 0
DWIDTH 12 0
BBX 12 20 0 -2
BITMAP
000026AA5000
002AFFFFFB20
02EFFFFFFFD2
08FFFFFFFFF9
1EFFFFFFFFF7
3FFFFFFFFFF7
5FFFFFFFFFF6
6FFFFFEFFFF5
5FFFF72FFFF5
3FFFF9077895
0DFFFFDA4000
04FFFFFFF800
003CEFFFFF50
000027AFFFA0
04ABA51EFF90
08FFF94FFF70
02FFFFFFFD00
008FFFFFF600
000AC799A000
000010211000
ENDCHAR
STARTCHAR T
ENCODING 84
SWIDTH 622 0
DWIDTH 15 0
BBX 15 21 0 -3
BITMAP
0035788888520000
1DFFFFFFFFFFEC10
05FFFFFFFFFFF900
01FFFFFFFFFFE100
00CFFFFFFFFFF200
009FFFFFFFFFF000
007FFFFFFFFFD000
007FFFFFFFFFB000
006ECBFFFD7C9000
001001FFFB001000
000000EFFC000000
000000FFFC000000
000001FFF9000000
000001FFFA000000
000000FFF7000000
000000DFF8000000
000000BFF9000000
000000CFF9000000
000000CFF9000000
000000DE96000000
0000005021000000
ENDCHAR
STARTCHAR U
ENCODING 85
SWIDTH 637 0
DWIDTH 15 0
BBX 15 20 0 -2
BITMAP
257ABB9017642000
2AFFFFA01FFFFD50
02FFFFB03FFFFB00
01FFFF903FFFF600
00EFFFA03FFFF300
00BFFFD04FFFE000
009FFFD04FFFB000
007FFFD05FFF8000
005FFFB05FFF4000
003FFF806FFF2000
002FFF708FFF1000
003FFF908FFF0000
002FFFB0AFFC0000
001FFFD0BFFB0000
000BFFF2EFF80000
0009FFFFFFF60000
0005FFEEFFE10000
00019E9589400000
0000181217000000
0000000012000000
ENDCHAR
STARTCHAR V
ENCODING 86
SWIDTH 570 0
DWIDTH 14 0
BBX 14 20 0 -2
BITMAP
4689BA008A9985
1CFFFA00DFFFD1
01FFFC01FFFF50
00CFFD03FFFD00
008FFD06FFF800
007FFF08FFF400
006FFF1BFFF000
006FFF3DFFB000
005FFF2FFF7000
004FFF5FFF4000
002FFF8FFF2000
000EFFAFFE0000
000CFFDFFA0000
000BFFFFF60000
0007FFFFF30000
0004FFFFF00000
0001FFFFB00000
0000FFFF600000
0000BFFF400000
0000376C100000
ENDCHAR
STARTCHAR W
ENCODING 87
SWIDTH 777 0
DWIDTH 19 0
BBX 19 20 0 -1
BITMAP
00000000121000000000
000045308F902A962000
16AEFF90BFC02FFFFB40
5CFFFF91FFF08FFFE400
009FFFB3FFF3AFFF5000
001DFFE6FFF7FFFA0000
0007FFF8FFFEFFF20000
0005FFFDFFFFFFB00000
0003FFFFFFFFFF500000
00009FFFFFFFFF100000
00002FFFFFFFFD000000
00000CFFFFFFFD000000
000008FFFFFFF9000000
000005FFFBFFF6000000
000002FFF7FFF4000000
000000EFE4FFD1000000
0000009FC2FF80000000
0000005FA1FF40000000
00000017A3AE20000000
00000000200100000000
ENDCHAR
STARTCHAR X
ENCODING 88
SWIDTH 587 0
DWIDTH 14 0
BBX 15 20 0 -2
BITMAP
0036882086410000
4CFFFFB0CFFFD910
01AFFFB1FFFF9200
000CFFE7FFF50000
0005FFFFFF900000
0000CFFFFF300000
00005FFFFE000000
00003FFFFC000000
00001FFFFA000000
00002FFFF7000000
00000EFFF2000000
000009FFF2000000
00000BFFF1000000
00000EFFF3000000
00001FFFF5000000
00003FFCF9000000
00007FB8FE000000
0000AF96FF300000
0001FB5379500000
0000200000200000
ENDCHAR
STARTCHAR Y
ENCODING 89
SWIDTH 688 0
DWIDTH 17 0
BBX 17 19 0 -1
BITMAP
03589A900087300000
3AFFFFF500DFFED630
004DFFFD01FFFFF940
0001DFFF68FFFF7000
00004EFFDEFFF70000
000005FFFFFFB00000
000000DFFFFF300000
0000007FFFFF100000
0000003FFFFE000000
0000000BFFFC000000
00000005FFFB000000
00000001FFFA000000
00000000DFF9000000
00000000BFF8000000
00000000AFF7000000
000000008FF6000000
000000007FF5000000
000000006FF4000000
000000004B71000000
ENDCHAR
STARTCHAR Z
ENCODING 90
SWIDTH 695 0
DWIDTH 17 0
BBX 17 19 0 -1
BITMAP
0036ABBABB97310000
1EFFFFFFFFFFFFC830
0BFFFFFFFFFFFFFB00
04FFFFFFFFFFFFF300
00BFFFFFFFFFFFA000
006FFFFFFFFFFF3000
002FFFFFFFFFFB0000
000FFFFFFFFFF40000
000DE728FFFF800000
0006101EFFF5000000
0000009FFF70000000
000000DFFB00000000
000003FFF200000000
000008FF8000000000
00001DFF6420000000
00008FFFFFF7000000
0000DFFFFFE1000000
0000DECFFFC0000000
000013124920000000
ENDCHAR
STARTCHAR bracketleft
ENCODING 91
SWIDTH 410 0
DWIDTH 10 0
BBX 9 22 1 -1
BITMAP
3999877300
5FFFFFFF00
5FFFFFFF00
5FFFFFFF00
5FFFFFFF10
3FFF742400
7FFF300000
7FFF200000
7FFF200000
7FFF300000
8FFF300000
7FFF300000
AFFF300000
AFFF400000
9FFF400000
9FFF400000
6FFF400000
4FFF400000
2FFFB99A50
0FFFFFFF20
0CFF9FF900
0632174000
ENDCHAR
STARTCHAR backslash
ENCODING 92
SWIDTH 292 0
DWIDTH 7 0
BBX 8 22 0 -3
BITMAP
89000000
9F400000
7F900000
3FE00000
0DF10000
0CF30000
08F70000
03FC0000
00EF5000
009FA000
004FE000
000EF200
000BF600
0006FA00
0002FA00
0000CB00
00008F10
00004F70
00000DC0
00000AF2
000007B2
00000100
ENDCHAR
STARTCHAR bracketright
ENCODING 93
SWIDTH 407 0
DWIDTH 10 0
BBX 9 22 0 -1
BITMAP
0599AA9800
4FFFFFFE00
4FFFFFFE00
4FFFFFFE00
4FFFFFFE00
13349FFE00
00007FFF10
00006FFF20
00005FFF20
00004FFF30
00003FFF40
00003FFF30
00003FFF60
00003FFF60
00003FFF50
00003FFF40
00004FFF20
00004FFF30
79AABFFF30
7FFFFFFF30
6FFFFFFF40
0144414920
ENDCHAR
STARTCHAR asciicircum
ENCODING 94
SWIDTH 523 0
DWIDTH 13 0
BBX 11 9 1 17
BITMAP
000765730000
006FFFFC0000
00CFFFFF5000
04FFFFFFC000
0BFFD8FFF500
2FFF50DFFD00
9FFC004FFF60
EFF4000AFF50
2C600001C600
ENDCHAR
STARTCHAR underscore
ENCODING 95
SWIDTH 452 0
DWIDTH 11 0
BBX 9 5 1 -1
BITMAP
1110000010
DFFEEFDF90
DFFFFFFF80
DFFFFFFF80
6888976940
ENDCHAR
STARTCHAR grave
ENCODING 96
SWIDTH 444 0
DWIDTH 11 0
BBX 9 7 1 18
BITMAP
0010000000
00C9000000
02FFB10000
1BFFFD2000
7DFFFFE600
0037CFFF10
0000005800
ENDCHAR
STARTCHAR a
ENCODING 97
SWIDTH 479 0
DWIDTH 12 0
BBX 12 21 0 -3
BITMAP
379ACDDBCDD6
2DFFFFFFFF70
02DFFFFFFE00
008FFFFFFB00
007FFFFFFA00
005FFFFFFA00
006FFFFFFA00
008FFFFFF900
006FFFFFF600
004FFFDFF700
007FFCBFF900
008FF98FF900
00AFF67FFB00
00AFF56FFA00
008FFCDFF900
00BFFFFFF700
00AFFCDFF600
008FF65FF500
00AFE12FF400
007FA0258200
000100000000
ENDCHAR
STARTCHAR b
ENCODING 98
SWIDTH 610 0
DWIDTH 15 0
BBX 15 20 0 -2
BITMAP
0002467888972000
2BEFFFFFFFFFE200
09FFFFFFFFFFF900
01EFFFFFFFFFFD00
006FFFFFFFFFFF00
000DFFFFFFFFFF10
000EFFFFFFFFFF10
000CFFFFFFFFFD00
0009FFF719FFF800
0006FFF807FFF200
0005FFFA28FFC000
0005FFFFFFFF5000
0004FFFFFFF90000
0002FFFEEFFF3000
0000DFF70BFF8000
0000BFF70AFF7000
00009FF91BFF4000
00007FFFFFFF1000
00007CBEFFF80000
0000211118A10000
ENDCHAR
STARTCHAR c
ENCODING 99
SWIDTH 534 0
DWIDTH 13 0
BBX 13 20 0 -2
BITMAP
00017ADDA40000
002DFFFFFF7100
05EFFFFFFFF800
0DFFFFFFFFFF30
3FFFFFFFFFFF20
5FFFFFFFFFFF30
5FFFFFFFFFFF30
2FFFFFFFFFFF20
0EFFFF58FFFF00
0AFFFD01FFFE00
06FFFF00BEEC00
06FFFC00000100
03FFFC00000000
00FFFE01961000
00AFFF15FFC000
008FFF5AFF9000
002EFFEFFF6000
000BFFFFFC0000
00036CCBD00000
00000202200000
ENDCHAR
STARTCHAR d
ENCODING 100
SWIDTH 573 0
DWIDTH 14 0
BBX 14 21 0 -3
BITMAP
013469AA741000
2CFFFFFFFFE300
0BFFFFFFFFFE20
06FFFFFFFFFFD1
01FFFFFFFFFFF4
00AFFFFFFFFFF7
006FFFFFFFFFF7
002FFFFFFFFFF5
000EFFFDCFFFF3
000BFFF50CFFE0
0008FFF209FFA0
0006FFF306FF60
0003FFF107FF10
0001FFF30AFC00
0000EFF10DF900
0000DFF31FF600
0000CFFADFF300
0000CFFFFFF000
0000AEBFFFA000
00009509ED2000
00006001100000
ENDCHAR
STARTCHAR e
ENCODING 101
SWIDTH 632 0
DWIDTH 15 0
BBX 15 20 0 -2
BITMAP
0024689998763100
3CFFFFFFFFFFFF30
0BFFFFFFFFFFF900
02FFFFFFFFFFF200
00BFFFFFFFFFB000
009FFFFFFFFF8000
007FFFFFFFFF6000
004FFFFFFFFF4000
001FFFF767BF1000
000EFFF500010000
000BFFF955500000
0008FFFFFFD00000
0006FFFFFFD00000
0005FFFEDEB00000
0003FFF500300000
0001FFF765410000
0000DFFEFFF30000
0000AFFFFFF00000
0000752DB8C00000
0000100000500000
ENDCHAR
STARTCHAR f
ENCODING 102
SWIDTH 559 0
DWIDTH 13 0
BBX 13 21 0 -3
BITMAP
14768875764100
3EFFFFFFFFFF40
03EFFFFFFFFB00
007FFFFFFFF600
002FFFFFFFF400
001FFFFFFFF200
001FFFFFFFF000
001FFFFFFFE000
000CFFE88CE000
000AFFE1113100
000AFFFFFE0000
000AFFFFFE0000
0009FFFFFE1000
0005FFF4252000
0006FFF1000000
0008FFF2000000
000AFFF2000000
000AFFF3000000
00083C73000000
00020714000000
00000101000000
ENDCHAR
STARTCHAR g
ENCODING 103
SWIDTH 546 0
DWIDTH 13 0
BBX 13 20 0 -2
BITMAP
00047877510000
006FFFFFFE7000
0AFFFFFFFFF700
0FFFFFFFFFFF20
3FFFFFFFFFFF70
4FFFFFFFFFFFA0
2FFFFFFFFFFFA0
0FFFFFFFFFFF80
0DFFFB3DFFFF40
0AFFF805FFFF10
07FFF602FFFF00
04FFF602024600
00EFF70FEA7400
00AFFC0EFFFD00
008FFE0DDFFA00
006FFF318FFA00
003FFFDAFFF900
000EFFFFFFF800
0004FFFFFFF400
0000569A673000
ENDCHAR
STARTCHAR h
ENCODING 104
SWIDTH 730 0
DWIDTH 18 0
BBX 17 20 0 -2
BITMAP
000269BC12DBCAA630
2BFFFFF700EFFFFF80
02FFFFF5009FFFFE10
00CFFFF5009FFFF800
00BFFFF500EFFFF200
009FFFF500FFFFC000
006FFFF400EFFFA000
003FFFF400EFFF8000
000FFFF300EFFF3000
000CFFF646FFFD0000
0009FFFFFFFFFA0000
0007FFFFFFFFF80000
0006FFFDADFFF70000
0005FFF508FFF50000
0004FFF60AFFF10000
0002FFF60AFFE00000
0000FFF60CFFC00000
0000EFF50CFFA00000
0001911006DA900000
000000000022300000
ENDCHAR
STARTCHAR i
ENCODING 105
SWIDTH 412 0
DWIDTH 10 0
BBX 10 19 0 -1
BITMAP
369BAAA751
1EFFFFFFA0
04EFFFFF60
006FFFFD00
001FFFFD00
001FFFFA00
002FFFF600
003FFFF400
002FFFF200
001FFFF100
000EFFF100
000CFFF300
0009FFE000
0007FFC000
0005FFC000
0005FFB000
0004FFA000
0002DD9000
0000157000
ENDCHAR
STARTCHAR j
ENCODING 106
SWIDTH 458 0
DWIDTH 11 0
BBX 12 19 -1 -1
BITMAP
00009BB96200
0000AFFFFFD2
00003FFFFF90
00000EFFFF70
00000AFFFF30
000008FFFD00
000008FFFE00
000008FFFD00
000008FFFC00
000008FFFB00
000004FFFA00
000205FFF700
28AD05FFF600
6FFF14FFF600
1EFF65FFF300
0CFFDDFFF100
07FFFFFFA000
009DFFFF7000
000034A45000
ENDCHAR
STARTCHAR k
ENCODING 107
SWIDTH 636 0
DWIDTH 15 0
BBX 15 19 0 -1
BITMAP
0035765607AB9720
4EFFFFF51FFFFC30
03EFFFF34FFFB000
00CFFFF39FFC1000
005FFFF4BFF10000
000DFFF6DFE00000
0008FFF7EFC00000
0006FFF9FF600000
0005FFFCFE100000
0004FFFFFA000000
0003FFFFF8000000
0001EFFFFB000000
0000BFFFFF200000
0000AFFEFF700000
00007FF8DFC00000
00006FF37FF30000
00005FF31EF80000
00003FF40CFE1000
0000173406871000
ENDCHAR
STARTCHAR l
ENCODING 108
SWIDTH 438 0
DWIDTH 11 0
BBX 12 20 0 -2
BITMAP
0269AABBD800
3BFFFFFF4000
02EFFFFA0000
00DFFFF30000
00AFFFF60000
009FFFF40000
006FFFF20000
006FFFF30000
002FFFF30000
000AFFF20000
000AFFF10000
0009FFF00000
0009FFE00000
0006FFF00000
0005FFF84341
0003FFFFFFD1
0002FFFFFFA0
0000FFEAFF60
0000C232AF30
000060001500
ENDCHAR
STARTCHAR m
ENCODING 109
SWIDTH 770 0
DWIDTH 18 0
BBX 18 21 0 -2
BITMAP
000000000010000000
0000148B30CADDA630
159DFFFF30BFFFFFE6
2CFFFFFF61FFFFFE30
01EFFFFF86FFFFFA00
00BFFFFFC9FFFFF700
00CFFFFFEDFFFFF200
00BFFFFFFFFFFFF000
006FFFFFFFFFFFC000
005FFFFFFFFFFFA000
005FFFFFFFFFFF8000
002FFFFFFFFFFF6000
000FFFCFFFBFFF3000
000DFFBDFF8FFF1000
000BFFB9FC9FFC0000
0009FFC9F9BFF80000
0008FFD6F5CFF30000
0007FFB3F1EFE00000
0004D7A1C1CCC00000
000190001022400000
000150000000000000
ENDCHAR
STARTCHAR n
ENCODING 110
SWIDTH 664 0
DWIDTH 16 0
BBX 16 21 0 -3
BITMAP
478ABCA508766775
2EFFFFF709FFFFE2
08FFFFFC06FFFF80
01FFFFFF34FFFF10
00EFFFFF76FFFB00
00EFFFFFB8FFF800
00DFFFFFEAFFF500
00CFFFFFFFFFF300
00AFFFFFFFFFF100
009FFFFFFFFFE000
007FFFFFFFFFC000
004FFFFFFFFFA000
001EFF9FFFFF7000
000EFF6FFFFF4000
000DFF3BFFFF2000
000BFF47FFFD0000
000AFF34FFFA0000
0008FF31FFF30000
0007FB30FFC10000
0002301078900000
0000000001000000
ENDCHAR
STARTCHAR o
ENCODING 111
SWIDTH 545 0
DWIDTH 13 0
BBX 13 20 0 -2
BITMAP
000169A8930000
005EFFFFFF8100
04FFFFFFFFF700
1DFFFFFFFFFF50
3FFFFFFFFFFF60
4FFFFFFFFFFF70
2FFFFFFFFFFF90
0FFFFFEFFFFF70
0DFFFC0CFFFF80
0BFFF608FFFF60
09FFF407FFFF30
07FFF404FFFE10
04FFF506FFFB00
01FFF608FFF600
00CFFA0CFFF200
008FFE5EFFD000
005FFFFFFF8000
0009BFFFFE1000
0000171FB90000
00000005060000
ENDCHAR
STARTCHAR p
ENCODING 112
SWIDTH 557 0
DWIDTH 13 0
BBX 13 19 0 -1
BITMAP
14689978884000
2EFFFFFFFFFA00
03EFFFFFFFFF60
007FFFFFFFFFA0
005FFFFFFFFFC0
005FFFFFFFFF90
004FFFFFFFFF70
003FFFFBEFFF60
001FFFF21FFF40
000EFFE00DFF10
000CFFF01FFE00
000BFFF68FFA00
0008FFFFFFF600
0006FFFFFFE100
0003FFF4463000
0004FFF4000000
0002FFF3000000
0002FFF4000000
0000DAD4000000
ENDCHAR
STARTCHAR q
ENCODING 113
SWIDTH 562 0
DWIDTH 14 0
BBX 14 21 0 -3
BITMAP
000028CBA61000
002AFFFFFFB100
07FFFFFFFFFD10
09FFFFFFFFFF70
1EFFFFFFFFFFA0
5FFFFFFFFFFFC0
6FFFFFFFFFFFD0
4FFFFFB3DFFFD0
1FFFFF506FFFB0
0CFFFF406FFFB0
08FFFF201FFFA0
04FFFF100FFF90
05FFFF401FFF80
00EFFF71AFFF60
008FFFD3FFFF30
001EFFFEFFFC00
0004EFFFFFFC00
00004EFFFFFFB2
000004BCBBFFA0
0000000002BC00
00000000003600
ENDCHAR
STARTCHAR r
ENCODING 114
SWIDTH 616 0
DWIDTH 15 0
BBX 15 20 0 -2
BITMAP
00155AAA87400000
3EFFFFFFFFFE8100
08FFFFFFFFFFFD10
00AFFFFFFFFFFF50
002FFFFFFFFFFF40
000EFFFFFFFFFF20
000DFFFFFFFFFF00
000BFFFEAEFFFC00
0009FFF806FFF800
0008FFF705FFF600
0009FFFA2AFFF300
0005FFFFFFFFF100
0002FFFFFFFF9000
0002FFFFFFFB2000
0001FFF88FF90000
0001FFF66FFA0000
0000FFF85FFA0000
0000FFF65FFA0000
0000ED843EFB0000
00003000015B0000
ENDCHAR
STARTCHAR s
ENCODING 115
SWIDTH 481 0
DWIDTH 12 0
BBX 12 20 0 -2
BITMAP
000179A83000
003EFFFFF700
02EFFFFFFF80
0AFFFFFFFFF1
1FFFFFFFFFD0
4FFFFFFFFFC0
5FFFFFFFFFB0
5FFFFFFFFFA0
5FFFF49FFF80
2FFFF42BBE70
0CFFFDA60230
08FFFFFF9000
008FFFFFF300
00027BFFF800
0035528FFA00
05FFF46FF800
01EFFDEFF300
007FFFFFA000
001DFFCD4000
000230000000
ENDCHAR
STARTCHAR t
ENCODING 116
SWIDTH 683 0
DWIDTH 16 0
BBX 16 22 0 -4
BITMAP
00358BBBBBBA8520
3DFFFFFFFFFFFFF5
0AFFFFFFFFFFFFD0
02FFFFFFFFFFFF50
00CFFFFFFFFFFF20
007FFFFFFFFFFF10
004FFFFFFFFFFF00
002FFFFFFFFFFE00
001FEABFFFB7BB00
0004006FFFB00100
0000004FFFC00000
0000004FFFD00000
0000003FFFC00000
0000002FFFC00000
0000000FFFA00000
0000000DFFB00000
0000000BFFA00000
0000000CFF900000
0000000BFF800000
0000000AFF900000
0000000018500000
0000000000100000
ENDCHAR
STARTCHAR u
ENCODING 117
SWIDTH 708 0
DWIDTH 17 0
BBX 17 19 0 -1
BITMAP
01358AA70055200000
2BFFFFF900CFFED720
01FFFFF800EFFFFF80
00DFFFF901EFFFF900
009FFFFA00DFFFF500
006FFFFC00DFFFD000
003FFFFD00DFFF8000
001FFFFE00EFFF4000
000DFFFD00FFFF1000
000BFFFA01FFFE0000
0009FFFA04FFFD0000
0008FFFB03FFFC0000
0007FFFE04FFFA0000
0003FFFF17FFF70000
0000BFFF3AFFF40000
00008FFFFFFFF20000
00005FFFDFFFB00000
000014DA0ACA400000
000000010010000000
ENDCHAR
STARTCHAR v
ENCODING 118
SWIDTH 644 0
DWIDTH 15 0
BBX 16 20 0 -2
BITMAP
1467897005987641
07FFFFA00BFFFF50
00CFFFC00EFFF900
007FFFD04FFFF200
001FFFF23FFFC000
000CFFF35FFF8000
0009FFF46FFF5000
0006FFF76FFF3000
0003FFF97FFE0000
0001FFFA8FFB0000
0000CFFA9FF80000
00008FFBBFF50000
00003FFEDFF10000
00000DFFFFE00000
000009FFFFB00000
000004FFFF600000
000000DFFF300000
0000005FFF100000
0000004FE8000000
0000001540000000
ENDCHAR
STARTCHAR w
ENCODING 119
SWIDTH 704 0
DWIDTH 17 0
BBX 17 18 0 0
BITMAP
00025403B604420000
4CFFFD06FB05FFEB60
07FFFF19FE16FFFA10
007FFF3AFF49FFF300
003EFF5EFF8CFFC000
000BFF9FFFDFFF5000
0009FFDFFFFFFE0000
0005FFFFFFFFF90000
0000DFFFFFFFF50000
00006FFFFFFFF40000
00002FFFFFFFF30000
00000EFFFFFFE00000
00000AFFFCFFE00000
000006FFD9FFE00000
000002FFC7FFB00000
000000DFB6FF700000
0000008F83FF600000
0000003733CD500000
ENDCHAR
STARTCHAR x
ENCODING 120
SWIDTH 599 0
DWIDTH 14 0
BBX 15 20 0 -2
BITMAP
01479A3088630000
4BFFFFC0BFFFEB20
008FFFD1EFFF9200
000AFFF8FFF50000
0003FFFFFFA00000
0000AFFFFF400000
00004FFFFF100000
00001FFFFE000000
00000FFFFB000000
00000FFFF8000000
00000CFFF3000000
000006FFF3000000
00000AFFF2000000
00000DFFF4000000
00000FFFF7000000
00002FFBFB000000
00006FC6FF200000
0000AFB4FF500000
0000EA6266600000
0000100000100000
ENDCHAR
STARTCHAR y
ENCODING 121
SWIDTH 604 0
DWIDTH 15 0
BBX 14 20 0 -2
BITMAP
03579700193000
1AFFFF506FFEC6
007FFFC09FFFD1
0004FFF3FFFD10
0000EFFCFFF300
00003FFFFF8000
00000EFFFF3000
00000BFFFF1000
000008FFFF0000
000004FFFD0000
000001FFFC0000
000000DFFB0000
000000AFF90000
000000AFF80000
000000AFF90000
000000BFF80000
000000BFF60000
000000BFF20000
0000009EC20000
00000031000000
ENDCHAR
STARTCHAR z
ENCODING 122
SWIDTH 622 0
DWIDTH 15 0
BBX 14 20 0 -2
BITMAP
0049BBABBB9631
1FFFFFFFFFFFFE
0AFFFFFFFFFFFB
03FFFFFFFFFFF3
00AFFFFFFFFFB0
004FFFFFFFFF80
000FFFFFFFFF60
000DFFFFFFFE10
000AE84DFFF500
0005204FFF6000
000000BFFB0000
000000DFF30000
000004FFC00000
000006FF500000
00000CFD210000
00001FFFFFE100
00007FFFFFC000
00008FFFFFC000
00002918799000
00000000003000
ENDCHAR
STARTCHAR braceleft
ENCODING 123
SWIDTH 372 0
DWIDTH 9 0
BBX 9 24 0 -3
BITMAP
0000000340
000005CF70
0000AFFF60
0007FFFF40
002FFFFF20
008FFFFF00
03FFFFFD00
07FFFFFC00
0AFFFFE900
0CFFFD1000
0EFFF60000
0FFFF40000
1FFFF30000
1FFFF20000
1FFFF10000
0FFFF20000
0DFFF40000
08FFF90000
03FFFE1000
00BFFFD100
005FFFF700
000BFFFA00
0002DFFB00
000006B400
ENDCHAR
STARTCHAR bar
ENCODING 124
SWIDTH 208 0
DWIDTH 5 0
BBX 3 23 1 -3
BITMAP
0220
4F60
7F70
8F80
AF50
7F80
4F70
6F40
7F30
7F40
7F40
7F50
7F50
7F60
7F50
7F50
4F30
4F30
6F40
7F30
8F30
7E40
2320
ENDCHAR
STARTCHAR braceright
ENCODING 125
SWIDTH 338 0
DWIDTH 8 0
BBX 7 24 0 -4
BITMAP
3EA71000
5FFFC100
2FFFFD10
1FFFFF90
0FFFFFD0
0EFFFFE0
0DFFFFE0
0DFFFFE0
048FFFE0
000BFFD0
0008FFC0
0007FFC0
0006FFB0
0006FFA0
0007FF80
000AFF60
000BFF40
000EFF10
004FFC00
028FF700
3FFFB000
7FFE1000
6EE40000
01000000
ENDCHAR
STARTCHAR asciitilde
ENCODING 126
SWIDTH 535 0
DWIDTH 13 0
BBX 12 6 0 13
BITMAP
002300019600
05EF305DFFA0
1FFFEDFFFFF8
05FFFFFFFFFA
008FFFC69FB1
000484000300
ENDCHAR
STARTCHAR exclamdown
ENCODING 161
SWIDTH 347 0
DWIDTH 8 0
BBX 8 29 0 1
BITMAP
03874241
04FFFFF5
03FFFFF6
03FFFFF7
04FFFFF7
07FFFFF4
0DFFFFF5
168ACDB4
00000000
00000000
00157800
004FFB00
005FFE00
005FFF00
005FFF00
006FFD10
006FFF10
008FFF50
00BFFF30
00EFFF20
04FFFF60
09FFFF80
08FFFFA0
07FFFFC0
03FFFFE0
0CFFFFE0
2FFFFFF7
5FFFFFF9
14ADAA61
ENDCHAR
STARTCHAR cent
ENCODING 162
SWIDTH 552 0
DWIDTH 13 0
BBX 13 34 0 -9
BITMAP
00000074000000
000000C3000000
000000E3000000
000000E4000000
000000E4000000
000000F4000000
000000E4000000
000059FDA70000
002DFFFFFF8100
04EFFFFFFFF900
0CFFFFFFFFFF50
2FFFFFFFFFFF30
4FFFFFFFFFFF40
3FFFFFFFFFFF40
0FFFFFFFFFFF30
0BFFFF66FFFF20
08FFFF01EFFF00
05FFFF10ACDD00
05FFFE00000100
02FFFD00000000
00EFFF00971000
009FFF33FFD000
007FFF69FFA000
001EFFEFFF8000
000BFFFFFD2000
00036CDCE10000
000002A4300000
000000B2000000
000000B2000000
000000C3000000
000000C4000000
000000C4000000
000000C5000000
00000074000000
ENDCHAR
STARTCHAR sterling
ENCODING 163
SWIDTH 589 0
DWIDTH 14 0
BBX 13 20 1 -2
BITMAP
00268776200000
03FFFFFFF91000
6FFFFFFFFFC100
BFFFFFFFFFF800
EFFFFFFFFFFE10
EFFFFFFFFFFF40
CFFFFFFFFFFF40
BFFFFFFFFFFF10
9FFFF2AFFFFB00
6FFFC01EFFF600
3FFFA00CFFF300
9FFFD840147200
EFFFFF70000000
15FFF710000000
03FFFB75357000
06FFFFFFFF6000
08FFFFFFFF3000
09FFFBFFFB0000
0453C5ABF70000
00014102700000
ENDCHAR
STARTCHAR yen
ENCODING 165
SWIDTH 692 0
DWIDTH 17 0
BBX 18 20 -1 1
BITMAP
365668820018520000
07EFFFF9004FFFFED6
002AFFFF307FFFFE30
00009FFFA1EFFFF400
00002DFFFAFFFF6000
000001EFFFFFF90000
0000009FFFFFF10000
0000005FFFFFF32100
006BBBBFFFFFFFFF90
006EEEEEFFFFC8BB30
00000002FFFF700000
00287766EFFFA77860
006FFFFFFFFFFFFFB0
00133455DFFF633420
00000000CFFF200000
00000000AFFF200000
000000007FFF200000
000000004FFF300000
000000000EBA300000
000000000200000000
ENDCHAR
STARTCHAR brokenbar
ENCODING 166
SWIDTH 201 0
DWIDTH 5 0
BBX 3 23 1 -3
BITMAP
2100
8F20
AF40
AF60
8F70
BF50
AF20
7F40
4B30
0000
0000
0000
0000
0000
7E50
7F50
5F20
6F20
6F30
5F50
5F50
7E40
3310
ENDCHAR
STARTCHAR section
ENCODING 167
SWIDTH 477 0
DWIDTH 11 0
BBX 11 23 0 -5
BITMAP
00006CEC7100
000BFFFFFE30
008FFFFFFFC0
01EFFFFFFFA0
02FFFFFFFF60
02FFFFFFFF20
00FFFECFFE00
00DFFA1EFB00
00BFFE542200
009FFFFFA200
04FFFFFFF500
1EFFB7BFFA00
5FFF902FFA00
5FFF905FF500
4FFFE3AFD000
0DFFFFFF8000
06FFFFFF2000
0025CDFF6000
035755FF7000
09FFC7FF3000
01EFFFFC0000
009FFFF50000
000821200000
ENDCHAR
STARTCHAR dieresis
ENCODING 168
SWIDTH 633 0
DWIDTH 15 0
BBX 13 7 1 19
BITMAP
00000000001000
3BC9A307BEFE30
5FFFF509FFFF40
5FFFF509FFFF30
6FFFF509FFFF60
5FFFF409FFFF50
2AACB204A97820
ENDCHAR
STARTCHAR copyright
ENCODING 169
SWIDTH 783 0
DWIDTH 19 0
BBX 18 21 0 -2
BITMAP
000000036751000000
000006DFFFFFA20000
0001BFB53446AF6000
001CF704ADD703D600
009F804FFFFF802D30
03FD02FFFFFFF305B0
09F507FFFFFFF600E3
0DE009FFFFFFF60098
0FA009FFFFFFF6007B
1F7007FFF9FFF6006D
1F8005FFD09FF4006D
1FA004FFD04891007C
0FB002FFC00000009B
0DC000EFC0341000D7
09F100BFD0BFB003F3
03F7008FF7FF800AC0
00BE104FFFFF306F50
002EC107DBE706FB00
0004FD501113AFD100
00004DFECBDFFB1000
0000005ACCB9400000
ENDCHAR
STARTCHAR guillemotleft
ENCODING 171
SWIDTH 759 0
DWIDTH 18 0
BBX 18 14 0 1
BITMAP
000048888402998882
0000CFFFC108FFFFA0
0006FFFE203FFFFC00
003FFFF901DFFFF300
01DFFFE207FFFF9000
0AFFFF601EFFFE1000
2FFFFB004FFFF50000
1DFFF9001EFFF80000
05FFFF4006FFFF1000
007FFFA001CFFF6000
000AFFF9002EFFE500
0001CFFF7004FFFE30
00002EFFF6007FFFD2
000002445300022552
ENDCHAR
STARTCHAR uni00AD
ENCODING 173
SWIDTH 446 0
DWIDTH 11 0
BBX 9 4 1 6
BITMAP
9DDCBCBD50
AFFFFFFF50
8BFFCECF40
0000000100
ENDCHAR
STARTCHAR registered
ENCODING 174
SWIDTH 780 0
DWIDTH 19 0
BBX 18 21 0 -2
BITMAP
000000023420000000
000007DFECCD710000
0002CFD500017C3000
001DFC48987202D300
00AFDFFFFFFF603D20
03FC1CFFFFFFF408A0
09F505FFFFFFF502F2
0EE002FFFFFFF500D8
2FA001FFFAFFF400BB
4F8001FFE07FF300CD
0D5000DFF09FF100DE
0C4000AFFEFFB000CB
0B70006FFFFF500097
08C0001EF9CF500085
04F5000BFD2FE100A3
00CE2009FE1FF402D0
004FC106C90BE71C60
0008FD40210215CA00
00008FFC7557BFB100
000005DFFFFFE80000
000000047996100000
ENDCHAR
STARTCHAR macron
ENCODING 175
SWIDTH 446 0
DWIDTH 11 0
BBX 9 4 1 6
BITMAP
9DDCBCBD50
BFFFFFFF50
8BFFDECF40
0000000100
ENDCHAR
STARTCHAR acute
ENCODING 180
SWIDTH 439 0
DWIDTH 11 0
BBX 9 7 1 18
BITMAP
0000010000
00003E5000
0005EF9000
007FFFF500
1AFFFFFB20
8FFE951000
3830000000
ENDCHAR
STARTCHAR mu
ENCODING 181
SWIDTH 679 0
DWIDTH 16 0
BBX 18 19 -1 -1
BITMAP
002479AA2026400000
16FFFFFF204FFEFB51
008FFFFF105FFFFFD3
005FFFFF107FFFFF20
002FFFFF305FFFFD00
000DFFFF605FFFF700
000AFFFF705FFFF200
0007FFFF706FFFD000
0005FFFF607FFFA000
0003FFFF308FFF7000
0001FFFF30BFFF6000
0001FFFF40AFFF6000
0000DFFF50CFFF3000
0000AFFF52FFFE0000
00004FFF75FFFC0000
00001FFFFFFFF90000
00000DFFEFFFF30000
000003AB28AB900000
000000000021000000
ENDCHAR
STARTCHAR paragraph
ENCODING 182
SWIDTH 591 0
DWIDTH 14 0
BBX 15 20 0 -2
BITMAP
00158788BA864200
05EFFFFFFFFFFD10
1FFFFFFFFFFFC100
4FFFFFFFDBEF5000
4FFFFFFF80CF3000
1FFFFFFF80EF3000
0EFFFFFF80FF1000
0BFFFFFF70FF0000
07FFFFFF61FF0000
01FFFFFF51FE0000
007FFFFF51FC0000
0006854F50F90000
0000003F50F50000
0000003F40F20000
0000001F40F10000
0000001F40F20000
0000002F30F10000
0000002F30F00000
0000003D31F00000
0000000000200000
ENDCHAR
STARTCHAR periodcentered
ENCODING 183
SWIDTH 388 0
DWIDTH 9 0
BBX 7 8 1 5
BITMAP
589CDC70
8FFFFFB0
5FFFFFA0
3FFFFFC0
2FFFFFD0
1FFFFFC0
0FFFFFB0
08631320
ENDCHAR
STARTCHAR cedilla
ENCODING 184
SWIDTH 270 0
DWIDTH 7 0
BBX 5 8 1 -8
BITMAP
1FD000
5F8000
9F2000
CFED60
57BF70
007F60
7ADF50
ACDE40
ENDCHAR
STARTCHAR guillemotright
ENCODING 187
SWIDTH 767 0
DWIDTH 18 0
BBX 18 14 0 1
BITMAP
2BBCBC501875510000
0AFFFF9008FFFB0000
01DFFFE100CFFF9000
003FFFF9002DFFF500
0008FFFF5004FFFF20
0001CFFFE200EFFFC1
00005FFFF4004EFFF7
0000CFFFD0004FFFFA
0003FFFFA001EFFFF4
002EFFFA0008FFFFA0
02DFFFF2002FFFFD10
0DFFFF9000BFFFF300
0FFFEC0009FFFF7000
001000000577771000
ENDCHAR
STARTCHAR Agrave
ENCODING 192
SWIDTH 494 0
DWIDTH 12 0
BBX 13 32 -1 -6
BITMAP
00100000000000
02E50000000000
06FF8000000000
3DFFFA00000000
AEFFFFC3000000
0048DFFC000000
00000166000000
00000000000000
00134554431000
03CFFFFFFFFA10
0019FFFFFFD100
0007FFFFFF6000
0006FFFFFF4000
0005FFFFFF2000
0007FFFFFF1000
0007FFFFFF0000
0005FFFFFE0000
0006FFBEFD0000
0006FF7DFD0000
0007FF4CFD0000
0008FF2BFE0000
0005FE8DFC0000
0009FFFFFD0000
000AFFFFFB0000
0007FFDFF80000
0005FF3CF50000
0004FA0BF40000
0004A706E20000
00016201900000
00001002700000
00000004000000
00000001000000
ENDCHAR
STARTCHAR Aacute
ENCODING 193
SWIDTH 494 0
DWIDTH 12 0
BBX 15 32 0 -6
BITMAP
0000000000010000
00000000005E3000
0000000006FF7000
000000009FFFE400
0000002BFFFFEA10
000000AFFD940000
0000005720000000
0000000000000000
0134554431000000
3CFFFFFFFFA10000
019FFFFFFD100000
007FFFFFF6000000
006FFFFFF4000000
005FFFFFF2000000
007FFFFFF1000000
007FFFFFF0000000
005FFFFFE0000000
006FFBEFD0000000
006FF7DFD0000000
007FF4CFD0000000
008FF2BFE0000000
005FE8DFC0000000
009FFFFFD0000000
00AFFFFFB0000000
007FFDFF80000000
005FF3CF50000000
004FA0BF40000000
004A706E20000000
0016201900000000
0001002700000000
0000004000000000
0000001000000000
ENDCHAR
STARTCHAR Acircumflex
ENCODING 194
SWIDTH 494 0
DWIDTH 12 0
BBX 12 34 0 -6
BITMAP
000000010000
000AEDEF2000
002FFFFF9000
008FFFFFF200
01EFFDFFF900
06FFD18FFF20
0DFE200AFFA0
4FF30001CFF1
3D5000001C50
000000000000
013455443100
3CFFFFFFFFA1
019FFFFFFD10
007FFFFFF600
006FFFFFF400
005FFFFFF200
007FFFFFF100
007FFFFFF000
005FFFFFE000
006FFBEFD000
006FF7DFD000
007FF4CFD000
008FF2BFE000
005FE8DFC000
009FFFFFD000
00AFFFFFB000
007FFDFF8000
005FF3CF5000
004FA0BF4000
004A706E2000
001620190000
000100270000
000000400000
000000100000
ENDCHAR
STARTCHAR Atilde
ENCODING 195
SWIDTH 494 0
DWIDTH 12 0
BBX 12 31 0 -6
BITMAP
001000024000
06E7005DFC10
6FFF8CFFFFC0
2EFFFFFFFFF5
04FFFFCAFF90
004AB5003600
000000000000
013455443100
3CFFFFFFFFA1
019FFFFFFD10
007FFFFFF600
006FFFFFF400
005FFFFFF200
007FFFFFF100
007FFFFFF000
005FFFFFE000
006FFBEFD000
006FF7DFD000
007FF4CFD000
008FF2BFE000
005FE8DFC000
009FFFFFD000
00AFFFFFB000
007FFDFF8000
005FF3CF5000
004FA0BF4000
004A706E2000
001620190000
000100270000
000000400000
000000100000
ENDCHAR
STARTCHAR Adieresis
ENCODING 196
SWIDTH 494 0
DWIDTH 12 0
BBX 12 32 0 -6
BITMAP
000000000100
8CAA801BCFFA
CFFFD01FFFFC
DFFFD01FFFFA
DFFFD01FFFFD
CFFFC01FFFFC
7ABB8019A886
000000000000
013455443100
3CFFFFFFFFA1
019FFFFFFD10
007FFFFFF600
006FFFFFF400
005FFFFFF200
007FFFFFF100
007FFFFFF000
005FFFFFE000
006FFBEFD000
006FF7DFD000
007FF4CFD000
008FF2BFE000
005FE8DFC000
009FFFFFD000
00AFFFFFB000
007FFDFF8000
005FF3CF5000
004FA0BF4000
004A706E2000
001620190000
000100270000
000000400000
000000100000
ENDCHAR
STARTCHAR Aring
ENCODING 197
SWIDTH 494 0
DWIDTH 12 0
BBX 12 31 0 -6
BITMAP
00007BA70000
000AFFFFA000
002FD56EF300
001FB008F300
000CD10BC000
0009FFEF4000
00035DF70000
013455543100
3CFFFFFFFFA1
019FFFFFFD10
007FFFFFF600
006FFFFFF400
005FFFFFF200
007FFFFFF100
007FFFFFF000
005FFFFFE000
006FFBEFD000
006FF7DFD000
007FF4CFD000
008FF2BFE000
005FE8DFC000
009FFFFFD000
00AFFFFFB000
007FFDFF8000
005FF3CF5000
004FA0BF4000
004A706E2000
001620190000
000100270000
000000400000
000000100000
ENDCHAR
STARTCHAR AE
ENCODING 198
SWIDTH 733 0
DWIDTH 18 0
BBX 17 24 0 -6
BITMAP
012456789A99864200
2CFFFFFFFFFFFFFF90
009FFFFFFFFFFFFF20
008FFFFFFFFFFFFB00
008FFFFFFFFFFFF500
007FFFFFFFFFFFF100
006FFFFFFFFFFFC000
005FFFFFFFEFFFB000
005FFFFFFF41486000
006FFBFFFF40000000
006FF7DFFFEED50000
007FF4DFFFFFF60000
008FF2CFFFFFF40000
006FE8DFFF64510000
009FFFFFFF31000000
00AFFFFFFFEFFA0000
007FFDFFFFFFF90000
005FF2DF59FDC70000
004FA0BF18C3360000
002A606D0830430000
001620080830710000
000100260500200000
000000300000000000
000000100000000000
ENDCHAR
STARTCHAR Ccedilla
ENCODING 199
SWIDTH 504 0
DWIDTH 12 0
BBX 12 29 0 -11
BITMAP
00029BCC8100
003EFFFFFC30
05FFFFFFFFC0
0DFFFFFFFFF7
3FFFFFFFFFF7
5FFFFFFFFFF7
4FFFFFFFFFF7
3FFFFFFFFFF6
0FFFFB3EFFF5
0DFFF608FFF4
0AFFF70598A1
08FFF6000000
05FFF4000000
03FFF507B730
00EFF70DFF70
00CFFC5FFF40
006FFFFFFE10
004EFFFFE400
0001A6AF7000
000061690000
000021350000
00000005F800
0000000AF300
0000000EB000
0000003FFDD1
000000167EF1
000000000DF0
00000019BFF0
0000002DCEE0
ENDCHAR
STARTCHAR Egrave
ENCODING 200
SWIDTH 570 0
DWIDTH 14 0
BBX 13 28 0 -2
BITMAP
00100000000000
02E50000000000
06FF7000000000
3DFFF900000000
AEFFFFC3000000
0049DFFC000000
00000165000000
00000000000000
046899A9874200
2EFFFFFFFFFF90
05FFFFFFFFFF10
00CFFFFFFFFD00
00CFFFFFFFF900
00BFFFFFFFF500
00AFFFFFFFE100
009FFFEFFFB000
008FFF51486000
007FFF50000000
005FFFEEE50000
004FFFFFF60000
002FFFFFF50000
000FFF74520000
000DFF31000000
000CFFEFFB0000
000AFFFFF90000
000A39FEC80000
000807D4260000
00000200210000
ENDCHAR
STARTCHAR Eacute
ENCODING 201
SWIDTH 570 0
DWIDTH 14 0
BBX 15 28 0 -2
BITMAP
0000000000001000
000000000005E300
00000000007FF700
0000000009FFFE40
00000002CFFFFEA0
0000000BFFD94000
0000000572000000
0000000000000000
046899A987420000
2EFFFFFFFFFF9000
05FFFFFFFFFF1000
00CFFFFFFFFD0000
00CFFFFFFFF90000
00BFFFFFFFF50000
00AFFFFFFFE10000
009FFFEFFFB00000
008FFF5148600000
007FFF5000000000
005FFFEEE5000000
004FFFFFF6000000
002FFFFFF5000000
000FFF7452000000
000DFF3100000000
000CFFEFFB000000
000AFFFFF9000000
000A39FEC8000000
000807D426000000
0000020021000000
ENDCHAR
STARTCHAR Ecircumflex
ENCODING 202
SWIDTH 570 0
DWIDTH 14 0
BBX 13 30 0 -2
BITMAP
00000000100000
0000AEDEE10000
0002FFFFF80000
0009FFFFFF2000
001EFFDFFF9000
007FFC19FFF200
00DFE200BFF900
05FE30001DFF10
04D4000002D500
00000000000000
046899A9874200
2EFFFFFFFFFF90
05FFFFFFFFFF10
00CFFFFFFFFD00
00CFFFFFFFF900
00BFFFFFFFF500
00AFFFFFFFE100
009FFFEFFFB000
008FFF51486000
007FFF50000000
005FFFEEE50000
004FFFFFF60000
002FFFFFF50000
000FFF74520000
000DFF31000000
000CFFEFFB0000
000AFFFFF90000
000A39FEC80000
000807D4260000
00000200210000
ENDCHAR
STARTCHAR Edieresis
ENCODING 203
SWIDTH 570 0
DWIDTH 14 0
BBX 13 28 0 -2
BITMAP
00000000001000
08CAA702BCFFA0
0CFFFC02FFFFC0
0DFFFC02FFFFA0
0DFFFD01FFFFD0
0DFFFC01FFFFC0
07ABB8019A8860
00000000000000
046899A9874200
2EFFFFFFFFFF90
05FFFFFFFFFF10
00CFFFFFFFFD00
00CFFFFFFFF900
00BFFFFFFFF500
00AFFFFFFFE100
009FFFEFFFB000
008FFF51486000
007FFF50000000
005FFFEEE50000
004FFFFFF60000
002FFFFFF50000
000FFF74520000
000DFF31000000
000CFFEFFB0000
000AFFFFF90000
000A39FEC80000
000807D4260000
00000200210000
ENDCHAR
STARTCHAR Igrave
ENCODING 204
SWIDTH 401 0
DWIDTH 10 0
BBX 12 28 -3 -2
BITMAP
000100000000
004D30000000
009FE5000000
05EFFF700000
2BFFFFFB2000
00159EFF9000
000000274000
000000000000
0003BBBABBB8
0002FFFFFFF7
00005FFFFFF2
000009FFFFA0
000003FFFFD0
000003FFFFB0
000005FFFF90
000005FFFF70
000005FFFF40
000003FFFF20
000002FFFF30
000001FFFF30
000000EFFE00
000000CFFD00
000000AFFF00
0000008FFD00
0000006FFC00
0000003ACD00
000000158610
000000001000
ENDCHAR
STARTCHAR Iacute
ENCODING 205
SWIDTH 401 0
DWIDTH 10 0
BBX 13 28 0 -2
BITMAP
00000000001000
0000000007D100
000000009FF400
0000001BFFFC20
000004DFFFFE80
00000DFFC83000
00000761000000
00000000000000
3BBBABBB800000
2FFFFFFF700000
05FFFFFF200000
009FFFFA000000
003FFFFD000000
003FFFFB000000
005FFFF9000000
005FFFF7000000
005FFFF4000000
003FFFF2000000
002FFFF3000000
001FFFF3000000
000EFFE0000000
000CFFD0000000
000AFFF0000000
0008FFD0000000
0006FFC0000000
0003ACD0000000
00015861000000
00000100000000
ENDCHAR
STARTCHAR Icircumflex
ENCODING 206
SWIDTH 401 0
DWIDTH 10 0
BBX 11 30 -1 -2
BITMAP
000000010000
000DEDED0000
004FFFFF6000
00BFFFFFD000
03FFFDFFF600
09FFA0BFFD00
1FFC101DFF70
8FD10002EFD0
5D2000003D30
000000000000
03BBBABBB800
02FFFFFFF700
005FFFFFF200
0009FFFFA000
0003FFFFD000
0003FFFFB000
0005FFFF9000
0005FFFF7000
0005FFFF4000
0003FFFF2000
0002FFFF3000
0001FFFF3000
0000EFFE0000
0000CFFD0000
0000AFFF0000
00008FFD0000
00006FFC0000
00003ACD0000
000015861000
000000100000
ENDCHAR
STARTCHAR Idieresis
ENCODING 207
SWIDTH 401 0
DWIDTH 10 0
BBX 13 28 -2 -2
BITMAP
00000000001000
0ACAA603BDFF70
0FFFFA04FFFF90
1FFFFA04FFFF70
1FFFFA04FFFFA0
0FFFF904FFFF90
09ACB602997840
00000000000000
003BBBABBB8000
002FFFFFFF7000
0005FFFFFF2000
00009FFFFA0000
00003FFFFD0000
00003FFFFB0000
00005FFFF90000
00005FFFF70000
00005FFFF40000
00003FFFF20000
00002FFFF30000
00001FFFF30000
00000EFFE00000
00000CFFD00000
00000AFFF00000
000008FFD00000
000006FFC00000
000003ACD00000
00000158610000
00000001000000
ENDCHAR
STARTCHAR Eth
ENCODING 208
SWIDTH 530 0
DWIDTH 13 0
BBX 14 22 0 -4
BITMAP
00002579AA5000
00BEFFFFFFE300
01EFFFFFFFFE40
009FFFFFFFFFB0
003FFFFFFFFFF0
000EFFFFFFFFF2
000BFFFFFFFFF2
000AFFFFFFFFF1
0008FFFA2CFFD0
0007FFF508FFA0
188AFFFA77FF60
1BCDFFFD76FF20
0003FFF408FD00
0001FFF30CF900
0000DFF61EF700
0000AFFDFFF600
0000BFFFFFF300
0000AD6CFFA000
0000A409E71000
00008109700000
00002008100000
00000003000000
ENDCHAR
STARTCHAR Ntilde
ENCODING 209
SWIDTH 610 0
DWIDTH 15 0
BBX 14 29 0 -4
BITMAP
00010000250000
005E8004DFD200
05FFF9BFFFFD00
01DFFFFFFFFF60
003EFFFDAEFA00
0003AC50026000
00000000000000
03456770A96420
2EFFFFB09FFFFA
05FFFFE06FFFD1
00EFFFF55FFF50
00DFFFFC5FFF40
00CFFFFF6FFF30
00AFFFFFCFFF10
009FFFFFFFFE00
007FFFFFFFFC00
005FFFFFFFFA00
003FFFFFFFF800
000FFFFFFFF600
000CFFAFFFF500
0009FF8FFFF400
0008FF3DFFF400
0007FF49FFF300
0006FF54FFF100
0005FF61FFE000
0004FD70CCC000
00037160896000
00025050400000
00004050300000
ENDCHAR
STARTCHAR Ograve
ENCODING 210
SWIDTH 504 0
DWIDTH 12 0
BBX 13 28 -1 -2
BITMAP
00100000000000
02E50000000000
07FF7000000000
4DFFF900000000
AEFFFFC3000000
0049DFFB000000
00000275000000
00000000000000
00001698710000
0005EFFFFFA100
004FFFFFFFFB00
00DFFFFFFFFF40
04FFFFFFFFFF40
04FFFFFFFFFF70
02FFFFFFFFFF50
01FFFFEEFFFF50
00EFFF64FFFF70
00BFFF00FFFF70
008FFE00EFFF60
007FFE00CFFF40
005FFF10CFFD00
003FFF21EFF900
000EFF52FFF800
000CFFC8FFF300
000BFFFFFFD000
0002CFFFFF6000
00000A76E92000
00000334930000
ENDCHAR
STARTCHAR Oacute
ENCODING 211
SWIDTH 504 0
DWIDTH 12 0
BBX 14 28 0 -2
BITMAP
00000000000100
00000000005E20
0000000007FF60
000000009FFFD4
0000003CFFFFEA
000000BFFD9400
00000057200000
00000000000000
00016987100000
005EFFFFFA1000
04FFFFFFFFB000
0DFFFFFFFFF400
4FFFFFFFFFF400
4FFFFFFFFFF700
2FFFFFFFFFF500
1FFFFEEFFFF500
0EFFF64FFFF700
0BFFF00FFFF700
08FFE00EFFF600
07FFE00CFFF400
05FFF10CFFD000
03FFF21EFF9000
00EFF52FFF8000
00CFFC8FFF3000
00BFFFFFFD0000
002CFFFFF60000
0000A76E920000
00003349300000
ENDCHAR
STARTCHAR Ocircumflex
ENCODING 212
SWIDTH 504 0
DWIDTH 12 0
BBX 12 30 0 -2
BITMAP
000000010000
000AEDEE1000
002FFFFF8000
009FFFFFE100
01EFFDFFF900
07FFC19FFF20
0DFD200BFF90
5FE20001DFE1
4D4000002D50
000000000000
000169871000
005EFFFFFA10
04FFFFFFFFB0
0DFFFFFFFFF4
4FFFFFFFFFF4
4FFFFFFFFFF7
2FFFFFFFFFF5
1FFFFEEFFFF5
0EFFF64FFFF7
0BFFF00FFFF7
08FFE00EFFF6
07FFE00CFFF4
05FFF10CFFD0
03FFF21EFF90
00EFF52FFF80
00CFFC8FFF30
00BFFFFFFD00
002CFFFFF600
0000A76E9200
000033493000
ENDCHAR
STARTCHAR Otilde
ENCODING 213
SWIDTH 504 0
DWIDTH 12 0
BBX 12 27 0 -2
BITMAP
001000052000
1BD201AEF700
DFFC8FFFFF50
8FFFFFFFFFD0
0BFFFFACFE30
018C92007200
000000000000
000169871000
005EFFFFFA10
04FFFFFFFFB0
0DFFFFFFFFF4
4FFFFFFFFFF4
4FFFFFFFFFF7
2FFFFFFFFFF5
1FFFFEEFFFF5
0EFFF64FFFF7
0BFFF00FFFF7
08FFE00EFFF6
07FFE00CFFF4
05FFF10CFFD0
03FFF21EFF90
00EFF52FFF80
00CFFC8FFF30
00BFFFFFFD00
002CFFFFF600
0000A76E9200
000033493000
ENDCHAR
STARTCHAR Odieresis
ENCODING 214
SWIDTH 504 0
DWIDTH 12 0
BBX 12 28 0 -2
BITMAP
000000000100
8CAA702BCFFA
DFFFC02FFFFB
DFFFC02FFFFA
EFFFC02FFFFD
DFFFB02FFFFC
8ABB8019A886
000000000000
000169871000
005EFFFFFA10
04FFFFFFFFB0
0DFFFFFFFFF4
4FFFFFFFFFF4
4FFFFFFFFFF7
2FFFFFFFFFF5
1FFFFEEFFFF5
0EFFF64FFFF7
0BFFF00FFFF7
08FFE00EFFF6
07FFE00CFFF4
05FFF10CFFD0
03FFF21EFF90
00EFF52FFF80
00CFFC8FFF30
00BFFFFFFD00
002CFFFFF600
0000A76E9200
000033493000
ENDCHAR
STARTCHAR multiply
ENCODING 215
SWIDTH 359 0
DWIDTH 9 0
BBX 9 10 0 4
BITMAP
0041015000
04FA0BF400
5FFFBFFE20
3EFFFFFD20
02EFFFD100
03EFFFE300
3EFFFFFD10
3FFFCFFF40
05FA09F600
0050004000
ENDCHAR
STARTCHAR Oslash
ENCODING 216
SWIDTH 658 0
DWIDTH 16 0
BBX 17 20 -1 -2
BITMAP
000002798710000000
00008FFFFFFB200000
0008FFFFFFFFC105A0
003FFFFFFFFFF65C10
008FFFFFFFFFFBB100
008FFFFFFFFFFD1000
006FFFFFFFFFF60000
005FFFFDFFFFF70000
003FFFF36FFFF90000
000FFFB03FFFF80000
000DFF92DFFFF80000
000BFFBD5DFFF60000
000AFFF50DFFE10000
0007FFD01EFFC00000
0003FFF23FFFA00000
000AFFF99FFF500000
00A7EFFFFFFE100000
09605EFFFFF8000000
460002D57E85000000
100000605921000000
ENDCHAR
STARTCHAR Ugrave
ENCODING 217
SWIDTH 637 0
DWIDTH 15 0
BBX 15 28 0 -2
BITMAP
0001000000000000
004E300000000000
008FF50000000000
05EFFF8000000000
1BFFFFFB20000000
00159EFF90000000
0000002740000000
0000000000000000
257ABB9017642000
2AFFFFA01FFFFD50
02FFFFB03FFFFB00
01FFFF903FFFF600
00EFFFA03FFFF300
00BFFFD04FFFE000
009FFFD04FFFB000
007FFFD05FFF8000
005FFFB05FFF4000
003FFF806FFF2000
002FFF708FFF1000
003FFF908FFF0000
002FFFB0AFFC0000
001FFFD0BFFB0000
000BFFF2EFF80000
0009FFFFFFF60000
0005FFEEFFE10000
00019E9589400000
0000181217000000
0000000012000000
ENDCHAR
STARTCHAR Uacute
ENCODING 218
SWIDTH 637 0
DWIDTH 15 0
BBX 16 28 0 -2
BITMAP
0000000000000100
0000000000007E10
000000000009FF50
0000000001BFFFD3
000000003DFFFFE9
00000000DFFD8400
0000000066100000
0000000000000000
257ABB9017642000
2AFFFFA01FFFFD50
02FFFFB03FFFFB00
01FFFF903FFFF600
00EFFFA03FFFF300
00BFFFD04FFFE000
009FFFD04FFFB000
007FFFD05FFF8000
005FFFB05FFF4000
003FFF806FFF2000
002FFF708FFF1000
003FFF908FFF0000
002FFFB0AFFC0000
001FFFD0BFFB0000
000BFFF2EFF80000
0009FFFFFFF60000
0005FFEEFFE10000
00019E9589400000
0000181217000000
0000000012000000
ENDCHAR
STARTCHAR Ucircumflex
ENCODING 219
SWIDTH 637 0
DWIDTH 15 0
BBX 15 30 0 -2
BITMAP
0000000001000000
00000CEDED000000
00004FFFFF600000
0000BFFFFFD00000
0002FFFDFFF70000
0009FFB0BFFE1000
001EFC101DFF7000
007FD20002EFD000
005D3000003D3000
0000000000000000
257ABB9017642000
2AFFFFA01FFFFD50
02FFFFB03FFFFB00
01FFFF903FFFF600
00EFFFA03FFFF300
00BFFFD04FFFE000
009FFFD04FFFB000
007FFFD05FFF8000
005FFFB05FFF4000
003FFF806FFF2000
002FFF708FFF1000
003FFF908FFF0000
002FFFB0AFFC0000
001FFFD0BFFB0000
000BFFF2EFF80000
0009FFFFFFF60000
0005FFEEFFE10000
00019E9589400000
0000181217000000
0000000012000000
ENDCHAR
STARTCHAR Udieresis
ENCODING 220
SWIDTH 637 0
DWIDTH 15 0
BBX 15 28 0 -2
BITMAP
0000000000010000
009CAA603BDFF800
00EFFFA04FFFF900
00FFFFA04FFFF800
00FFFFA04FFFFB00
00FFFFA03FFFFA00
009ACB6029A78500
0000000000000000
257ABB9017642000
2AFFFFA01FFFFD50
02FFFFB03FFFFB00
01FFFF903FFFF600
00EFFFA03FFFF300
00BFFFD04FFFE000
009FFFD04FFFB000
007FFFD05FFF8000
005FFFB05FFF4000
003FFF806FFF2000
002FFF708FFF1000
003FFF908FFF0000
002FFFB0AFFC0000
001FFFD0BFFB0000
000BFFF2EFF80000
0009FFFFFFF60000
0005FFEEFFE10000
00019E9589400000
0000181217000000
0000000012000000
ENDCHAR
STARTCHAR Yacute
ENCODING 221
SWIDTH 688 0
DWIDTH 17 0
BBX 17 27 0 -1
BITMAP
000000000000001000
0000000000001AB000
000000000001CFF100
00000000002DFFFA10
0000000006EFFFFD60
000000002FFFB72000
000000000850000000
000000000000000000
03589A900087300000
3AFFFFF500DFFED630
004DFFFD01FFFFF940
0001DFFF68FFFF7000
00004EFFDEFFF70000
000005FFFFFFB00000
000000DFFFFF300000
0000007FFFFF100000
0000003FFFFE000000
0000000BFFFC000000
00000005FFFB000000
00000001FFFA000000
00000000DFF9000000
00000000BFF8000000
00000000AFF7000000
000000008FF6000000
000000007FF5000000
000000006FF4000000
000000004B71000000
ENDCHAR
STARTCHAR Thorn
ENCODING 222
SWIDTH 521 0
DWIDTH 13 0
BBX 12 25 0 -3
BITMAP
59CADBD10000
7FFFFFB00000
6FFFFF800000
4FFFFF500000
2FFFFFC98820
0EFFFFFFFFE2
0CFFFFFFFFF8
0BFFFFFFFFFB
0AFFFFFFFFFB
0AFFFFFFFFFB
08FFFFFFFFFA
06FFFFCBFFF9
04FFFF50AFF7
01FFFF507FF5
00EFFF607FF2
00BFFFA7AFD0
008FFFFFFF90
005FFFFFFE20
002FFF723200
003FFF600000
004FFF700000
001FFF800000
000C7D700000
000A16400000
000737000000
ENDCHAR
STARTCHAR germandbls
ENCODING 223
SWIDTH 546 0
DWIDTH 13 0
BBX 13 20 0 -2
BITMAP
00025677752000
01BFFFFFFFF700
08FFFFFFFFFF20
0DFFFFFFFFFF50
0FFFFFFFFFFF60
0EFFFFFFFFFF50
2FFFFFFFFFFF60
2FFFFFFFFFFF10
0EFFFC06FFFA00
0CFFFB03FFF400
0AFFFA15FFE000
07FFF98FFF9000
05FFF97FFD2000
02FFF96FFF9000
01FFF907FFC000
01FFFA06FFA000
00DFFA17FF7000
008FF99EFF4000
009BC99FFC0000
00202116A40000
ENDCHAR
STARTCHAR agrave
ENCODING 224
SWIDTH 479 0
DWIDTH 12 0
BBX 13 29 -1 -3
BITMAP
00100000000000
00C80000000000
02FFB100000000
1BFFFC20000000
7EFFFFE5000000
0037CFFF100000
00000058000000
00000000000000
0379ACDDBCDD60
02DFFFFFFFF700
002DFFFFFFE000
0008FFFFFFB000
0007FFFFFFA000
0005FFFFFFA000
0006FFFFFFA000
0008FFFFFF9000
0006FFFFFF6000
0004FFFDFF7000
0007FFCBFF9000
0008FF98FF9000
000AFF67FFB000
000AFF56FFA000
0008FFCDFF9000
000BFFFFFF7000
000AFFCDFF6000
0008FF65FF5000
000AFE12FF4000
0007FA02582000
00001000000000
ENDCHAR
STARTCHAR aacute
ENCODING 225
SWIDTH 479 0
DWIDTH 12 0
BBX 15 29 0 -3
BITMAP
0000000000010000
00000000002D7000
0000000004EFB000
000000005FFFF610
00000019FFFFFB30
0000006FFEA51000
0000002830000000
0000000000000000
379ACDDBCDD60000
2DFFFFFFFF700000
02DFFFFFFE000000
008FFFFFFB000000
007FFFFFFA000000
005FFFFFFA000000
006FFFFFFA000000
008FFFFFF9000000
006FFFFFF6000000
004FFFDFF7000000
007FFCBFF9000000
008FF98FF9000000
00AFF67FFB000000
00AFF56FFA000000
008FFCDFF9000000
00BFFFFFF7000000
00AFFCDFF6000000
008FF65FF5000000
00AFE12FF4000000
007FA02582000000
0001000000000000
ENDCHAR
STARTCHAR acircumflex
ENCODING 226
SWIDTH 479 0
DWIDTH 12 0
BBX 12 32 0 -3
BITMAP
000000010000
0006EDEF5000
000CFFFFD000
004FFFFFF500
00BFFDEFFD00
02FFE34FFF60
09FF5007FFD0
1FF600009FF5
1B8000000A90
000000000000
000000000000
379ACDDBCDD6
2DFFFFFFFF70
02DFFFFFFE00
008FFFFFFB00
007FFFFFFA00
005FFFFFFA00
006FFFFFFA00
008FFFFFF900
006FFFFFF600
004FFFDFF700
007FFCBFF900
008FF98FF900
00AFF67FFB00
00AFF56FFA00
008FFCDFF900
00BFFFFFF700
00AFFCDFF600
008FF65FF500
00AFE12FF400
007FA0258200
000100000000
ENDCHAR
STARTCHAR atilde
ENCODING 227
SWIDTH 479 0
DWIDTH 12 0
BBX 12 28 0 -3
BITMAP
001000044000
08E5007EFB00
9FFE8DFFFF90
3FFFFFFFFFF3
06FFFFBBFF70
005BB4004400
000000000000
379ACDDBCDD6
2DFFFFFFFF70
02DFFFFFFE00
008FFFFFFB00
007FFFFFFA00
005FFFFFFA00
006FFFFFFA00
008FFFFFF900
006FFFFFF600
004FFFDFF700
007FFCBFF900
008FF98FF900
00AFF67FFB00
00AFF56FFA00
008FFCDFF900
00BFFFFFF700
00AFFCDFF600
008FF65FF500
00AFE12FF400
007FA0258200
000100000000
ENDCHAR
STARTCHAR adieresis
ENCODING 228
SWIDTH 479 0
DWIDTH 12 0
BBX 13 29 0 -3
BITMAP
00000000011000
5BB9A109BFFD10
8FFFF20CFFFF10
9FFFF20CFFFE00
9FFFF20CFFFF20
8FFFF10CFFFF10
5ABCB007A87800
00000000000000
379ACDDBCDD600
2DFFFFFFFF7000
02DFFFFFFE0000
008FFFFFFB0000
007FFFFFFA0000
005FFFFFFA0000
006FFFFFFA0000
008FFFFFF90000
006FFFFFF60000
004FFFDFF70000
007FFCBFF90000
008FF98FF90000
00AFF67FFB0000
00AFF56FFA0000
008FFCDFF90000
00BFFFFFF70000
00AFFCDFF60000
008FF65FF50000
00AFE12FF40000
007FA025820000
00010000000000
ENDCHAR
STARTCHAR aring
ENCODING 229
SWIDTH 479 0
DWIDTH 12 0
BBX 12 30 0 -3
BITMAP
00005AA81000
0008FFFFC100
000EF66DF600
000CE005F600
0009E308E100
0006FFEF7000
00015CF91000
000000100000
000000000000
379ACDDBCDD6
2DFFFFFFFF70
02DFFFFFFE00
008FFFFFFB00
007FFFFFFA00
005FFFFFFA00
006FFFFFFA00
008FFFFFF900
006FFFFFF600
004FFFDFF700
007FFCBFF900
008FF98FF900
00AFF67FFB00
00AFF56FFA00
008FFCDFF900
00BFFFFFF700
00AFFCDFF600
008FF65FF500
00AFE12FF400
007FA0258200
000100000000
ENDCHAR
STARTCHAR ae
ENCODING 230
SWIDTH 755 0
DWIDTH 18 0
BBX 18 21 0 -3
BITMAP
279ACDDBCDDCA85300
2DFFFFFFFFFFFFFFF3
01CFFFFFFFFFFFFF90
006FFFFFFFFFFFFF10
005FFFFFFFFFFFFA00
003FFFFFFFFFFFF700
004FFFFFFFFFFFF600
006FFFFFFFFFFFF400
004FFFFFFFA57BF100
002FFFDFFFA0001000
005FFE9FFFC5540000
006FFB6FFFFFFC0000
008FF95FFFFFFC0000
008FF74FFFFDE90000
006FFCCFFFA0020000
009FFFFFFFA7541000
007FFDDFFFEFFF2000
006FF93FFFFFFE0000
008FF11FF3AA8B0000
005FC0158000040000
000110000000000000
ENDCHAR
STARTCHAR ccedilla
ENCODING 231
SWIDTH 534 0
DWIDTH 13 0
BBX 13 27 0 -9
BITMAP
00017ADDA40000
002DFFFFFF7100
05EFFFFFFFF800
0DFFFFFFFFFF30
3FFFFFFFFFFF20
5FFFFFFFFFFF30
5FFFFFFFFFFF30
2FFFFFFFFFFF20
0EFFFF58FFFF00
0AFFFD01FFFE00
06FFFF00BEEC00
06FFFC00000100
03FFFC00000000
00FFFE01961000
00AFFF15FFC000
008FFF5AFF9000
002EFFEFFF6000
000BFFFFFC0000
00036CCCD00000
0000021FF00000
0000005F800000
0000009F200000
000000CFED6000
00000057BF7000
000000007F6000
0000007ADF5000
000000ACDE4000
ENDCHAR
STARTCHAR egrave
ENCODING 232
SWIDTH 632 0
DWIDTH 15 0
BBX 15 27 0 -2
BITMAP
008C100000000000
00DFD30000000000
17FFFE4000000000
4CFFFFF800000000
0026AEFF50000000
0000004810000000
0000000000000000
0024689998763100
3CFFFFFFFFFFFF30
0BFFFFFFFFFFF900
02FFFFFFFFFFF200
00BFFFFFFFFFB000
009FFFFFFFFF8000
007FFFFFFFFF6000
004FFFFFFFFF4000
001FFFF767BF1000
000EFFF500010000
000BFFF955500000
0008FFFFFFD00000
0006FFFFFFD00000
0005FFFEDEB00000
0003FFF500300000
0001FFF765410000
0000DFFEFFF30000
0000AFFFFFF00000
0000752DB8C00000
0000100000500000
ENDCHAR
STARTCHAR eacute
ENCODING 233
SWIDTH 632 0
DWIDTH 15 0
BBX 16 28 0 -2
BITMAP
0000000000000100
000000000001AB00
00000000001CFF10
0000000002DFFFA1
000000006EFFFFD6
00000002FFFB7200
0000000085000000
0000000000000000
0024689998763100
3CFFFFFFFFFFFF30
0BFFFFFFFFFFF900
02FFFFFFFFFFF200
00BFFFFFFFFFB000
009FFFFFFFFF8000
007FFFFFFFFF6000
004FFFFFFFFF4000
001FFFF767BF1000
000EFFF500010000
000BFFF955500000
0008FFFFFFD00000
0006FFFFFFD00000
0005FFFEDEB00000
0003FFF500300000
0001FFF765410000
0000DFFEFFF30000
0000AFFFFFF00000
0000752DB8C00000
0000100000500000
ENDCHAR
STARTCHAR ecircumflex
ENCODING 234
SWIDTH 632 0
DWIDTH 15 0
BBX 15 30 0 -2
BITMAP
0000000001000000
00002EEDFA000000
00008FFFFF200000
0001EFFFFFA00000
0006FFFDFFF30000
000DFF71DFFA0000
005FF9003EFF3000
00BFB00005FF9000
008C1000006C1000
0000000000000000
0024689998763100
3CFFFFFFFFFFFF30
0BFFFFFFFFFFF900
02FFFFFFFFFFF200
00BFFFFFFFFFB000
009FFFFFFFFF8000
007FFFFFFFFF6000
004FFFFFFFFF4000
001FFFF767BF1000
000EFFF500010000
000BFFF955500000
0008FFFFFFD00000
0006FFFFFFD00000
0005FFFEDEB00000
0003FFF500300000
0001FFF765410000
0000DFFEFFF30000
0000AFFFFFF00000
0000752DB8C00000
0000100000500000
ENDCHAR
STARTCHAR edieresis
ENCODING 235
SWIDTH 632 0
DWIDTH 15 0
BBX 15 28 0 -2
BITMAP
0000000000010000
02BC9A306BEFE400
04FFFF608FFFF500
04FFFF608FFFF400
04FFFF608FFFF700
04FFFF508FFFF600
02AACB304A978300
0000000000000000
0024689998763100
3CFFFFFFFFFFFF30
0BFFFFFFFFFFF900
02FFFFFFFFFFF200
00BFFFFFFFFFB000
009FFFFFFFFF8000
007FFFFFFFFF6000
004FFFFFFFFF4000
001FFFF767BF1000
000EFFF500010000
000BFFF955500000
0008FFFFFFD00000
0006FFFFFFD00000
0005FFFEDEB00000
0003FFF500300000
0001FFF765410000
0000DFFEFFF30000
0000AFFFFFF00000
0000752DB8C00000
0000100000500000
ENDCHAR
STARTCHAR igrave
ENCODING 236
SWIDTH 411 0
DWIDTH 10 0
BBX 12 27 -2 -1
BITMAP
001000000000
03E400000000
07FF70000000
4DFFF9000000
BEFFFFC30000
0149DFFB0000
000002750000
000000000000
00369BAAA751
001DFFFFFFB0
0004EFFFFF60
00006FFFFD00
00001FFFFD00
00001FFFFA00
00002FFFF600
00003FFFF400
00002FFFF200
00001FFFF100
00000EFFF100
00000CFFF300
000009FFE000
000007FFC000
000005FFB000
000005FFB000
000004FFA000
000002DD9000
000000157000
ENDCHAR
STARTCHAR iacute
ENCODING 237
SWIDTH 411 0
DWIDTH 10 0
BBX 13 27 0 -1
BITMAP
00000000001000
0000000005E200
000000007FF600
0000000AFFFD30
000003CFFFFEA0
00000BFFD84000
00000572000000
00000000000000
369BAAA7510000
1DFFFFFFB00000
04EFFFFF600000
006FFFFD000000
001FFFFD000000
001FFFFA000000
002FFFF6000000
003FFFF4000000
002FFFF2000000
001FFFF1000000
000EFFF1000000
000CFFF3000000
0009FFE0000000
0007FFC0000000
0005FFB0000000
0005FFB0000000
0004FFA0000000
0002DD90000000
00001570000000
ENDCHAR
STARTCHAR icircumflex
ENCODING 238
SWIDTH 411 0
DWIDTH 10 0
BBX 11 29 0 -1
BITMAP
000000010000
002EEDFA0000
008FFFFF2000
01EFFFFFA000
06FFFDFFF300
0DFF71DFFA00
5FF9003EFF30
BFB00005FF90
8C1000006C10
000000000000
369BAAA75100
1DFFFFFFB000
04EFFFFF6000
006FFFFD0000
001FFFFD0000
001FFFFA0000
002FFFF60000
003FFFF40000
002FFFF20000
001FFFF10000
000EFFF10000
000CFFF30000
0009FFE00000
0007FFC00000
0005FFB00000
0005FFB00000
0004FFA00000
0002DD900000
000015700000
ENDCHAR
STARTCHAR idieresis
ENCODING 239
SWIDTH 411 0
DWIDTH 10 0
BBX 12 27 -1 -1
BITMAP
000000000100
8CAA702BCFF9
DFFFC02FFFFB
EFFFC02FFFF9
EFFFC02FFFFD
DFFFB02FFFFC
8ABB7019A885
000000000000
0369BAAA7510
01DFFFFFFB00
004EFFFFF600
0006FFFFD000
0001FFFFD000
0001FFFFA000
0002FFFF6000
0003FFFF4000
0002FFFF2000
0001FFFF1000
0000EFFF1000
0000CFFF3000
00009FFE0000
00007FFC0000
00005FFB0000
00005FFB0000
00004FFA0000
00002DD90000
000001570000
ENDCHAR
STARTCHAR eth
ENCODING 240
SWIDTH 530 0
DWIDTH 13 0
BBX 14 22 0 -4
BITMAP
00002579AA5000
00BEFFFFFFE300
01EFFFFFFFFE40
009FFFFFFFFFB0
003FFFFFFFFFF0
000EFFFFFFFFF2
000BFFFFFFFFF2
000AFFFFFFFFF1
0008FFFA2CFFD0
0007FFF508FFA0
188AFFFA77FF60
1BCDFFFD76FF20
0003FFF408FD00
0001FFF30CF900
0000DFF61EF700
0000AFFDFFF600
0000BFFFFFF300
0000AD6CFFA000
0000A409E71000
00008109700000
00002008100000
00000003000000
ENDCHAR
STARTCHAR ntilde
ENCODING 241
SWIDTH 664 0
DWIDTH 16 0
BBX 16 28 0 -3
BITMAP
0000100004300000
0008E5007EFB0000
009FFE8DFFFF9000
004FFFFFFFFFF200
0007FFFFBBFF7000
00006BA400540000
0000000000000000
478ABCA508766775
2EFFFFF709FFFFE2
08FFFFFC06FFFF80
01FFFFFF34FFFF10
00EFFFFF76FFFB00
00EFFFFFB8FFF800
00DFFFFFEAFFF500
00CFFFFFFFFFF300
00AFFFFFFFFFF100
009FFFFFFFFFE000
007FFFFFFFFFC000
004FFFFFFFFFA000
001EFF9FFFFF7000
000EFF6FFFFF4000
000DFF3BFFFF2000
000BFF47FFFD0000
000AFF34FFFA0000
0008FF31FFF30000
0007FB30FFC10000
0002301078900000
0000000001000000
ENDCHAR
STARTCHAR ograve
ENCODING 242
SWIDTH 545 0
DWIDTH 13 0
BBX 14 28 -1 -2
BITMAP
00100000000000
009B1000000000
00EFD200000000
18FFFE30000000
5DFFFFF8000000
0026BFFF400000
00000048100000
00000000000000
0000169A893000
0005EFFFFFF810
004FFFFFFFFF70
01DFFFFFFFFFF5
03FFFFFFFFFFF6
04FFFFFFFFFFF7
02FFFFFFFFFFF9
00FFFFFEFFFFF7
00DFFFC0CFFFF8
00BFFF608FFFF6
009FFF407FFFF3
007FFF404FFFE1
004FFF506FFFB0
001FFF608FFF60
000CFFA0CFFF20
0008FFE5EFFD00
0005FFFFFFF800
00009BFFFFE100
00000171FB9000
00000000506000
ENDCHAR
STARTCHAR oacute
ENCODING 243
SWIDTH 545 0
DWIDTH 13 0
BBX 15 28 0 -2
BITMAP
0000000000001000
00000000001BA000
0000000002CFE000
000000003EFFF910
00000007EFFFFC50
0000003FFFB62000
0000000940000000
0000000000000000
000169A893000000
005EFFFFFF810000
04FFFFFFFFF70000
1DFFFFFFFFFF5000
3FFFFFFFFFFF6000
4FFFFFFFFFFF7000
2FFFFFFFFFFF9000
0FFFFFEFFFFF7000
0DFFFC0CFFFF8000
0BFFF608FFFF6000
09FFF407FFFF3000
07FFF404FFFE1000
04FFF506FFFB0000
01FFF608FFF60000
00CFFA0CFFF20000
008FFE5EFFD00000
005FFFFFFF800000
0009BFFFFE100000
0000171FB9000000
0000000506000000
ENDCHAR
STARTCHAR ocircumflex
ENCODING 244
SWIDTH 545 0
DWIDTH 13 0
BBX 13 29 0 -2
BITMAP
0003FDDF800000
0009FFFFF20000
001FFFFFF90000
008FFFDFFF2000
00EFF62EFF9000
06FF8004FFF200
0CFA00006FF800
09B0000007B100
00000000000000
000169A8930000
005EFFFFFF8100
04FFFFFFFFF700
1DFFFFFFFFFF50
3FFFFFFFFFFF60
4FFFFFFFFFFF70
2FFFFFFFFFFF90
0FFFFFEFFFFF70
0DFFFC0CFFFF80
0BFFF608FFFF60
09FFF407FFFF30
07FFF404FFFE10
04FFF506FFFB00
01FFF608FFF600
00CFFA0CFFF200
008FFE5EFFD000
005FFFFFFF8000
0009BFFFFE1000
0000171FB90000
00000005060000
ENDCHAR
STARTCHAR otilde
ENCODING 245
SWIDTH 545 0
DWIDTH 13 0
BBX 13 27 0 -2
BITMAP
00100002500000
05E8004DFD2000
6FFF9BFFFFC000
1DFFFFFFFFF600
03FFFFDAFFA000
004AC500260000
00000000000000
000169A8930000
005EFFFFFF8100
04FFFFFFFFF700
1DFFFFFFFFFF50
3FFFFFFFFFFF60
4FFFFFFFFFFF70
2FFFFFFFFFFF90
0FFFFFEFFFFF70
0DFFFC0CFFFF80
0BFFF608FFFF60
09FFF407FFFF30
07FFF404FFFE10
04FFF506FFFB00
01FFF608FFF600
00CFFA0CFFF200
008FFE5EFFD000
005FFFFFFF8000
0009BFFFFE1000
0000171FB90000
00000005060000
ENDCHAR
STARTCHAR odieresis
ENCODING 246
SWIDTH 545 0
DWIDTH 13 0
BBX 13 28 0 -2
BITMAP
00000000001000
3BC9A307BEFE30
5FFFF509FFFF40
5FFFF509FFFF30
6FFFF509FFFF60
5FFFF409FFFF50
2AACB204A97820
00000000000000
000169A8930000
005EFFFFFF8100
04FFFFFFFFF700
1DFFFFFFFFFF50
3FFFFFFFFFFF60
4FFFFFFFFFFF70
2FFFFFFFFFFF90
0FFFFFEFFFFF70
0DFFFC0CFFFF80
0BFFF608FFFF60
09FFF407FFFF30
07FFF404FFFE10
04FFF506FFFB00
01FFF608FFF600
00CFFA0CFFF200
008FFE5EFFD000
005FFFFFFF8000
0009BFFFFE1000
0000171FB90000
00000005060000
ENDCHAR
STARTCHAR oslash
ENCODING 248
SWIDTH 676 0
DWIDTH 16 0
BBX 17 20 -1 -2
BITMAP
0000059A9930000000
0002CFFFFFF7000850
001DFFFFFFFF608800
008FFFFFFFFFFA8000
00DFFFFFFFFFFB0000
00EFFFFFFFFFF40000
00CFFFFFFFFFF60000
009FFFFEFFFFF50000
007FFFD19FFFF60000
006FFF82DFFFF40000
003FFF7CAFFFF20000
001FFFE62FFFE00000
000DFF805FFFA00000
000AFF707FFF600000
0008FFB0BFFF200000
005BFFF5EFFD000000
04A1FFFFFFF9000000
19007AFFFFE2000000
01000071FBA0000000
000000005060000000
ENDCHAR
STARTCHAR ugrave
ENCODING 249
SWIDTH 708 0
DWIDTH 17 0
BBX 17 27 0 -1
BITMAP
000010000000000000
0006D2000000000000
000BFE400000000000
006FFFF60000000000
03CFFFFFA100000000
00015AEFF700000000
000000038300000000
000000000000000000
01358AA70055200000
2BFFFFF900CFFED720
01FFFFF800EFFFFF80
00DFFFF901EFFFF900
009FFFFA00DFFFF500
006FFFFC00DFFFD000
003FFFFD00DFFF8000
001FFFFE00EFFF4000
000DFFFD00FFFF1000
000BFFFA01FFFE0000
0009FFFA04FFFD0000
0008FFFB03FFFC0000
0007FFFE04FFFA0000
0003FFFF17FFF70000
0000BFFF3AFFF40000
00008FFFFFFFF20000
00005FFFDFFFB00000
000014DA0ACA400000
000000010010000000
ENDCHAR
STARTCHAR uacute
ENCODING 250
SWIDTH 708 0
DWIDTH 17 0
BBX 17 27 0 -1
BITMAP
000000000000001000
00000000000009C000
000000000001BFF200
00000000002CFFFC10
0000000005EFFFFD70
000000000FFFC73000
000000000761000000
000000000000000000
01358AA70055200000
2BFFFFF900CFFED720
01FFFFF800EFFFFF80
00DFFFF901EFFFF900
009FFFFA00DFFFF500
006FFFFC00DFFFD000
003FFFFD00DFFF8000
001FFFFE00EFFF4000
000DFFFD00FFFF1000
000BFFFA01FFFE0000
0009FFFA04FFFD0000
0008FFFB03FFFC0000
0007FFFE04FFFA0000
0003FFFF17FFF70000
0000BFFF3AFFF40000
00008FFFFFFFF20000
00005FFFDFFFB00000
000014DA0ACA400000
000000010010000000
ENDCHAR
STARTCHAR ucircumflex
ENCODING 251
SWIDTH 708 0
DWIDTH 17 0
BBX 17 29 0 -1
BITMAP
000000000010000000
000001EEDFB0000000
000006FFFFF4000000
00000DFFFFFC000000
00004FFFDFFF500000
0000BFF91CFFC00000
0003FFB002EFF50000
0009FC10003EFB0000
0006D1000005D20000
000000000000000000
01358AA70055200000
2BFFFFF900CFFED720
01FFFFF800EFFFFF80
00DFFFF901EFFFF900
009FFFFA00DFFFF500
006FFFFC00DFFFD000
003FFFFD00DFFF8000
001FFFFE00EFFF4000
000DFFFD00FFFF1000
000BFFFA01FFFE0000
0009FFFA04FFFD0000
0008FFFB03FFFC0000
0007FFFE04FFFA0000
0003FFFF17FFF70000
0000BFFF3AFFF40000
00008FFFFFFFF20000
00005FFFDFFFB00000
000014DA0ACA400000
000000010010000000
ENDCHAR
STARTCHAR udieresis
ENCODING 252
SWIDTH 708 0
DWIDTH 17 0
BBX 17 27 0 -1
BITMAP
000000000000100000
001AC9A504BDFF6000
002FFFF806FFFF7000
002FFFF806FFFF6000
002FFFF806FFFF9000
002FFFF706FFFF8000
0019ACB503A9784000
000000000000000000
01358AA70055200000
2BFFFFF900CFFED720
01FFFFF800EFFFFF80
00DFFFF901EFFFF900
009FFFFA00DFFFF500
006FFFFC00DFFFD000
003FFFFD00DFFF8000
001FFFFE00EFFF4000
000DFFFD00FFFF1000
000BFFFA01FFFE0000
0009FFFA04FFFD0000
0008FFFB03FFFC0000
0007FFFE04FFFA0000
0003FFFF17FFF70000
0000BFFF3AFFF40000
00008FFFFFFFF20000
00005FFFDFFFB00000
000014DA0ACA400000
000000010010000000
ENDCHAR
STARTCHAR yacute
ENCODING 253
SWIDTH 604 0
DWIDTH 15 0
BBX 16 28 0 -2
BITMAP
0000000000001100
000000000001C800
00000000003DFD00
0000000004EFFF81
000000008FFFFFC4
00000005FFEA6100
0000000194000000
0000000000000000
0357970019300000
1AFFFF506FFEC600
007FFFC09FFFD100
0004FFF3FFFD1000
0000EFFCFFF30000
00003FFFFF800000
00000EFFFF300000
00000BFFFF100000
000008FFFF000000
000004FFFD000000
000001FFFC000000
000000DFFB000000
000000AFF9000000
000000AFF8000000
000000AFF9000000
000000BFF8000000
000000BFF6000000
000000BFF2000000
0000009EC2000000
0000003100000000
ENDCHAR
STARTCHAR thorn
ENCODING 254
SWIDTH 498 0
DWIDTH 12 0
BBX 12 25 0 -3
BITMAP
59CACC800000
7FFFFF500000
6FFFFF300000
4FFFFF000000
2FFFFF9A8500
0EFFFFFFFF80
0CFFFFFFFFE0
0BFFFFFFFFF2
0AFFFFFFFFF3
0AFFFFFFFFF3
08FFFFFFFFF2
06FFFEBDFFF1
04FFFF03FFF0
01FFFF01FFE0
00EFFF00FFB0
00BFFF77FF80
008FFFFFFF40
005FFFFFFC00
002FFF723100
003FFF600000
004FFF700000
001FFF700000
000C7D700000
000A16400000
000737000000
ENDCHAR
STARTCHAR ydieresis
ENCODING 255
SWIDTH 604 0
DWIDTH 15 0
BBX 14 28 0 -2
BITMAP
00000000000100
007CB9801ACFFB
00BFFFE00FFFFD
00BFFFE00FFFFC
00CFFFE00FFFFF
00BFFFD00FFFFE
006ABB9008A887
00000000000000
03579700193000
1AFFFF506FFEC6
007FFFC09FFFD1
0004FFF3FFFD10
0000EFFCFFF300
00003FFFFF8000
00000EFFFF3000
00000BFFFF1000
000008FFFF0000
000004FFFD0000
000001FFFC0000
000000DFFB0000
000000AFF90000
000000AFF80000
000000AFF90000
000000BFF80000
000000BFF60000
000000BFF20000
0000009EC20000
00000031000000
ENDCHAR
STARTCHAR Amacron
ENCODING 256
SWIDTH 494 0
DWIDTH 12 0
BBX 12 28 0 -6
BITMAP
02DDDBCBCB00
04FFFFFFFC00
02AEFDEDDB00
000000000000
013455443100
3CFFFFFFFFA1
019FFFFFFD10
007FFFFFF600
006FFFFFF400
005FFFFFF200
007FFFFFF100
007FFFFFF000
005FFFFFE000
006FFBEFD000
006FF7DFD000
007FF4CFD000
008FF2BFE000
005FE8DFC000
009FFFFFD000
00AFFFFFB000
007FFDFF8000
005FF3CF5000
004FA0BF4000
004A706E2000
001620190000
000100270000
000000400000
000000100000
ENDCHAR
STARTCHAR amacron
ENCODING 257
SWIDTH 479 0
DWIDTH 12 0
BBX 12 26 0 -3
BITMAP
00CDDBCCBD10
00FFFFFFFF10
00ACFEDDCF00
000000000100
000000000000
379ACDDBCDD6
2DFFFFFFFF70
02DFFFFFFE00
008FFFFFFB00
007FFFFFFA00
005FFFFFFA00
006FFFFFFA00
008FFFFFF900
006FFFFFF600
004FFFDFF700
007FFCBFF900
008FF98FF900
00AFF67FFB00
00AFF56FFA00
008FFCDFF900
00BFFFFFF700
00AFFCDFF600
008FF65FF500
00AFE12FF400
007FA0258200
000100000000
ENDCHAR
STARTCHAR Abreve
ENCODING 258
SWIDTH 494 0
DWIDTH 12 0
BBX 12 32 0 -6
BITMAP
008FF6003863
004FF7008FF7
001FFE53EFF3
000DFFFFFFC0
00058EFFFF50
0000072ADB00
000000032600
000000000000
013455443100
3CFFFFFFFFA1
019FFFFFFD10
007FFFFFF600
006FFFFFF400
005FFFFFF200
007FFFFFF100
007FFFFFF000
005FFFFFE000
006FFBEFD000
006FF7DFD000
007FF4CFD000
008FF2BFE000
005FE8DFC000
009FFFFFD000
00AFFFFFB000
007FFDFF8000
005FF3CF5000
004FA0BF4000
004A706E2000
001620190000
000100270000
000000400000
000000100000
ENDCHAR
STARTCHAR abreve
ENCODING 259
SWIDTH 479 0
DWIDTH 12 0
BBX 12 29 0 -3
BITMAP
009FF5003763
004FF7008FF7
001FFD53EFF3
000DFFFFFFC0
00058EFFFF40
0000072ADB00
000000032600
000000000000
379ACDDBCDD6
2DFFFFFFFF70
02DFFFFFFE00
008FFFFFFB00
007FFFFFFA00
005FFFFFFA00
006FFFFFFA00
008FFFFFF900
006FFFFFF600
004FFFDFF700
007FFCBFF900
008FF98FF900
00AFF67FFB00
00AFF56FFA00
008FFCDFF900
00BFFFFFF700
00AFFCDFF600
008FF65FF500
00AFE12FF400
007FA0258200
000100000000
ENDCHAR
STARTCHAR Aogonek
ENCODING 260
SWIDTH 494 0
DWIDTH 12 0
BBX 12 29 0 -11
BITMAP
013455443100
3CFFFFFFFFA1
019FFFFFFD10
007FFFFFF600
006FFFFFF400
005FFFFFF200
007FFFFFF100
007FFFFFF000
005FFFFFE000
006FFBEFD000
006FF7DFD000
007FF4CFD000
008FF2BFE000
005FE8DFC000
009FFFFFD000
00AFFFFFB000
007FFDFF8000
005FF3CF5000
004FA0CF4000
004A73FF2000
001628FF0000
00010BFC0000
00000DFB0000
00000DFD0000
00000CFF9100
000009FFFFF5
000002EFFFF4
0000002AEFE3
000000000100
ENDCHAR
STARTCHAR aogonek
ENCODING 261
SWIDTH 479 0
DWIDTH 12 0
BBX 13 27 0 -9
BITMAP
379ACDDBCDD600
2DFFFFFFFF7000
02DFFFFFFE0000
008FFFFFFB0000
007FFFFFFA0000
005FFFFFFA0000
006FFFFFFA0000
008FFFFFF90000
006FFFFFF60000
004FFFDFF70000
007FFCBFF90000
008FF98FF90000
00AFF67FFB0000
00AFF56FFA0000
008FFCDFF90000
00BFFFFFF70000
00AFFCDFF50000
008FF65FF40000
00AFE12FF30000
007FA04FF20000
0001007FF00000
0000008FE00000
0000007FE10000
0000006FFD8730
0000002FFFFF70
00000006FFFF50
00000000279820
ENDCHAR
STARTCHAR Cacute
ENCODING 262
SWIDTH 504 0
DWIDTH 12 0
BBX 13 29 0 -3
BITMAP
00000000001000
0000000005E200
000000007FF600
00000009FFFD40
000003CFFFFEA0
00000BFFD94000
00000572000000
00000000000000
00029BCC810000
003EFFFFFC3000
05FFFFFFFFC000
0DFFFFFFFFF700
3FFFFFFFFFF700
5FFFFFFFFFF700
4FFFFFFFFFF700
3FFFFFFFFFF600
0FFFFB3EFFF500
0DFFF608FFF400
0AFFF70598A100
08FFF600000000
05FFF400000000
03FFF507B73000
00EFF70DFF7000
00CFFC5FFF4000
006FFFFFFE1000
004EFFFFE40000
0001A6AF700000
00006169000000
00002135000000
ENDCHAR
STARTCHAR cacute
ENCODING 263
SWIDTH 534 0
DWIDTH 13 0
BBX 14 28 0 -2
BITMAP
00000000001100
0000000001C800
000000002DFD00
00000004EFFF81
0000008FFFFFC4
000004FFEA6200
00000194000000
00000000000000
00017ADDA40000
002DFFFFFF7100
05EFFFFFFFF800
0DFFFFFFFFFF30
3FFFFFFFFFFF20
5FFFFFFFFFFF30
5FFFFFFFFFFF30
2FFFFFFFFFFF20
0EFFFF58FFFF00
0AFFFD01FFFE00
06FFFF00BEEC00
06FFFC00000100
03FFFC00000000
00FFFE01961000
00AFFF15FFC000
008FFF5AFF9000
002EFFEFFF6000
000BFFFFFC0000
00036CCBD00000
00000202200000
ENDCHAR
STARTCHAR Ccircumflex
ENCODING 264
SWIDTH 504 0
DWIDTH 12 0
BBX 12 31 0 -3
BITMAP
000000001000
0001EEDFB000
0006FFFFF400
000DFFFFFC00
004FFFDFFF50
00BFF91CFFC0
03FFB002EFF5
09FC10003EFB
06D1000005D2
000000000000
00029BCC8100
003EFFFFFC30
05FFFFFFFFC0
0DFFFFFFFFF7
3FFFFFFFFFF7
5FFFFFFFFFF7
4FFFFFFFFFF7
3FFFFFFFFFF6
0FFFFB3EFFF5
0DFFF608FFF4
0AFFF70598A1
08FFF6000000
05FFF4000000
03FFF507B730
00EFF70DFF70
00CFFC5FFF40
006FFFFFFE10
004EFFFFE400
0001A6AF7000
000061690000
000021350000
ENDCHAR
STARTCHAR ccircumflex
ENCODING 265
SWIDTH 534 0
DWIDTH 13 0
BBX 13 31 0 -2
BITMAP
00000000100000
00004FDDF70000
0000AFFFFE1000
0002FFFFFF8000
0009FFEDFFE100
001EFF53EFF800
007FF7005FFE10
00DF800007FF70
01AA0000008A00
00000000000000
00000000000000
00017ADDA40000
002DFFFFFF7100
05EFFFFFFFF800
0DFFFFFFFFFF30
3FFFFFFFFFFF20
5FFFFFFFFFFF30
5FFFFFFFFFFF30
2FFFFFFFFFFF20
0EFFFF58FFFF00
0AFFFD01FFFE00
06FFFF00BEEC00
06FFFC00000100
03FFFC00000000
00FFFE01961000
00AFFF15FFC000
008FFF5AFF9000
002EFFEFFF6000
000BFFFFFC0000
00036CCBD00000
00000202200000
ENDCHAR
STARTCHAR Cdotaccent
ENCODING 266
SWIDTH 504 0
DWIDTH 12 0
BBX 12 30 0 -3
BITMAP
001689CDB400
000CFFFFF700
0009FFFFF600
0008FFFFF800
0006FFFFF800
0005FFFFF700
0005FFFFF700
000375213100
000000000000
00029BCC8100
003EFFFFFC30
05FFFFFFFFC0
0DFFFFFFFFF7
3FFFFFFFFFF7
5FFFFFFFFFF7
4FFFFFFFFFF7
3FFFFFFFFFF6
0FFFFB3EFFF5
0DFFF608FFF4
0AFFF70598A1
08FFF6000000
05FFF4000000
03FFF507B730
00EFF70DFF70
00CFFC5FFF40
006FFFFFFE10
004EFFFFE400
0001A6AF7000
000061690000
000021350000
ENDCHAR
STARTCHAR cdotaccent
ENCODING 267
SWIDTH 534 0
DWIDTH 13 0
BBX 13 29 0 -2
BITMAP
000388BDC90000
0004FFFFFE0000
0002FFFFFD0000
0001FFFFFE1000
0000EFFFFF1000
0000DFFFFF0000
0000CFFFFE0000
00007642330000
00000000000000
00017ADDA40000
002DFFFFFF7100
05EFFFFFFFF800
0DFFFFFFFFFF30
3FFFFFFFFFFF20
5FFFFFFFFFFF30
5FFFFFFFFFFF30
2FFFFFFFFFFF20
0EFFFF58FFFF00
0AFFFD01FFFE00
06FFFF00BEEC00
06FFFC00000100
03FFFC00000000
00FFFE01961000
00AFFF15FFC000
008FFF5AFF9000
002EFFEFFF6000
000BFFFFFC0000
00036CCBD00000
00000202200000
ENDCHAR
STARTCHAR Ccaron
ENCODING 268
SWIDTH 504 0
DWIDTH 12 0
BBX 12 31 0 -3
BITMAP
005100000510
1AFB00005FB1
0DFF7001EFF7
07FFE10AFFE1
01EFF84FFF80
009FFFEFFE10
002FFFFFF700
000AFFFFE100
0003EDDF7000
000000000000
00029BCC8100
003EFFFFFC30
05FFFFFFFFC0
0DFFFFFFFFF7
3FFFFFFFFFF7
5FFFFFFFFFF7
4FFFFFFFFFF7
3FFFFFFFFFF6
0FFFFB3EFFF5
0DFFF608FFF4
0AFFF70598A1
08FFF6000000
05FFF4000000
03FFF507B730
00EFF70DFF70
00CFFC5FFF40
006FFFFFFE10
004EFFFFE400
0001A6AF7000
000061690000
000021350000
ENDCHAR
STARTCHAR ccaron
ENCODING 269
SWIDTH 534 0
DWIDTH 13 0
BBX 13 31 0 -2
BITMAP
00050000005000
02CF900008F900
01FFF5003FFF50
009FFC00CFFD00
003FFF67FFF500
000BFFEFFFC000
0004FFFFFF5000
0000DFFFFC0000
00006EDDF40000
00000000000000
00000000000000
00017ADDA40000
002DFFFFFF7100
05EFFFFFFFF800
0DFFFFFFFFFF30
3FFFFFFFFFFF20
5FFFFFFFFFFF30
5FFFFFFFFFFF30
2FFFFFFFFFFF20
0EFFFF58FFFF00
0AFFFD01FFFE00
06FFFF00BEEC00
06FFFC00000100
03FFFC00000000
00FFFE01961000
00AFFF15FFC000
008FFF5AFF9000
002EFFEFFF6000
000BFFFFFC0000
00036CCBD00000
00000202200000
ENDCHAR
STARTCHAR Dcaron
ENCODING 270
SWIDTH 522 0
DWIDTH 13 0
BBX 12 32 1 -4
BITMAP
004100000410
09FC10004FC1
0CFF9001DFF9
05FFF208FFF2
00DFFA3FFF90
007FFFDFFF20
001EFFFFF900
0008FFFFF200
0002EDDF9000
000000000000
001246784000
BEFFFFFFF400
DFFFFFFFFF60
8FFFFFFFFFC0
2FFFFFFFFFF1
0DFFFFFFFFF1
0BFFFFFFFFF0
0AFFFFFFFFD0
08FFFA2CFFB0
07FFF607FF80
05FFF406FF50
04FFF305FF20
02FFF407FE00
00FFF40BFB00
00CFF60DFA00
009FFDFFF900
00AFFFFFF600
00AC5CFFC000
00940AE82000
006209800000
003008100000
000003000000
ENDCHAR
STARTCHAR dcaron
ENCODING 271
SWIDTH 522 0
DWIDTH 13 0
BBX 12 32 1 -4
BITMAP
004100000410
09FC10004FC1
0CFF9001DFF9
05FFF208FFF2
00DFFA3FFF90
007FFFDFFF20
001EFFFFF900
0008FFFFF200
0002EDDF9000
000000000000
001246784000
BEFFFFFFF400
DFFFFFFFFF60
8FFFFFFFFFC0
2FFFFFFFFFF1
0DFFFFFFFFF1
0BFFFFFFFFF0
0AFFFFFFFFD0
08FFFA2CFFB0
07FFF607FF80
05FFF406FF50
04FFF305FF20
02FFF407FE00
00FFF40BFB00
00CFF60DFA00
009FFDFFF900
00AFFFFFF600
00AC5CFFC000
00940AE82000
006209800000
003008100000
000003000000
ENDCHAR
STARTCHAR Eth.dup2
ENCODING 272
SWIDTH 530 0
DWIDTH 13 0
BBX 14 22 0 -4
BITMAP
00002579AA5000
00BEFFFFFFE300
01EFFFFFFFFE40
009FFFFFFFFFB0
003FFFFFFFFFF0
000EFFFFFFFFF2
000BFFFFFFFFF2
000AFFFFFFFFF1
0008FFFA2CFFD0
0007FFF508FFA0
188AFFFA77FF60
1BCDFFFD76FF20
0003FFF408FD00
0001FFF30CF900
0000DFF61EF700
0000AFFDFFF600
0000BFFFFFF300
0000AD6CFFA000
0000A409E71000
00008109700000
00002008100000
00000003000000
ENDCHAR
STARTCHAR Emacron
ENCODING 274
SWIDTH 570 0
DWIDTH 14 0
BBX 13 24 0 -2
BITMAP
003DDDBCBCB000
004FFFFFFFC000
003AEFDEDDB000
00000000010000
046899A9874200
2EFFFFFFFFFF90
05FFFFFFFFFF10
00CFFFFFFFFD00
00CFFFFFFFF900
00BFFFFFFFF500
00AFFFFFFFE100
009FFFEFFFB000
008FFF51486000
007FFF50000000
005FFFEEE50000
004FFFFFF60000
002FFFFFF50000
000FFF74520000
000DFF31000000
000CFFEFFB0000
000AFFFFF90000
000A39FEC80000
000807D4260000
00000200210000
ENDCHAR
STARTCHAR emacron
ENCODING 275
SWIDTH 632 0
DWIDTH 15 0
BBX 15 24 0 -2
BITMAP
0008DDCBCBD50000
000AFFFFFFF50000
0007BFFDECF40000
0000000000100000
0024689998763100
3CFFFFFFFFFFFF30
0BFFFFFFFFFFF900
02FFFFFFFFFFF200
00BFFFFFFFFFB000
009FFFFFFFFF8000
007FFFFFFFFF6000
004FFFFFFFFF4000
001FFFF767BF1000
000EFFF500010000
000BFFF955500000
0008FFFFFFD00000
0006FFFFFFD00000
0005FFFEDEB00000
0003FFF500300000
0001FFF765410000
0000DFFEFFF30000
0000AFFFFFF00000
0000752DB8C00000
0000100000500000
ENDCHAR
STARTCHAR Ebreve
ENCODING 276
SWIDTH 570 0
DWIDTH 14 0
BBX 13 28 0 -2
BITMAP
000AFF40047630
0006FF5009FF60
0002FFD44EFF10
0000EFFFFFFB00
000059FFFFF300
00000081BDB000
00000000416000
00000000000000
046899A9874200
2EFFFFFFFFFF90
05FFFFFFFFFF10
00CFFFFFFFFD00
00CFFFFFFFF900
00BFFFFFFFF500
00AFFFFFFFE100
009FFFEFFFB000
008FFF51486000
007FFF50000000
005FFFEEE50000
004FFFFFF60000
002FFFFFF50000
000FFF74520000
000DFF31000000
000CFFEFFB0000
000AFFFFF90000
000A39FEC80000
000807D4260000
00000200210000
ENDCHAR
STARTCHAR ebreve
ENCODING 277
SWIDTH 632 0
DWIDTH 15 0
BBX 15 28 0 -2
BITMAP
00007FF700286300
00003FF8007FF800
00000EFE53DFF400
00000CFFFFFFD000
0000048EFFFF6000
0000000739EC0000
0000000002360000
0000000000000000
0024689998763100
3CFFFFFFFFFFFF30
0BFFFFFFFFFFF900
02FFFFFFFFFFF200
00BFFFFFFFFFB000
009FFFFFFFFF8000
007FFFFFFFFF6000
004FFFFFFFFF4000
001FFFF767BF1000
000EFFF500010000
000BFFF955500000
0008FFFFFFD00000
0006FFFFFFD00000
0005FFFEDEB00000
0003FFF500300000
0001FFF765410000
0000DFFEFFF30000
0000AFFFFFF00000
0000752DB8C00000
0000100000500000
ENDCHAR
STARTCHAR Edotaccent
ENCODING 278
SWIDTH 570 0
DWIDTH 14 0
BBX 13 29 0 -2
BITMAP
000488BDC80000
0007FFFFFC0000
0004FFFFFB0000
0003FFFFFD0000
0001FFFFFE0000
0000FFFFFD0000
0000FFFFFC0000
00008631320000
00000000000000
046899A9874200
2EFFFFFFFFFF90
05FFFFFFFFFF10
00CFFFFFFFFD00
00CFFFFFFFF900
00BFFFFFFFF500
00AFFFFFFFE100
009FFFEFFFB000
008FFF51486000
007FFF50000000
005FFFEEE50000
004FFFFFF60000
002FFFFFF50000
000FFF74520000
000DFF31000000
000CFFEFFB0000
000AFFFFF90000
000A39FEC80000
000807D4260000
00000200210000
ENDCHAR
STARTCHAR edotaccent
ENCODING 279
SWIDTH 632 0
DWIDTH 15 0
BBX 15 29 0 -2
BITMAP
000168ACDB400000
0000CFFFFF600000
0000AFFFFF500000
00009FFFFF700000
00007FFFFF700000
00006FFFFF700000
00006FFFFF600000
0000375223100000
0000000000000000
0024689998763100
3CFFFFFFFFFFFF30
0BFFFFFFFFFFF900
02FFFFFFFFFFF200
00BFFFFFFFFFB000
009FFFFFFFFF8000
007FFFFFFFFF6000
004FFFFFFFFF4000
001FFFF767BF1000
000EFFF500010000
000BFFF955500000
0008FFFFFFD00000
0006FFFFFFD00000
0005FFFEDEB00000
0003FFF500300000
0001FFF765410000
0000DFFEFFF30000
0000AFFFFFF00000
0000752DB8C00000
0000100000500000
ENDCHAR
STARTCHAR Eogonek
ENCODING 280
SWIDTH 513 0
DWIDTH 12 0
BBX 13 26 0 -8
BITMAP
046899A9874200
2EFFFFFFFFFF90
05FFFFFFFFFF10
00CFFFFFFFFD00
00CFFFFFFFF900
00BFFFFFFFF500
00AFFFFFFFE100
009FFFEFFFB000
008FFF51486000
007FFF50000000
005FFFEEE50000
004FFFFFF60000
002FFFFFF50000
000FFF74520000
000DFF31000000
000CFFEFFB0000
000AFFFFF90000
000AFCEFF80000
000830AFF60000
000000DFA00000
000001FF300000
000001FF900000
000000EFF74410
000000AFFFFF30
0000001DFFFF10
000000016ACA00
ENDCHAR
STARTCHAR eogonek
ENCODING 281
SWIDTH 632 0
DWIDTH 15 0
BBX 15 26 0 -8
BITMAP
0024689998763100
3CFFFFFFFFFFFF30
0BFFFFFFFFFFF900
02FFFFFFFFFFF200
00BFFFFFFFFFB000
009FFFFFFFFF8000
007FFFFFFFFF6000
004FFFFFFFFF4000
001FFFF767BF1000
000EFFF500010000
000BFFF955500000
0008FFFFFFD00000
0006FFFFFFD00000
0005FFFEDEB00000
0003FFF500300000
0001FFF765410000
0000DFFEFFF30000
0000AFFFFFD00000
0000752EFF300000
00001008FD000000
0000000BFA000000
0000000BFD000000
0000000AFF932100
00000005FFFFF800
00000000BFFFF600
0000000006BDC400
ENDCHAR
STARTCHAR Ecaron
ENCODING 282
SWIDTH 570 0
DWIDTH 14 0
BBX 13 30 0 -2
BITMAP
00051000005100
009FC10004FC10
00CFF8001DFF80
006FFE109FFF20
000EFF93FFF900
0007FFFEFFF200
0001EFFFFF9000
00009FFFFE1000
00002EDDF80000
00000000000000
046899A9874200
2EFFFFFFFFFF90
05FFFFFFFFFF10
00CFFFFFFFFD00
00CFFFFFFFF900
00BFFFFFFFF500
00AFFFFFFFE100
009FFFEFFFB000
008FFF51486000
007FFF50000000
005FFFEEE50000
004FFFFFF60000
002FFFFFF50000
000FFF74520000
000DFF31000000
000CFFEFFB0000
000AFFFFF90000
000A39FEC80000
000807D4260000
00000200210000
ENDCHAR
STARTCHAR ecaron
ENCODING 283
SWIDTH 632 0
DWIDTH 15 0
BBX 15 30 0 -2
BITMAP
0000330000032000
0007FE20002ED200
000AFFB000CFFB00
0003FFF306FFF400
0000BFFC2EFFC000
00005FFFDFFF4000
00000DFFFFFB0000
000006FFFFF30000
000001DDCEB00000
0000000000000000
0024689998763100
3CFFFFFFFFFFFF30
0BFFFFFFFFFFF900
02FFFFFFFFFFF200
00BFFFFFFFFFB000
009FFFFFFFFF8000
007FFFFFFFFF6000
004FFFFFFFFF4000
001FFFF767BF1000
000EFFF500010000
000BFFF955500000
0008FFFFFFD00000
0006FFFFFFD00000
0005FFFEDEB00000
0003FFF500300000
0001FFF765410000
0000DFFEFFF30000
0000AFFFFFF00000
0000752DB8C00000
0000100000500000
ENDCHAR
STARTCHAR Gcircumflex
ENCODING 284
SWIDTH 499 0
DWIDTH 12 0
BBX 12 31 0 -3
BITMAP
000000010000
0009EDEF2000
001EFFFFA000
007FFFFFF300
00DFFDFFFA00
05FFD17FFF30
0CFE300AFFB0
4FF40000CFF2
3C5000001C60
000000000000
000178850000
017EFFFFD500
0BFFFFFFFF80
0DFFFFFFFFE1
2FFFFFFFFFF6
2FFFFFFFFFF7
1FFFFFFFFFF6
0EFFFFFFFFF3
0CFFF18FFFF0
0AFFE01FFFE0
07FFC008CEE0
05FFC0533310
04FFE0BFFFC0
03FFF1AFFFE0
01FFF448FFD0
00DFF91AFFC0
008FFFFFFFA0
003FFFFFFF40
0006A9DEF700
000073627000
000040000000
ENDCHAR
STARTCHAR gcircumflex
ENCODING 285
SWIDTH 546 0
DWIDTH 13 0
BBX 13 30 0 -2
BITMAP
00000000100000
0002FEDF900000
0008FFFFF20000
001EFFFFF90000
007FFFDFFF2000
00DFF62EFFA000
05FF9003FFF300
0CFA00005FF900
08B1000007C100
00000000000000
00047877510000
006FFFFFFE7000
0AFFFFFFFFF700
0FFFFFFFFFFF20
3FFFFFFFFFFF70
4FFFFFFFFFFFA0
2FFFFFFFFFFFA0
0FFFFFFFFFFF80
0DFFFB3DFFFF40
0AFFF805FFFF10
07FFF602FFFF00
04FFF602024600
00EFF70FEA7400
00AFFC0EFFFD00
008FFE0DDFFA00
006FFF318FFA00
003FFFDAFFF900
000EFFFFFFF800
0004FFFFFFF400
0000569A673000
ENDCHAR
STARTCHAR Gbreve
ENCODING 286
SWIDTH 499 0
DWIDTH 12 0
BBX 12 29 0 -3
BITMAP
03FFB0008750
00EFC002FFD0
00AFF83AFF80
007FFFFFFF30
0019CFFFFA00
0000364FB500
000000052300
000000000000
000178850000
017EFFFFD500
0BFFFFFFFF80
0DFFFFFFFFE1
2FFFFFFFFFF6
2FFFFFFFFFF7
1FFFFFFFFFF6
0EFFFFFFFFF3
0CFFF18FFFF0
0AFFE01FFFE0
07FFC008CEE0
05FFC0533310
04FFE0BFFFC0
03FFF1AFFFE0
01FFF448FFD0
00DFF91AFFC0
008FFFFFFFA0
003FFFFFFF40
0006A9DEF700
000073627000
000040000000
ENDCHAR
STARTCHAR gbreve
ENCODING 287
SWIDTH 546 0
DWIDTH 13 0
BBX 13 28 0 -2
BITMAP
00AFF400476300
005FF6009FF600
002FFD54EFF200
000EFFFFFFB000
00058FFFFF4000
0000081BDB0000
00000004160000
00000000000000
00047877510000
006FFFFFFE7000
0AFFFFFFFFF700
0FFFFFFFFFFF20
3FFFFFFFFFFF70
4FFFFFFFFFFFA0
2FFFFFFFFFFFA0
0FFFFFFFFFFF80
0DFFFB3DFFFF40
0AFFF805FFFF10
07FFF602FFFF00
04FFF602024600
00EFF70FEA7400
00AFFC0EFFFD00
008FFE0DDFFA00
006FFF318FFA00
003FFFDAFFF900
000EFFFFFFF800
0004FFFFFFF400
0000569A673000
ENDCHAR
STARTCHAR Gdotaccent
ENCODING 288
SWIDTH 499 0
DWIDTH 12 0
BBX 12 30 0 -3
BITMAP
00388BDC9000
005FFFFFE000
003FFFFFD000
001FFFFFE000
000FFFFFF000
000EFFFFE000
000DFFFFD000
000764132000
000000000000
000178850000
017EFFFFD500
0BFFFFFFFF80
0DFFFFFFFFE1
2FFFFFFFFFF6
2FFFFFFFFFF7
1FFFFFFFFFF6
0EFFFFFFFFF3
0CFFF18FFFF0
0AFFE01FFFE0
07FFC008CEE0
05FFC0533310
04FFE0BFFFC0
03FFF1AFFFE0
01FFF448FFD0
00DFF91AFFC0
008FFFFFFFA0
003FFFFFFF40
0006A9DEF700
000073627000
000040000000
ENDCHAR
STARTCHAR gdotaccent
ENCODING 289
SWIDTH 546 0
DWIDTH 13 0
BBX 13 29 0 -2
BITMAP
00168ACDB40000
000DFFFFF60000
000BFFFFF50000
0009FFFFF70000
0008FFFFF70000
0007FFFFF60000
0006FFFFF50000
00037522310000
00000000000000
00047877510000
006FFFFFFE7000
0AFFFFFFFFF700
0FFFFFFFFFFF20
3FFFFFFFFFFF70
4FFFFFFFFFFFA0
2FFFFFFFFFFFA0
0FFFFFFFFFFF80
0DFFFB3DFFFF40
0AFFF805FFFF10
07FFF602FFFF00
04FFF602024600
00EFF70FEA7400
00AFFC0EFFFD00
008FFE0DDFFA00
006FFF318FFA00
003FFFDAFFF900
000EFFFFFFF800
0004FFFFFFF400
0000569A673000
ENDCHAR
STARTCHAR Gcommaaccent
ENCODING 290
SWIDTH 499 0
DWIDTH 12 0
BBX 12 33 0 -15
BITMAP
000178850000
017EFFFFD500
0BFFFFFFFF80
0DFFFFFFFFE1
2FFFFFFFFFF6
2FFFFFFFFFF7
1FFFFFFFFFF6
0EFFFFFFFFF3
0CFFF18FFFF0
0AFFE01FFFE0
07FFC008CEE0
05FFC0533310
04FFE0BFFFC0
03FFF1AFFFE0
01FFF448FFD0
00DFF91AFFC0
008FFFFFFFA0
003FFFFFFF40
0006A9DEF700
000073627000
000040000000
000013101000
0000EFFEF800
0000FFFFF900
0000FFFFFA00
0001FFFFFA00
0002FFFFFA00
0001A9BEFA00
0000000DF800
0000001FF500
0000004FF300
0000005FF100
000000132000
ENDCHAR
STARTCHAR Hcircumflex
ENCODING 292
SWIDTH 726 0
DWIDTH 17 0
BBX 17 33 0 -5
BITMAP
000000000010000000
000001EEDFA0000000
000007FFFFF3000000
00000EFFFFFB000000
00006FFFDFFF300000
0000CFF81DFFB00000
0004FFA003EFF40000
000BFB00004FFA0000
0007C1000005C20000
000000000000000000
000036890498866200
3ACEFFF803FFFFFF80
05FFFFF301EFFFFD00
00EFFFF400BFFFF700
00CFFFF301FFFFF100
00AFFFF303FFFFB000
006FFFF203FFFF7000
003FFFF203FFFF6000
001FFFF103FFFE1000
000DFFF215FFFB0000
000BFFFFFFFFF90000
0009FFFFFFFFF50000
0006FFFFDFFFF50000
0005FFF40AFFF30000
0003FFF40CFFD00000
0002FFF50CFFC00000
0001FFF50DFFA00000
0001FFF41EFF800000
0002C4400AEE600000
000000000144300000
000000000100000000
000000002300000000
000000003300000000
ENDCHAR
STARTCHAR hcircumflex
ENCODING 293
SWIDTH 730 0
DWIDTH 18 0
BBX 17 31 0 -2
BITMAP
000000000010000000
000000DEDFC0000000
000006FFFFF5000000
00000CFFFFFC000000
00004FFFDFFF500000
0000BFF91CFFD00000
0002FFB002DFF50000
0009FC10003EFC0000
0006D2000004D20000
000000000000000000
000000000000000000
000269BC12DBCAA630
2BFFFFF700EFFFFF80
02FFFFF5009FFFFE10
00CFFFF5009FFFF800
00BFFFF500EFFFF200
009FFFF500FFFFC000
006FFFF400EFFFA000
003FFFF400EFFF8000
000FFFF300EFFF3000
000CFFF646FFFD0000
0009FFFFFFFFFA0000
0007FFFFFFFFF80000
0006FFFDADFFF70000
0005FFF508FFF50000
0004FFF60AFFF10000
0002FFF60AFFE00000
0000FFF60CFFC00000
0000EFF50CFFA00000
0001911006DA900000
000000000022300000
ENDCHAR
STARTCHAR hbar
ENCODING 295
SWIDTH 704 0
DWIDTH 17 0
BBX 17 20 0 -2
BITMAP
00026AC907CCA98410
2BFFFFF408FFFFFD10
02FFFFF107FFFFF500
00CFFFF77AFFFFD000
00BFFFFFFFFFFF8000
009FFFFFFFFFFF3000
006FFFFFFFFFFF1000
003FFFFCCDFFFD0000
000FFFD005FFF90000
000CFFD44AFFF40000
0009FFFFFFFFE10000
0007FFFFFFFFD00000
0006FFFDADFFF00000
0005FFF508FFF30000
0004FFF60AFFF10000
0002FFF60AFFE00000
0000FFF60CFFC00000
0000EFF50CFFA00000
0001911006DA900000
000000000022300000
ENDCHAR
STARTCHAR Itilde
ENCODING 296
SWIDTH 401 0
DWIDTH 10 0
BBX 12 27 -2 -2
BITMAP
000100006100
02CC102BFE50
2EFFB9FFFFF3
0AFFFFFFFFFB
01DFFFEADFD2
0028C8101710
000000000000
003BBBABBB80
002FFFFFFF70
0005FFFFFF20
00009FFFFA00
00003FFFFD00
00003FFFFB00
00005FFFF900
00005FFFF700
00005FFFF400
00003FFFF200
00002FFFF300
00001FFFF300
00000EFFE000
00000CFFD000
00000AFFF000
000008FFD000
000006FFC000
000003ACD000
000001586100
000000010000
ENDCHAR
STARTCHAR itilde
ENCODING 297
SWIDTH 411 0
DWIDTH 10 0
BBX 11 26 -1 -1
BITMAP
001000052000
2BD201AEF700
DFFC8FFFFF40
8FFFFFFFFFD0
0BFFFFACFE30
018C92007200
000000000000
0369BAAA7510
01DFFFFFFB00
004EFFFFF600
0006FFFFD000
0001FFFFD000
0001FFFFA000
0002FFFF6000
0003FFFF4000
0002FFFF2000
0001FFFF1000
0000EFFF1000
0000CFFF3000
00009FFE0000
00007FFC0000
00005FFB0000
00005FFB0000
00004FFA0000
00002DD90000
000001570000
ENDCHAR
STARTCHAR Imacron
ENCODING 298
SWIDTH 401 0
DWIDTH 10 0
BBX 9 24 0 -2
BITMAP
5DDCBCBC90
7FFFFFFF90
5BFFDEDE80
0000000100
3BBBABBB80
2FFFFFFF70
05FFFFFF20
009FFFFA00
003FFFFD00
003FFFFB00
005FFFF900
005FFFF700
005FFFF400
003FFFF200
002FFFF300
001FFFF300
000EFFE000
000CFFD000
000AFFF000
0008FFD000
0006FFC000
0003ACD000
0001586100
0000010000
ENDCHAR
STARTCHAR imacron
ENCODING 299
SWIDTH 411 0
DWIDTH 10 0
BBX 10 24 0 -1
BITMAP
3DDDBCBCA0
5FFFFFFFB0
3AEFDEDDA0
0000000100
0000000000
369BAAA751
1DFFFFFFB0
04EFFFFF60
006FFFFD00
001FFFFD00
001FFFFA00
002FFFF600
003FFFF400
002FFFF200
001FFFF100
000EFFF100
000CFFF300
0009FFE000
0007FFC000
0005FFB000
0005FFB000
0004FFA000
0002DD9000
0000157000
ENDCHAR
STARTCHAR Ibreve
ENCODING 300
SWIDTH 401 0
DWIDTH 10 0
BBX 10 28 0 -2
BITMAP
4FFA000875
0EFB003FFC
0BFF73BFF7
08FFFFFFF2
019DFFFF90
000455FB40
0000014320
0000000000
3BBBABBB80
2FFFFFFF70
05FFFFFF20
009FFFFA00
003FFFFD00
003FFFFB00
005FFFF900
005FFFF700
005FFFF400
003FFFF200
002FFFF300
001FFFF300
000EFFE000
000CFFD000
000AFFF000
0008FFD000
0006FFC000
0003ACD000
0001586100
0000010000
ENDCHAR
STARTCHAR ibreve
ENCODING 301
SWIDTH 411 0
DWIDTH 10 0
BBX 10 27 0 -1
BITMAP
5FF9001864
1FFA004FFB
0CFF63CFF6
09FFFFFFF1
029DFFFF80
000546EB20
0000014410
0000000000
369BAAA751
1DFFFFFFB0
04EFFFFF60
006FFFFD00
001FFFFD00
001FFFFA00
002FFFF600
003FFFF400
002FFFF200
001FFFF100
000EFFF100
000CFFF300
0009FFE000
0007FFC000
0005FFB000
0005FFB000
0004FFA000
0002DD9000
0000157000
ENDCHAR
STARTCHAR Iogonek
ENCODING 302
SWIDTH 401 0
DWIDTH 10 0
BBX 9 28 0 -10
BITMAP
3BBBABBB80
2FFFFFFF70
05FFFFFF20
009FFFFA00
003FFFFD00
003FFFFB00
005FFFF900
005FFFF700
005FFFF400
003FFFF200
002FFFF300
001FFFF300
000EFFE000
000CFFE000
000AFFF000
0008FFD000
0006FFC000
0005FFD000
0008FE7100
000BFA0000
000EF60000
001FF30000
003FF30000
003FFA0000
002FFFDBB0
000BFFFFD0
0001AFFFC0
0000014420
ENDCHAR
STARTCHAR iogonek
ENCODING 303
SWIDTH 412 0
DWIDTH 10 0
BBX 10 27 0 -9
BITMAP
369BAAA751
1EFFFFFFA0
04EFFFFF60
006FFFFD00
001FFFFD00
001FFFFA00
002FFFF600
003FFFF400
002FFFF200
001FFFF100
000EFFF100
000CFFF300
0009FFE000
0007FFC000
0005FFC000
0005FFB000
0004FFA000
0006FF9000
0009FF7000
000CFB0000
000EF70000
002FF40000
003FF70000
001FFE7320
000CFFFFF1
0004FFFFE0
000029DEA0
ENDCHAR
STARTCHAR Idotaccent
ENCODING 304
SWIDTH 401 0
DWIDTH 10 0
BBX 9 29 0 -2
BITMAP
0589CDB600
09FFFFFA00
07FFFFF900
05FFFFFA00
04FFFFFB00
03FFFFFA00
02FFFFF900
0186313200
0000000000
3BBBABBB80
2FFFFFFF70
05FFFFFF20
009FFFFA00
003FFFFD00
003FFFFB00
005FFFF900
005FFFF700
005FFFF400
003FFFF200
002FFFF300
001FFFF300
000EFFE000
000CFFD000
000AFFF000
0008FFD000
0006FFC000
0003ACD000
0001586100
0000010000
ENDCHAR
STARTCHAR dotlessi
ENCODING 305
SWIDTH 411 0
DWIDTH 10 0
BBX 10 19 0 -1
BITMAP
369BAAA751
1DFFFFFFB0
04EFFFFF60
006FFFFD00
001FFFFD00
001FFFFA00
002FFFF600
003FFFF400
002FFFF200
001FFFF100
000EFFF100
000CFFF300
0009FFE000
0007FFC000
0005FFB000
0005FFB000
0004FFA000
0002DD9000
0000157000
ENDCHAR
STARTCHAR IJ
ENCODING 306
SWIDTH 908 0
DWIDTH 22 0
BBX 21 20 0 -2
BITMAP
3BBBABBBA2000048887520
2FFFFFFFC000005FFFFFA0
05FFFFFF7000000DFFFF30
009FFFFE10000009FFFF10
003FFFFF30000006FFFA00
003FFFFF10000008FFF500
005FFFFE0000000AFFF300
005FFFFD0000000BFFF200
004FFFFA0000000CFFF100
003FFFF70000000CFFD000
002FFFF90000000AFFB000
000FFFF80000010BFF8000
000DFFF40049B80CFF7000
000BFFF400AFF80CFF5000
0009FFF5006FF90EFF2000
0006FFF4006FFE8FFF1000
0004FFF3002FFFFFF90000
0002B9F30006DE9FD50000
000074830000053A210000
0000001000000000000000
ENDCHAR
STARTCHAR ij
ENCODING 307
SWIDTH 901 0
DWIDTH 22 0
BBX 21 19 0 -1
BITMAP
369BBAB86200059BA74100
1EFFFFFFD10002FFFFFF80
04EFFFFF900000AFFFFF20
006FFFFF3000006FFFFF10
001FFFFF2000002FFFFB00
001FFFFE0000000FFFF600
002FFFFC0000000FFFF700
003FFFF90000000FFFF600
003FFFF70000000FFFF600
001FFFF60000000FFFF500
000EFFF70000000BFFF300
000BFFF80000020CFFF000
0008FFF50049B80CFFE000
0005FFF3009FFA0BFFE000
0004FFF2004FFE0BFFC000
0004FFF2001FFFBFFF9000
0003FFF1000BFFFFFF3000
0001EBF00003CEFFFF0000
0000229100000148680000
ENDCHAR
STARTCHAR Jcircumflex
ENCODING 308
SWIDTH 455 0
DWIDTH 11 0
BBX 13 29 -1 -1
BITMAP
00000000010000
00000BEDEE1000
00003FFFFF7000
0000AFFFFFE100
0002FFFDFFF800
0008FFB0AFFE10
001EFD101CFF80
006FE20001DFE0
004D3000002D40
00000000000000
00002888762000
00002FFFFFC100
00000AFFFF6000
000006FFFF4000
000003FFFD0000
000005FFF80000
000007FFF60000
000008FFF50000
000009FFF40000
000009FFF10000
000007FFE00000
000108FFC00000
28BA09FFA00000
7FFB09FF800000
3FFC0BFF600000
3FFF7FFF300000
0EFFFFFC000000
04CF8FD8000000
00060C13000000
ENDCHAR
STARTCHAR jcircumflex
ENCODING 309
SWIDTH 458 0
DWIDTH 11 0
BBX 13 29 -1 -1
BITMAP
00000000010000
00000BEDEE1000
00003FFFFF8000
00009FFFFFE100
0001FFFDFFF800
0008FFC0AFFE10
000EFD100CFF80
006FE20001DFE0
004D4000002D40
00000000000000
00009BB9620000
0000AFFFFFC200
00003FFFFF9000
00000EFFFF7000
00000BFFFF2000
000008FFFD0000
000008FFFE0000
000008FFFD0000
000008FFFC0000
000008FFFB0000
000004FFFA0000
000205FFF70000
28AD05FFF60000
6FFF14FFF60000
1EFF65FFF30000
0DFFDDFFF10000
07FFFFFFA00000
00ADFFFF700000
000034A4500000
ENDCHAR
STARTCHAR Kcommaaccent
ENCODING 310
SWIDTH 580 0
DWIDTH 14 0
BBX 14 32 0 -14
BITMAP
379A7560595200
3DFFFF90CFFFD2
03FFFF90DFFD20
00BFFFA2FFC200
005FFFB5FF3000
001FFFBBFE0000
000CFFFFFB0000
000AFFFFF80000
000BFFFFFB0000
0009FFFFFC0000
0005FFFFFB0000
0004FFFFFC0000
0001FFFFFD0000
0001FFFFFE0000
0000EFD9FF4000
0000DF71FF7000
0000AF90CFB000
0000BFB0AFC000
00005260567000
00000010000000
00000231010000
00001FFFEF6000
00001FFFFF8000
00002FFFFF9000
00003FFFFF8000
00003FFFFF8000
00002B9CFF8000
00000000FF6000
00000003FF4000
00000005FF2000
00000007FE0000
00000001320000
ENDCHAR
STARTCHAR kcommaaccent
ENCODING 311
SWIDTH 636 0
DWIDTH 15 0
BBX 15 32 0 -14
BITMAP
0035765607AB9720
4EFFFFF51FFFFC30
03EFFFF34FFFB000
00CFFFF39FFC1000
005FFFF4BFF10000
000DFFF6DFE00000
0008FFF7EFC00000
0006FFF9FF600000
0005FFFCFE100000
0004FFFFFA000000
0003FFFFF8000000
0001EFFFFB000000
0000BFFFFF200000
0000AFFEFF700000
00007FF8DFC00000
00006FF37FF30000
00005FF31EF80000
00003FF40CFE1000
0000173406871000
0000000000000000
0000012300100000
000005FFFEF30000
000005FFFFF40000
000006FFFFF50000
000007FFFFF40000
000007FFFFF40000
000004B9DFF40000
000000004FF20000
000000007FF00000
000000009FD00000
00000000BFB00000
0000000022100000
ENDCHAR
STARTCHAR kgreenlandic
ENCODING 312
SWIDTH 636 0
DWIDTH 15 0
BBX 15 19 0 -1
BITMAP
0035765607AB9720
4EFFFFF51FFFFC30
03EFFFF34FFFB000
00CFFFF39FFC1000
005FFFF4BFF10000
000DFFF6DFE00000
0008FFF7EFC00000
0006FFF9FF600000
0005FFFCFE100000
0004FFFFFA000000
0003FFFFF8000000
0001EFFFFB000000
0000BFFFFF200000
0000AFFEFF700000
00007FF8DFC00000
00006FF37FF30000
00005FF31EF80000
00003FF40CFE1000
0000173406871000
ENDCHAR
STARTCHAR Lacute
ENCODING 313
SWIDTH 416 0
DWIDTH 10 0
BBX 13 28 0 -2
BITMAP
00000000001000
0000000005E200
000000007FF600
00000009FFFD40
000003CFFFFEA0
00000BFFD94000
00000572000000
00000000000000
6AAAA98A300000
1CFFFFF7000000
05FFFFD0000000
05FFFF60000000
01FFFFA0000000
00FFFF80000000
00FFFF70000000
00EFFF50000000
00BFFF60000000
008FFF70000000
008FFF70000000
007FFF70000000
003FFF70000000
003FFF70000000
002FFFC4224000
000EFFFFFF7000
000CFFFFFF6000
0008FFCFFF3000
0002767ABE1000
00002131250000
ENDCHAR
STARTCHAR lacute
ENCODING 314
SWIDTH 438 0
DWIDTH 11 0
BBX 14 28 0 -2
BITMAP
00000000001000
0000000002D700
000000003EFC00
00000005EFFF71
0000009FFFFFC3
000006FFEA6100
00000283000000
00000000000000
0269AABBD80000
3BFFFFFF400000
02EFFFFA000000
00DFFFF3000000
00AFFFF6000000
009FFFF4000000
006FFFF2000000
006FFFF3000000
002FFFF3000000
000AFFF2000000
000AFFF1000000
0009FFF0000000
0009FFE0000000
0006FFF0000000
0005FFF8434100
0003FFFFFFD100
0002FFFFFFA000
0000FFEAFF6000
0000C232AF3000
00006000150000
ENDCHAR
STARTCHAR Lcommaaccent
ENCODING 315
SWIDTH 416 0
DWIDTH 10 0
BBX 11 33 0 -15
BITMAP
6AAAA98A3000
1CFFFFF70000
05FFFFD00000
05FFFF600000
01FFFFA00000
00FFFF800000
00FFFF700000
00EFFF500000
00BFFF600000
008FFF700000
008FFF700000
007FFF700000
003FFF700000
003FFF700000
002FFFC42240
000EFFFFFF70
000CFFFFFF60
0008FFCFFF30
0002767ABE10
000021312500
000000000000
000231010000
001FFFEF6000
002FFFFF7000
003FFFFF8000
004FFFFF8000
004FFFFF7000
002B9CFF7000
000001FF5000
000004FF3000
000006FF1000
000007FE0000
000001220000
ENDCHAR
STARTCHAR lcommaaccent
ENCODING 316
SWIDTH 438 0
DWIDTH 11 0
BBX 12 32 0 -14
BITMAP
0269AABBD800
3BFFFFFF4000
02EFFFFA0000
00DFFFF30000
00AFFFF60000
009FFFF40000
006FFFF20000
006FFFF30000
002FFFF30000
000AFFF20000
000AFFF10000
0009FFF00000
0009FFE00000
0006FFF00000
0005FFF84341
0003FFFFFFD1
0002FFFFFFA0
0000FFEAFF60
0000C232AF30
000060001500
000131010000
000BFFEFB000
000CFFFFC000
000CFFFFD000
000DFFFFD000
000EFFFFD000
0009ABEFD000
000000AFB000
000000DF8000
000001FF6000
000002FF4000
000000320000
ENDCHAR
STARTCHAR Lcaron
ENCODING 317
SWIDTH 714 0
DWIDTH 17 0
BBX 17 20 0 -2
BITMAP
5AAAA98A4013200100
1CFFFFF700DFFEEF10
05FFFFD000EFFFFF20
05FFFF6000EFFFFF30
01FFFFA000FFFFFF40
00FFFF8000FFFFFF30
00FFFF7001FFFFFF30
00EFFF5000DCDFFF30
00BFFF60000005FF10
008FFF70000007FE00
008FFF8000000AFC00
007FFF7000000CFA00
003FFF700000067300
003FFF700000000000
001FFFC42240000000
000EFFFFFF70000000
000CFFFFFF60000000
0008FFCFFF30000000
0001767ABE10000000
000021312500000000
ENDCHAR
STARTCHAR lcaron
ENCODING 318
SWIDTH 782 0
DWIDTH 19 0
BBX 18 21 0 -2
BITMAP
000000000001231010
0269AABBD803FFFEFB
3BFFFFFF4004FFFFFC
02EFFFFA0005FFFFFD
00DFFFF30005FFFFFD
00AFFFF60006FFFFFC
009FFFF40006FFFFFC
006FFFF20004DBEFFC
006FFFF30000000AFB
002FFFF30000000DF9
000AFFF20000001FF6
000AFFF10000003FF4
0009FFF00000001771
0009FFE00000000000
0006FFF00000000000
0005FFF84341000000
0003FFFFFFD1000000
0002FFFFFFA0000000
0000FFEAFF60000000
0000C232AF30000000
000060001500000000
ENDCHAR
STARTCHAR Ldotaccent
ENCODING 319
SWIDTH 567 0
DWIDTH 14 0
BBX 15 20 0 -2
BITMAP
6AAAA98A30000000
1CFFFFF700000000
05FFFFD000000000
05FFFF6000023200
01FFFFA09DEFFFA0
00FFFF808FFFFFA0
00FFFF706FFFFF80
00EFFF505FFFFFC0
00BFFF603FFFFFB0
008FFF702FFFFFA0
008FFF702FFCBD70
007FFF7002000000
003FFF7000000000
003FFF7000000000
002FFFC422400000
000EFFFFFF700000
000CFFFFFF600000
0008FFCFFF300000
0002767ABE100000
0000213125000000
ENDCHAR
STARTCHAR ldot
ENCODING 320
SWIDTH 660 0
DWIDTH 16 0
BBX 17 20 0 -2
BITMAP
0269AABBD800000000
3BFFFFFF4000000000
02EFFFFA0000000000
00DFFFF30000000000
00AFFFF60000000000
009FFFF401689CDB40
006FFFF200CFFFFF70
006FFFF300AFFFFF60
002FFFF3008FFFFF70
000AFFF2007FFFFF80
000AFFF1006FFFFF70
0009FFF0005FFFFF60
0009FFE00037521310
0006FFF00000000000
0005FFF84341000000
0003FFFFFFD1000000
0002FFFFFFA0000000
0000FFEAFF60000000
0000C232AF30000000
000060001500000000
ENDCHAR
STARTCHAR Lslash
ENCODING 321
SWIDTH 428 0
DWIDTH 10 0
BBX 12 20 0 -2
BITMAP
29AAA98A3000
07FFFFF70000
00EFFFD00000
00EFFF600000
00BFFFA00010
009FFF817D50
009FFFDEFF60
009FFFFFFFA0
4BFFFFFFFFF1
9FFFFFFFFB81
3FFFFFE93000
0DFFFF700000
057EFF700000
000DFF700000
000BFFC42240
0009FFFFFF80
0007FFFFFF60
0003FFCFFF30
0000757ABE10
000021312500
ENDCHAR
STARTCHAR lslash
ENCODING 322
SWIDTH 457 0
DWIDTH 11 0
BBX 13 20 0 -2
BITMAP
0159AAABDB1000
19FFFFFF700000
00CFFFFD000000
00AFFFF7000000
007FFFF9016200
005FFFF87EF300
003FFFFFFFF600
003FFFFFFFFB00
17DFFFFFFFFF10
6FFFFFFFFC4100
1EFFFFFC400000
09FFFFF3000000
03BAFFF3000000
0003FFF3000000
0002FFFA534200
0000FFFFFFF200
0000DFFFFFD000
0000CFF9FFA000
0000A4318F7000
00005100051000
ENDCHAR
STARTCHAR Nacute
ENCODING 323
SWIDTH 610 0
DWIDTH 15 0
BBX 16 30 0 -4
BITMAP
0000000000000100
000000000001BA00
00000000002CFE00
0000000003DFFF91
000000007EFFFFD5
00000003FFFB7200
0000000085000000
0000000000000000
03456770A9642000
2EFFFFB09FFFFA00
05FFFFE06FFFD100
00EFFFF55FFF5000
00DFFFFC5FFF4000
00CFFFFF6FFF3000
00AFFFFFCFFF1000
009FFFFFFFFE0000
007FFFFFFFFC0000
005FFFFFFFFA0000
003FFFFFFFF80000
000FFFFFFFF60000
000CFFAFFFF50000
0009FF8FFFF40000
0008FF3DFFF40000
0007FF49FFF30000
0006FF54FFF10000
0005FF61FFE00000
0004FD70CCC00000
0003716089600000
0002505040000000
0000405030000000
ENDCHAR
STARTCHAR nacute
ENCODING 324
SWIDTH 664 0
DWIDTH 16 0
BBX 17 29 0 -3
BITMAP
000000000000010000
0000000000002D7000
000000000004EFB000
00000000005FFFF610
0000000019FFFFFB30
000000006FFEA51000
000000002830000000
000000000000000000
478ABCA50876677500
2EFFFFF709FFFFE200
08FFFFFC06FFFF8000
01FFFFFF34FFFF1000
00EFFFFF76FFFB0000
00EFFFFFB8FFF80000
00DFFFFFEAFFF50000
00CFFFFFFFFFF30000
00AFFFFFFFFFF10000
009FFFFFFFFFE00000
007FFFFFFFFFC00000
004FFFFFFFFFA00000
001EFF9FFFFF700000
000EFF6FFFFF400000
000DFF3BFFFF200000
000BFF47FFFD000000
000AFF34FFFA000000
0008FF31FFF3000000
0007FB30FFC1000000
000230107890000000
000000000100000000
ENDCHAR
STARTCHAR Ncommaaccent
ENCODING 325
SWIDTH 610 0
DWIDTH 15 0
BBX 14 35 0 -17
BITMAP
03456770A96420
2EFFFFB09FFFFA
05FFFFE06FFFD1
00EFFFF55FFF50
00DFFFFC5FFF40
00CFFFFF6FFF30
00AFFFFFCFFF10
009FFFFFFFFE00
007FFFFFFFFC00
005FFFFFFFFA00
003FFFFFFFF800
000FFFFFFFF600
000CFFAFFFF500
0009FF8FFFF400
0008FF3DFFF400
0007FF49FFF300
0006FF54FFF100
0005FF61FFE000
0004FD70CCC000
00037160896000
00025050400000
00004050300000
00000000000000
00000122001000
000005FFFEF200
000006FFFFF300
000007FFFFF400
000007FFFFF400
000008FFFFF400
000005B9DFF400
000000004FF200
000000007FE000
00000000AFC000
00000000BFA000
00000000221000
ENDCHAR
STARTCHAR ncommaaccent
ENCODING 326
SWIDTH 664 0
DWIDTH 16 0
BBX 16 33 0 -15
BITMAP
478ABCA508766775
2EFFFFF709FFFFE2
08FFFFFC06FFFF80
01FFFFFF34FFFF10
00EFFFFF76FFFB00
00EFFFFFB8FFF800
00DFFFFFEAFFF500
00CFFFFFFFFFF300
00AFFFFFFFFFF100
009FFFFFFFFFE000
007FFFFFFFFFC000
004FFFFFFFFFA000
001EFF9FFFFF7000
000EFF6FFFFF4000
000DFF3BFFFF2000
000BFF47FFFD0000
000AFF34FFFA0000
0008FF31FFF30000
0007FB30FFC10000
0002301078900000
0000000001000000
0000001310100000
000000BFFEFB0000
000000CFFFFC0000
000000CFFFFD0000
000000DFFFFD0000
000000EFFFFD0000
0000009ABEFD0000
000000000AFB0000
000000000DF90000
000000001FF60000
000000002FF40000
0000000003200000
ENDCHAR
STARTCHAR Ncaron
ENCODING 327
SWIDTH 610 0
DWIDTH 15 0
BBX 14 32 0 -4
BITMAP
00024000002300
006EE30001DE40
008FFD000AFFD0
001FFF604FFF60
0009FFD1DFFD00
0003FFFDFFF600
0000BFFFFFD000
00004FFFFF6000
00000CECED0000
00000000000000
03456770A96420
2EFFFFB09FFFFA
05FFFFE06FFFD1
00EFFFF55FFF50
00DFFFFC5FFF40
00CFFFFF6FFF30
00AFFFFFCFFF10
009FFFFFFFFE00
007FFFFFFFFC00
005FFFFFFFFA00
003FFFFFFFF800
000FFFFFFFF600
000CFFAFFFF500
0009FF8FFFF400
0008FF3DFFF400
0007FF49FFF300
0006FF54FFF100
0005FF61FFE000
0004FD70CCC000
00037160896000
00025050400000
00004050300000
ENDCHAR
STARTCHAR ncaron
ENCODING 328
SWIDTH 664 0
DWIDTH 16 0
BBX 16 31 0 -3
BITMAP
0000230000033000
0006EE30001DE400
0008FFD000AFFD00
0001FFF504FFF600
00009FFD1DFFD000
00003FFFDFFF6000
00000BFFFFFD0000
000004FFFFF50000
000000CDCED00000
0000000000000000
478ABCA508766775
2EFFFFF709FFFFE2
08FFFFFC06FFFF80
01FFFFFF34FFFF10
00EFFFFF76FFFB00
00EFFFFFB8FFF800
00DFFFFFEAFFF500
00CFFFFFFFFFF300
00AFFFFFFFFFF100
009FFFFFFFFFE000
007FFFFFFFFFC000
004FFFFFFFFFA000
001EFF9FFFFF7000
000EFF6FFFFF4000
000DFF3BFFFF2000
000BFF47FFFD0000
000AFF34FFFA0000
0008FF31FFF30000
0007FB30FFC10000
0002301078900000
0000000001000000
ENDCHAR
STARTCHAR Omacron
ENCODING 332
SWIDTH 504 0
DWIDTH 12 0
BBX 12 24 0 -2
BITMAP
03DDDBCBCA00
04FFFFFFFB00
03AEFDEDDA00
000000001000
000169871000
005EFFFFFA10
04FFFFFFFFB0
0DFFFFFFFFF4
4FFFFFFFFFF4
4FFFFFFFFFF7
2FFFFFFFFFF5
1FFFFEEFFFF5
0EFFF64FFFF7
0BFFF00FFFF7
08FFE00EFFF6
07FFE00CFFF4
05FFF10CFFD0
03FFF21EFF90
00EFF52FFF80
00CFFC8FFF30
00BFFFFFFD00
002CFFFFF600
0000A76E9200
000033493000
ENDCHAR
STARTCHAR omacron
ENCODING 333
SWIDTH 545 0
DWIDTH 13 0
BBX 13 24 0 -2
BITMAP
009DDBCCBD4000
00CFFFFFFF4000
008BFFDDCF3000
00000000010000
000169A8930000
005EFFFFFF8100
04FFFFFFFFF700
1DFFFFFFFFFF50
3FFFFFFFFFFF60
4FFFFFFFFFFF70
2FFFFFFFFFFF90
0FFFFFEFFFFF70
0DFFFC0CFFFF80
0BFFF608FFFF60
09FFF407FFFF30
07FFF404FFFE10
04FFF506FFFB00
01FFF608FFF600
00CFFA0CFFF200
008FFE5EFFD000
005FFFFFFF8000
0009BFFFFE1000
0000171FB90000
00000005060000
ENDCHAR
STARTCHAR Obreve
ENCODING 334
SWIDTH 504 0
DWIDTH 12 0
BBX 12 28 0 -2
BITMAP
00EFE0006761
00BFF100EFF1
007FFA37FFC0
004FFFFFFF60
0008BFFFFD10
0000181FB800
000000050600
000000000000
000169871000
005EFFFFFA10
04FFFFFFFFB0
0DFFFFFFFFF4
4FFFFFFFFFF4
4FFFFFFFFFF7
2FFFFFFFFFF5
1FFFFEEFFFF5
0EFFF64FFFF7
0BFFF00FFFF7
08FFE00EFFF6
07FFE00CFFF4
05FFF10CFFD0
03FFF21EFF90
00EFF52FFF80
00CFFC8FFF30
00BFFFFFFD00
002CFFFFF600
0000A76E9200
000033493000
ENDCHAR
STARTCHAR obreve
ENCODING 335
SWIDTH 545 0
DWIDTH 13 0
BBX 13 28 0 -2
BITMAP
00BFF300476200
007FF400AFF500
003FFC45FFF100
001FFFFFFFA000
00069FFFFF2000
0000081CCA0000
00000004160000
00000000000000
000169A8930000
005EFFFFFF8100
04FFFFFFFFF700
1DFFFFFFFFFF50
3FFFFFFFFFFF60
4FFFFFFFFFFF70
2FFFFFFFFFFF90
0FFFFFEFFFFF70
0DFFFC0CFFFF80
0BFFF608FFFF60
09FFF407FFFF30
07FFF404FFFE10
04FFF506FFFB00
01FFF608FFF600
00CFFA0CFFF200
008FFE5EFFD000
005FFFFFFF8000
0009BFFFFE1000
0000171FB90000
00000005060000
ENDCHAR
STARTCHAR Ohungarumlaut
ENCODING 336
SWIDTH 504 0
DWIDTH 12 0
BBX 13 29 0 -2
BITMAP
00096000580000
001FF900BFA820
007FFF52FFFE30
00DFFA07FFE300
05FFB00DFF4000
0BFD104FF50000
4FD200AF500000
2C300078000000
00000000000000
00016987100000
005EFFFFFA1000
04FFFFFFFFB000
0DFFFFFFFFF400
4FFFFFFFFFF400
4FFFFFFFFFF700
2FFFFFFFFFF500
1FFFFEEFFFF500
0EFFF64FFFF700
0BFFF00FFFF700
08FFE00EFFF600
07FFE00CFFF400
05FFF10CFFD000
03FFF21EFF9000
00EFF52FFF8000
00CFFC8FFF3000
00BFFFFFFD0000
002CFFFFF60000
0000A76E920000
00003349300000
ENDCHAR
STARTCHAR ohungarumlaut
ENCODING 337
SWIDTH 545 0
DWIDTH 13 0
BBX 13 29 0 -2
BITMAP
0002B2000A4000
0008FE303FDA50
000EFFD09FFF90
006FFF40EFFA00
00CFF505FFB000
03FF700BFC1000
0BF8002FC10000
0790001C200000
00000000000000
000169A8930000
005EFFFFFF8100
04FFFFFFFFF700
1DFFFFFFFFFF50
3FFFFFFFFFFF60
4FFFFFFFFFFF70
2FFFFFFFFFFF90
0FFFFFEFFFFF70
0DFFFC0CFFFF80
0BFFF608FFFF60
09FFF407FFFF30
07FFF404FFFE10
04FFF506FFFB00
01FFF608FFF600
00CFFA0CFFF200
008FFE5EFFD000
005FFFFFFF8000
0009BFFFFE1000
0000171FB90000
00000005060000
ENDCHAR
STARTCHAR OE
ENCODING 338
SWIDTH 789 0
DWIDTH 19 0
BBX 19 22 0 -4
BITMAP
00016987799AA9753100
005EFFFFFFFFFFFFFD10
04FFFFFFFFFFFFFFF700
0DFFFFFFFFFFFFFFE100
4FFFFFFFFFFFFFFFA000
4FFFFFFFFFFFFFFF5000
2FFFFFFFFFFFFFFF2000
1FFFFEEFFFFEEFFF0000
0EFFF65FFFF903790000
0CFFF00FFFF900000000
09FFD00EFFFEEE800000
07FFE00CFFFFFFA00000
06FFF10CFFFFFF900000
04FFF21EFFFA44300000
00EFF52FFFF711000000
00CFFB8FFFFEFFD10000
00BFFFFFFFFFFFD00000
002CFFFFF85FFBB00000
0000A86E944C80900000
0000544A514700600000
00003438104702500000
00000001002201100000
ENDCHAR
STARTCHAR oe
ENCODING 339
SWIDTH 778 0
DWIDTH 19 0
BBX 18 20 0 -2
BITMAP
000179A97688876410
005EFFFFFFFFFFFFF9
04FFFFFFFFFFFFFFF2
1DFFFFFFFFFFFFFF90
3FFFFFFFFFFFFFFF30
5FFFFFFFFFFFFFFE00
2FFFFFFFFFFFFFFD00
0EFFFFEFFFFFFFFB00
0BFFF91EFFFD8AE800
08FFF30CFFFB000200
05FFF20AFFFB441000
03FFF208FFFFFF4000
00FFF20AFFFFFF4000
00CFF30CFFFFFF2000
00AFF70FFFF2030000
008FFD7FFFF5532000
006FFFFFFFFEFFA000
0009CFFFFFFFFF6000
0000354FC65D9A6000
000000043200013000
ENDCHAR
STARTCHAR Racute
ENCODING 340
SWIDTH 599 0
DWIDTH 14 0
BBX 16 28 0 -2
BITMAP
0000000000001000
000000000003D600
00000000004EFA00
0000000006FFFF60
00000001AFFFFFB2
00000007FFEA5100
0000000383000000
0000000000000000
00247ABB98500000
4EFFFFFFFFFC3000
07FFFFFFFFFFE400
00AFFFFFFFFFFC00
003FFFFFFFFFFD00
000EFFFFFFFFFC00
000DFFFFFFFFFC00
000CFFFA8FFFFA00
000BFFF507FFF900
0008FFF407FFF700
0006FFF94CFFF300
0003FFFFFFFFC000
0000DFFFFFFF8000
0000BFFEDFFB0000
0000AFF75FFF2000
0000AFF72FFF4000
00007FF91FFF3000
00006FFA0EFF5000
0000398505DF8000
0000003101122000
ENDCHAR
STARTCHAR racute
ENCODING 341
SWIDTH 616 0
DWIDTH 15 0
BBX 16 28 0 -2
BITMAP
0000000000000100
000000000001BA00
00000000002CFE00
0000000003DFFF91
000000007EFFFFD5
00000003FFFB7200
0000000085000000
0000000000000000
00155AAA87400000
3EFFFFFFFFFE8100
08FFFFFFFFFFFD10
00AFFFFFFFFFFF50
002FFFFFFFFFFF40
000EFFFFFFFFFF20
000DFFFFFFFFFF00
000BFFFEAEFFFC00
0009FFF806FFF800
0008FFF705FFF600
0009FFFA2AFFF300
0005FFFFFFFFF100
0002FFFFFFFF9000
0002FFFFFFFB2000
0001FFF88FF90000
0001FFF66FFA0000
0000FFF85FFA0000
0000FFF65FFA0000
0000ED843EFB0000
00003000015B0000
ENDCHAR
STARTCHAR Rcommaaccent
ENCODING 342
SWIDTH 599 0
DWIDTH 14 0
BBX 14 32 0 -14
BITMAP
00247ABB985000
4EFFFFFFFFFC30
07FFFFFFFFFFE4
00AFFFFFFFFFFC
003FFFFFFFFFFD
000EFFFFFFFFFC
000DFFFFFFFFFC
000CFFFA8FFFFA
000BFFF507FFF9
0008FFF407FFF7
0006FFF94CFFF3
0003FFFFFFFFC0
0000DFFFFFFF80
0000BFFEDFFB00
0000AFF75FFF20
0000AFF72FFF40
00007FF91FFF30
00006FFA0EFF50
0000398505DF80
00000031011220
00000131010000
00000DFFEF9000
00000EFFFFA000
00000EFFFFB000
00000FFFFFB000
00001FFFFFB000
00000A9BEFB000
00000000CF9000
00000000FF7000
00000003FF4000
00000004FF2000
00000001320000
ENDCHAR
STARTCHAR rcommaaccent
ENCODING 343
SWIDTH 616 0
DWIDTH 15 0
BBX 15 33 0 -15
BITMAP
00155AAA87400000
3EFFFFFFFFFE8100
08FFFFFFFFFFFD10
00AFFFFFFFFFFF50
002FFFFFFFFFFF40
000EFFFFFFFFFF20
000DFFFFFFFFFF00
000BFFFEAEFFFC00
0009FFF806FFF800
0008FFF705FFF600
0009FFFA2AFFF300
0005FFFFFFFFF100
0002FFFFFFFF9000
0002FFFFFFFB2000
0001FFF88FF90000
0001FFF66FFA0000
0000FFF85FFA0000
0000FFF65FFA0000
0000ED843EFB0000
00003000015B0000
0000000000000000
0000013200000000
000008FFEEE00000
000009FFFFF00000
000009FFFFF10000
00000AFFFFF10000
00000BFFFFF10000
000007AADFF10000
000000007FE00000
00000000AFC00000
00000000DFA00000
00000000EF700000
0000000022100000
ENDCHAR
STARTCHAR Rcaron
ENCODING 344
SWIDTH 599 0
DWIDTH 14 0
BBX 14 30 0 -2
BITMAP
00005000000500
001BFA00007FA0
001EFF6002FFF6
0008FFD00BFFE1
0002FFF76FFF60
0000AFFEEFFD00
00003FFFFFF600
00000BFFFFD000
000005EDDF6000
00000000000000
00247ABB985000
4EFFFFFFFFFC30
07FFFFFFFFFFE4
00AFFFFFFFFFFC
003FFFFFFFFFFD
000EFFFFFFFFFC
000DFFFFFFFFFC
000CFFFA8FFFFA
000BFFF507FFF9
0008FFF407FFF7
0006FFF94CFFF3
0003FFFFFFFFC0
0000DFFFFFFF80
0000BFFEDFFB00
0000AFF75FFF20
0000AFF72FFF40
00007FF91FFF30
00006FFA0EFF50
0000398505DF80
00000031011220
ENDCHAR
STARTCHAR rcaron
ENCODING 345
SWIDTH 616 0
DWIDTH 15 0
BBX 15 30 0 -2
BITMAP
0000500000050000
002CF800008F9000
002FFF4004FFF400
000AFFC00DFFC000
0003FFF57FFF5000
0000BFFEFFFC0000
00005FFFFFF40000
00000DFFFFC00000
000006EDDF400000
0000000000000000
00155AAA87400000
3EFFFFFFFFFE8100
08FFFFFFFFFFFD10
00AFFFFFFFFFFF50
002FFFFFFFFFFF40
000EFFFFFFFFFF20
000DFFFFFFFFFF00
000BFFFEAEFFFC00
0009FFF806FFF800
0008FFF705FFF600
0009FFFA2AFFF300
0005FFFFFFFFF100
0002FFFFFFFF9000
0002FFFFFFFB2000
0001FFF88FF90000
0001FFF66FFA0000
0000FFF85FFA0000
0000FFF65FFA0000
0000ED843EFB0000
00003000015B0000
ENDCHAR
STARTCHAR Sacute
ENCODING 346
SWIDTH 504 0
DWIDTH 12 0
BBX 14 28 0 -2
BITMAP
00000000000100
00000000006E20
0000000008FF50
00000000AFFFD3
0000003CFFFFE9
000000CFFD8400
00000066200000
00000000000000
000026AA500000
002AFFFFFB2000
02EFFFFFFFD200
08FFFFFFFFF900
1EFFFFFFFFF700
3FFFFFFFFFF700
5FFFFFFFFFF600
6FFFFFEFFFF500
5FFFF72FFFF500
3FFFF907789500
0DFFFFDA400000
04FFFFFFF80000
003CEFFFFF5000
000027AFFFA000
04ABA51EFF9000
08FFF94FFF7000
02FFFFFFFD0000
008FFFFFF60000
000AC799A00000
00001021100000
ENDCHAR
STARTCHAR sacute
ENCODING 347
SWIDTH 481 0
DWIDTH 12 0
BBX 14 28 0 -2
BITMAP
00000000000100
00000000008D10
000000001AFF30
00000001CFFFC2
0000005DFFFFD7
000000FFFC7300
00000076100000
00000000000000
000179A8300000
003EFFFFF70000
02EFFFFFFF8000
0AFFFFFFFFF100
1FFFFFFFFFD000
4FFFFFFFFFC000
5FFFFFFFFFB000
5FFFFFFFFFA000
5FFFF49FFF8000
2FFFF42BBE7000
0CFFFDA6023000
08FFFFFF900000
008FFFFFF30000
00027BFFF80000
0035528FFA0000
05FFF46FF80000
01EFFDEFF30000
007FFFFFA00000
001DFFCD400000
00023000000000
ENDCHAR
STARTCHAR Scircumflex
ENCODING 348
SWIDTH 504 0
DWIDTH 12 0
BBX 13 30 0 -2
BITMAP
00000000100000
0000AEDEE10000
0002FFFFF80000
0009FFFFFE1000
001EFFDFFF9000
007FFC19FFF200
00DFD200BFF900
05FE20001DFE10
04D4000002D500
00000000000000
000026AA500000
002AFFFFFB2000
02EFFFFFFFD200
08FFFFFFFFF900
1EFFFFFFFFF700
3FFFFFFFFFF700
5FFFFFFFFFF600
6FFFFFEFFFF500
5FFFF72FFFF500
3FFFF907789500
0DFFFFDA400000
04FFFFFFF80000
003CEFFFFF5000
000027AFFFA000
04ABA51EFF9000
08FFF94FFF7000
02FFFFFFFD0000
008FFFFFF60000
000AC799A00000
00001021100000
ENDCHAR
STARTCHAR scircumflex
ENCODING 349
SWIDTH 481 0
DWIDTH 12 0
BBX 12 30 0 -2
BITMAP
000000001000
0001EEDFA000
0008FFFFF300
000EFFFFFA00
006FFFDFFF30
00CFF71DFFB0
04FFA003EFF3
0BFB00004FFA
08C1000006C1
000000000000
000179A83000
003EFFFFF700
02EFFFFFFF80
0AFFFFFFFFF1
1FFFFFFFFFD0
4FFFFFFFFFC0
5FFFFFFFFFB0
5FFFFFFFFFA0
5FFFF49FFF80
2FFFF42BBE70
0CFFFDA60230
08FFFFFF9000
008FFFFFF300
00027BFFF800
0035528FFA00
05FFF46FF800
01EFFDEFF300
007FFFFFA000
001DFFCD4000
000230000000
ENDCHAR
STARTCHAR Scedilla
ENCODING 350
SWIDTH 504 0
DWIDTH 12 0
BBX 12 26 0 -8
BITMAP
000026AA5000
002AFFFFFB20
02EFFFFFFFD2
08FFFFFFFFF9
1EFFFFFFFFF7
3FFFFFFFFFF7
5FFFFFFFFFF6
6FFFFFEFFFF5
5FFFF72FFFF5
3FFFF9077895
0DFFFFDA4000
04FFFFFFF800
003CEFFFFF50
000027AFFFA0
04ABA51EFF90
08FFF94FFF70
02FFFFFFFD00
008FFFFFF600
000AC8FFA000
000016F81000
00000AE10000
00000DFED500
0000057CF500
00000008F500
000008AEF400
00000BCDE300
ENDCHAR
STARTCHAR scedilla
ENCODING 351
SWIDTH 481 0
DWIDTH 12 0
BBX 12 26 0 -8
BITMAP
000179A83000
003EFFFFF700
02EFFFFFFF80
0AFFFFFFFFF1
1FFFFFFFFFD0
4FFFFFFFFFC0
5FFFFFFFFFB0
5FFFFFFFFFA0
5FFFF49FFF80
2FFFF42BBE70
0CFFFDA60230
08FFFFFF9000
008FFFFFF300
00027BFFF800
0035528FFA00
05FFF46FF800
01EFFDEFF300
007FFFFFA000
001DFFFD4000
00027F900000
00008F200000
0000BFED7000
000047BF8000
0000006F7000
00007ADF6000
00009CDE5000
ENDCHAR
STARTCHAR Scaron
ENCODING 352
SWIDTH 503 0
DWIDTH 12 0
BBX 12 33 0 -2
BITMAP
002000000300
07F900003F90
0EFF6000DFF7
07FFD007FFF2
01FFF72EFF90
009FFECFFF20
003FFFFFF900
000BFFFFF200
0004FFFF9000
000021131000
000000000000
000000000000
000000000000
000026AA5000
002BFFFFFB20
02EFFFFFFFD2
08FFFFFFFFF9
1EFFFFFFFFF7
4FFFFFFFFFF6
5FFFFFFFFFF6
6FFFFFEFFFF5
5FFFF72FFFF5
3FFFF90778A5
0DFFFFDA4000
04FFFFFFF700
003CEFFFFF50
000027AFFFA0
04ABA41EFF90
08FFF95FFF60
02FFFFFFFD00
008FFFFFF600
000AC799A000
000010211000
ENDCHAR
STARTCHAR scaron
ENCODING 353
SWIDTH 479 0
DWIDTH 12 0
BBX 12 32 0 -2
BITMAP
07E300005E30
5FFD1002EFE2
0DFF700AFFE1
07FFE14FFF70
01EFFADFFE10
009FFFFFF600
002FFFFFD000
000AFFFF6000
000254570000
000000000000
000000000000
000000000000
000179A83000
003EFFFFF700
02EFFFFFFF70
0AFFFFFFFFE1
1FFFFFFFFFD0
4FFFFFFFFFB0
5FFFFFFFFFA0
5FFFFFFFFF90
5FFFF49FFF80
2FFFF42BCE60
0DFFFD950230
08FFFFFF9000
008FFFFFF200
00027BFFF700
0035518FF900
05FFF37FF700
01EFFDEFF200
007FFFFF9000
001DFFCD3000
000230000000
ENDCHAR
STARTCHAR Tcommaaccent
ENCODING 354
SWIDTH 622 0
DWIDTH 15 0
BBX 15 28 0 -10
BITMAP
0035788888520000
1DFFFFFFFFFFEC10
05FFFFFFFFFFF900
01FFFFFFFFFFE100
00CFFFFFFFFFF200
009FFFFFFFFFF000
007FFFFFFFFFD000
007FFFFFFFFFB000
006ECBFFFD7C9000
001001FFFB001000
000000EFFC000000
000000FFFC000000
000001FFF9000000
000001FFFA000000
000000FFF7000000
000000DFF8000000
000000BFF9000000
000000CFF9000000
000000CFF9000000
000000DE96000000
0000005DF2000000
0000003FA0000000
0000007F40000000
000000AFED800000
00000047AF900000
000000005F800000
0000006ADF700000
0000008CDE600000
ENDCHAR
STARTCHAR tcommaaccent
ENCODING 355
SWIDTH 683 0
DWIDTH 16 0
BBX 16 28 0 -10
BITMAP
00358BBBBBBA8520
3DFFFFFFFFFFFFF5
0AFFFFFFFFFFFFD0
02FFFFFFFFFFFF50
00CFFFFFFFFFFF20
007FFFFFFFFFFF10
004FFFFFFFFFFF00
002FFFFFFFFFFE00
001FEABFFFB7BB00
0004006FFFB00100
0000004FFFC00000
0000004FFFD00000
0000003FFFC00000
0000002FFFC00000
0000000FFFA00000
0000000DFFB00000
0000000BFFA00000
0000000CFF900000
0000000BFF800000
0000000AFF900000
00000000EF600000
00000003FA100000
00000007F4000000
0000000AFED80000
000000047AF90000
0000000005F80000
00000006ADF70000
00000008CDE60000
ENDCHAR
STARTCHAR Tcaron
ENCODING 356
SWIDTH 622 0
DWIDTH 15 0
BBX 15 31 0 -3
BITMAP
0003300000330000
006FE20002EE3000
009FFC000AFFC000
002FFF505FFF5000
000AFFD1DFFD0000
0003FFFDFFF50000
0000CFFFFFC00000
00005FFFFF500000
00000DDCEC000000
0000000000000000
0035788888520000
1DFFFFFFFFFFEC10
05FFFFFFFFFFF900
01FFFFFFFFFFE100
00CFFFFFFFFFF200
009FFFFFFFFFF000
007FFFFFFFFFD000
007FFFFFFFFFB000
006ECBFFFD7C9000
001001FFFB001000
000000EFFC000000
000000FFFC000000
000001FFF9000000
000001FFFA000000
000000FFF7000000
000000DFF8000000
000000BFF9000000
000000CFF9000000
000000CFF9000000
000000DE96000000
0000005021000000
ENDCHAR
STARTCHAR tcaron
ENCODING 357
SWIDTH 622 0
DWIDTH 15 0
BBX 15 31 0 -3
BITMAP
0000500000050000
002BF900007FA000
001EFF5003FFF500
0009FFC00CFFD000
0002FFF66FFF6000
0000AFFEEFFD0000
00004FFFFFF50000
00000CFFFFC00000
000005EDDF500000
0000000000000000
0035788888520000
1DFFFFFFFFFFEC10
05FFFFFFFFFFF900
01FFFFFFFFFFE100
00CFFFFFFFFFF200
009FFFFFFFFFF000
007FFFFFFFFFD000
007FFFFFFFFFB000
006ECBFFFD7C9000
001001FFFB001000
000000EFFC000000
000000FFFC000000
000001FFF9000000
000001FFFA000000
000000FFF7000000
000000DFF8000000
000000BFF9000000
000000CFF9000000
000000CFF9000000
000000DE96000000
0000005021000000
ENDCHAR
STARTCHAR Utilde
ENCODING 360
SWIDTH 637 0
DWIDTH 15 0
BBX 15 27 0 -2
BITMAP
0000100006100000
002CC102BFF50000
01EFFB9FFFFF3000
00AFFFFFFFFFB000
001CFFFEADFD2000
00018C8101710000
0000000000000000
257ABB9017642000
2AFFFFA01FFFFD50
02FFFFB03FFFFB00
01FFFF903FFFF600
00EFFFA03FFFF300
00BFFFD04FFFE000
009FFFD04FFFB000
007FFFD05FFF8000
005FFFB05FFF4000
003FFF806FFF2000
002FFF708FFF1000
003FFF908FFF0000
002FFFB0AFFC0000
001FFFD0BFFB0000
000BFFF2EFF80000
0009FFFFFFF60000
0005FFEEFFE10000
00019E9589400000
0000181217000000
0000000012000000
ENDCHAR
STARTCHAR utilde
ENCODING 361
SWIDTH 708 0
DWIDTH 17 0
BBX 17 26 0 -1
BITMAP
000010000161000000
0003DB003CFE400000
003FFFAAFFFFE20000
000BFFFFFFFFF90000
0001DFFFEAEFC10000
000029C71017000000
000000000000000000
01358AA70055200000
2BFFFFF900CFFED720
01FFFFF800EFFFFF80
00DFFFF901EFFFF900
009FFFFA00DFFFF500
006FFFFC00DFFFD000
003FFFFD00DFFF8000
001FFFFE00EFFF4000
000DFFFD00FFFF1000
000BFFFA01FFFE0000
0009FFFA04FFFD0000
0008FFFB03FFFC0000
0007FFFE04FFFA0000
0003FFFF17FFF70000
0000BFFF3AFFF40000
00008FFFFFFFF20000
00005FFFDFFFB00000
000014DA0ACA400000
000000010010000000
ENDCHAR
STARTCHAR Umacron
ENCODING 362
SWIDTH 637 0
DWIDTH 15 0
BBX 15 24 0 -2
BITMAP
0005DDCBCBC90000
0006FFFFFFFA0000
0004BFFDEDD90000
0000000000100000
257ABB9017642000
2AFFFFA01FFFFD50
02FFFFB03FFFFB00
01FFFF903FFFF600
00EFFFA03FFFF300
00BFFFD04FFFE000
009FFFD04FFFB000
007FFFD05FFF8000
005FFFB05FFF4000
003FFF806FFF2000
002FFF708FFF1000
003FFF908FFF0000
002FFFB0AFFC0000
001FFFD0BFFB0000
000BFFF2EFF80000
0009FFFFFFF60000
0005FFEEFFE10000
00019E9589400000
0000181217000000
0000000012000000
ENDCHAR
STARTCHAR umacron
ENCODING 363
SWIDTH 708 0
DWIDTH 17 0
BBX 17 23 0 -1
BITMAP
00007DDCBCBD700000
00008FFFFFFF700000
00006BFFDEDE600000
000000000001000000
01358AA70055200000
2BFFFFF900CFFED720
01FFFFF800EFFFFF80
00DFFFF901EFFFF900
009FFFFA00DFFFF500
006FFFFC00DFFFD000
003FFFFD00DFFF8000
001FFFFE00EFFF4000
000DFFFD00FFFF1000
000BFFFA01FFFE0000
0009FFFA04FFFD0000
0008FFFB03FFFC0000
0007FFFE04FFFA0000
0003FFFF17FFF70000
0000BFFF3AFFF40000
00008FFFFFFFF20000
00005FFFDFFFB00000
000014DA0ACA400000
000000010010000000
ENDCHAR
STARTCHAR Ubreve
ENCODING 364
SWIDTH 637 0
DWIDTH 15 0
BBX 15 28 0 -2
BITMAP
0003FFB000875000
0000DFD002FFD000
0000AFF83AFF9000
00007FFFFFFF4000
000019CFFFFB0000
000000364FB50000
0000000005230000
0000000000000000
257ABB9017642000
2AFFFFA01FFFFD50
02FFFFB03FFFFB00
01FFFF903FFFF600
00EFFFA03FFFF300
00BFFFD04FFFE000
009FFFD04FFFB000
007FFFD05FFF8000
005FFFB05FFF4000
003FFF806FFF2000
002FFF708FFF1000
003FFF908FFF0000
002FFFB0AFFC0000
001FFFD0BFFB0000
000BFFF2EFF80000
0009FFFFFFF60000
0005FFEEFFE10000
00019E9589400000
0000181217000000
0000000012000000
ENDCHAR
STARTCHAR ubreve
ENCODING 365
SWIDTH 708 0
DWIDTH 17 0
BBX 17 27 0 -1
BITMAP
00003FFB0008750000
00000EFC002FFD0000
00000AFF83AFF80000
000007FFFFFFF30000
0000019CFFFFA00000
0000000364FB500000
000000000153300000
000000000000000000
01358AA70055200000
2BFFFFF900CFFED720
01FFFFF800EFFFFF80
00DFFFF901EFFFF900
009FFFFA00DFFFF500
006FFFFC00DFFFD000
003FFFFD00DFFF8000
001FFFFE00EFFF4000
000DFFFD00FFFF1000
000BFFFA01FFFE0000
0009FFFA04FFFD0000
0008FFFB03FFFC0000
0007FFFE04FFFA0000
0003FFFF17FFF70000
0000BFFF3AFFF40000
00008FFFFFFFF20000
00005FFFDFFFB00000
000014DA0ACA400000
000000010010000000
ENDCHAR
STARTCHAR Uring
ENCODING 366
SWIDTH 637 0
DWIDTH 15 0
BBX 15 28 0 -2
BITMAP
0000017BA6000000
00000CFFFF800000
00003FC57EF20000
00002F9009F20000
00000DC11CA00000
00000AFFEF300000
0000036DE6000000
0000000010000000
257ABB9017642000
2AFFFFA01FFFFD50
02FFFFB03FFFFB00
01FFFF903FFFF600
00EFFFA03FFFF300
00BFFFD04FFFE000
009FFFD04FFFB000
007FFFD05FFF8000
005FFFB05FFF4000
003FFF806FFF2000
002FFF708FFF1000
003FFF908FFF0000
002FFFB0AFFC0000
001FFFD0BFFB0000
000BFFF2EFF80000
0009FFFFFFF60000
0005FFEEFFE10000
00019E9589400000
0000181217000000
0000000012000000
ENDCHAR
STARTCHAR uring
ENCODING 367
SWIDTH 708 0
DWIDTH 17 0
BBX 17 27 0 -1
BITMAP
00000006AA70000000
000000AFFFFA000000
000001FE56EF400000
000000EB007F400000
000000BD20AC000000
0000008FFEF5000000
00000025DF80000000
000000000100000000
01358AA70055200000
2BFFFFF900CFFED720
01FFFFF800EFFFFF80
00DFFFF901EFFFF900
009FFFFA00DFFFF500
006FFFFC00DFFFD000
003FFFFD00DFFF8000
001FFFFE00EFFF4000
000DFFFD00FFFF1000
000BFFFA01FFFE0000
0009FFFA04FFFD0000
0008FFFB03FFFC0000
0007FFFE04FFFA0000
0003FFFF17FFF70000
0000BFFF3AFFF40000
00008FFFFFFFF20000
00005FFFDFFFB00000
000014DA0ACA400000
000000010010000000
ENDCHAR
STARTCHAR Uhungarumlaut
ENCODING 368
SWIDTH 637 0
DWIDTH 15 0
BBX 15 29 0 -2
BITMAP
00000A5000770000
00003FF700DFA710
00009FFF43FFFD20
0001EFF909FFE200
0006FFA00EFE3000
000DFC005FE30000
005FC100BF400000
003C200097000000
0000000000000000
257ABB9017642000
2AFFFFA01FFFFD50
02FFFFB03FFFFB00
01FFFF903FFFF600
00EFFFA03FFFF300
00BFFFD04FFFE000
009FFFD04FFFB000
007FFFD05FFF8000
005FFFB05FFF4000
003FFF806FFF2000
002FFF708FFF1000
003FFF908FFF0000
002FFFB0AFFC0000
001FFFD0BFFB0000
000BFFF2EFF80000
0009FFFFFFF60000
0005FFEEFFE10000
00019E9589400000
0000181217000000
0000000012000000
ENDCHAR
STARTCHAR uhungarumlaut
ENCODING 369
SWIDTH 708 0
DWIDTH 17 0
BBX 17 28 0 -1
BITMAP
000000B30008600000
000005FF501EEA6100
00000BFFF26FFFC100
00002FFF60BFFC1000
00009FF802FFD10000
0001EFA008FE200000
0008FB000EE2000000
0004C1000B40000000
000000000000000000
01358AA70055200000
2BFFFFF900CFFED720
01FFFFF800EFFFFF80
00DFFFF901EFFFF900
009FFFFA00DFFFF500
006FFFFC00DFFFD000
003FFFFD00DFFF8000
001FFFFE00EFFF4000
000DFFFD00FFFF1000
000BFFFA01FFFE0000
0009FFFA04FFFD0000
0008FFFB03FFFC0000
0007FFFE04FFFA0000
0003FFFF17FFF70000
0000BFFF3AFFF40000
00008FFFFFFFF20000
00005FFFDFFFB00000
000014DA0ACA400000
000000010010000000
ENDCHAR
STARTCHAR Uogonek
ENCODING 370
SWIDTH 637 0
DWIDTH 15 0
BBX 15 26 0 -8
BITMAP
257ABB9017642000
2AFFFFA01FFFFD50
02FFFFB03FFFFB00
01FFFF903FFFF600
00EFFFA03FFFF300
00BFFFD04FFFE000
009FFFD04FFFB000
007FFFD05FFF8000
005FFFB05FFF4000
003FFF806FFF2000
002FFF708FFF1000
003FFF908FFF0000
002FFFB0AFFC0000
001FFFD0BFFB0000
000BFFF2EFF80000
0009FFFFFFF60000
0005FFEFFFE10000
00019E9EFF400000
0000181FFF000000
0000000FF8000000
0000001FF7000000
0000000FFD200000
0000000CFFFEE200
00000004FFFFF100
000000004CFFF000
0000000000121000
ENDCHAR
STARTCHAR uogonek
ENCODING 371
SWIDTH 662 0
DWIDTH 16 0
BBX 17 26 0 -8
BITMAP
01369AA60055200000
3CFFFFF800DFFED720
02FFFFF701EFFFFF70
00EFFFF702FFFFF700
00BFFFF900EFFFF300
007FFFFB00EFFFC000
004FFFFC00FFFF7000
002FFFFC00FFFF3000
000EFFFC01FFFF0000
000CFFF902FFFD0000
000BFFF806FFFC0000
000AFFF905FFFB0000
0008FFFD06FFF90000
0004FFFF09FFF50000
0000CFFF2BFFF30000
00009FFFFFFFE10000
00006FFFFFFFA00000
000014DFFFCA300000
0000003FF210000000
0000006FF000000000
0000007FF100000000
0000006FF900000000
0000002FFFEDB00000
0000000AFFFFB00000
000000008EFF900000
000000000012000000
ENDCHAR
STARTCHAR Wcircumflex
ENCODING 372
SWIDTH 777 0
DWIDTH 19 0
BBX 19 30 0 -1
BITMAP
00000000001000000000
0000004FDDF700000000
000000AFFFFE10000000
000002FFFFFF80000000
000009FFEDFFE1000000
00001EFF53EFF8000000
00007FF7005FFE100000
0000DF800007FF700000
0001AA0000008A000000
00000000000000000000
00000000121000000000
000045308F902A962000
16AEFF90BFC02FFFFB40
5CFFFF91FFF08FFFE400
009FFFB3FFF3AFFF5000
001DFFE6FFF7FFFA0000
0007FFF8FFFEFFF20000
0005FFFDFFFFFFB00000
0003FFFFFFFFFF500000
00009FFFFFFFFF100000
00002FFFFFFFFD000000
00000CFFFFFFFD000000
000008FFFFFFF9000000
000005FFFBFFF6000000
000002FFF7FFF4000000
000000EFE4FFD1000000
0000009FC2FF80000000
0000005FA1FF40000000
00000017A3AE20000000
00000000200100000000
ENDCHAR
STARTCHAR wcircumflex
ENCODING 373
SWIDTH 704 0
DWIDTH 17 0
BBX 17 28 0 0
BITMAP
000000000010000000
000000DEDFC0000000
000005FFFFF5000000
00000CFFFFFD000000
00004FFFDFFF500000
0000AFFA0CFFD00000
0002FFC001DFF60000
0008FD10003EFC0000
0006D2000004D30000
000000000000000000
00025403B604420000
4CFFFD06FB05FFEB60
07FFFF19FE16FFFA10
007FFF3AFF49FFF300
003EFF5EFF8CFFC000
000BFF9FFFDFFF5000
0009FFDFFFFFFE0000
0005FFFFFFFFF90000
0000DFFFFFFFF50000
00006FFFFFFFF40000
00002FFFFFFFF30000
00000EFFFFFFE00000
00000AFFFCFFE00000
000006FFD9FFE00000
000002FFC7FFB00000
000000DFB6FF700000
0000008F83FF600000
0000003733CD500000
ENDCHAR
STARTCHAR Ycircumflex
ENCODING 374
SWIDTH 688 0
DWIDTH 17 0
BBX 17 30 0 -1
BITMAP
000000000010000000
000002EEDFA0000000
000008FFFFF2000000
00001EFFFFFA000000
00006FFFDFFF300000
0000DFF71DFFA00000
0005FF9003EFF30000
000BFB00005FF90000
0008C1000006C10000
000000000000000000
000000000000000000
03589A900087300000
3AFFFFF500DFFED630
004DFFFD01FFFFF940
0001DFFF68FFFF7000
00004EFFDEFFF70000
000005FFFFFFB00000
000000DFFFFF300000
0000007FFFFF100000
0000003FFFFE000000
0000000BFFFC000000
00000005FFFB000000
00000001FFFA000000
00000000DFF9000000
00000000BFF8000000
00000000AFF7000000
000000008FF6000000
000000007FF5000000
000000006FF4000000
000000004B71000000
ENDCHAR
STARTCHAR ycircumflex
ENCODING 375
SWIDTH 604 0
DWIDTH 15 0
BBX 14 31 0 -2
BITMAP
00000000100000
00004FDDF70000
0000BFFFFE1000
0003FFFFFF7000
0009FFEEFFE100
001FFF43FFF700
008FF6005FFE10
00EF800008FF60
01AA0000009A00
00000000000000
00000000000000
03579700193000
1AFFFF506FFEC6
007FFFC09FFFD1
0004FFF3FFFD10
0000EFFCFFF300
00003FFFFF8000
00000EFFFF3000
00000BFFFF1000
000008FFFF0000
000004FFFD0000
000001FFFC0000
000000DFFB0000
000000AFF90000
000000AFF80000
000000AFF90000
000000BFF80000
000000BFF60000
000000BFF20000
0000009EC20000
00000031000000
ENDCHAR
STARTCHAR Ydieresis
ENCODING 376
SWIDTH 688 0
DWIDTH 17 0
BBX 17 27 0 -1
BITMAP
000000000000100000
002BC9A306BEFE4000
004FFFF608FFFF5000
004FFFF608FFFF4000
004FFFF608FFFF7000
004FFFF508FFFF6000
002AACB304A9783000
000000000000000000
03589A900087300000
3AFFFFF500DFFED630
004DFFFD01FFFFF940
0001DFFF68FFFF7000
00004EFFDEFFF70000
000005FFFFFFB00000
000000DFFFFF300000
0000007FFFFF100000
0000003FFFFE000000
0000000BFFFC000000
00000005FFFB000000
00000001FFFA000000
00000000DFF9000000
00000000BFF8000000
00000000AFF7000000
000000008FF6000000
000000007FF5000000
000000006FF4000000
000000004B71000000
ENDCHAR
STARTCHAR Zacute
ENCODING 377
SWIDTH 695 0
DWIDTH 17 0
BBX 17 27 0 -1
BITMAP
000000000000001000
00000000000005E200
0000000000007FF600
00000000000AFFFD30
0000000003CFFFFEA0
000000000BFFD84000
000000000572000000
000000000000000000
0036ABBABB97310000
1EFFFFFFFFFFFFC830
0BFFFFFFFFFFFFFB00
04FFFFFFFFFFFFF300
00BFFFFFFFFFFFA000
006FFFFFFFFFFF3000
002FFFFFFFFFFB0000
000FFFFFFFFFF40000
000DE728FFFF800000
0006101EFFF5000000
0000009FFF70000000
000000DFFB00000000
000003FFF200000000
000008FF8000000000
00001DFF6420000000
00008FFFFFF7000000
0000DFFFFFE1000000
0000DECFFFC0000000
000013124920000000
ENDCHAR
STARTCHAR zacute
ENCODING 378
SWIDTH 622 0
DWIDTH 15 0
BBX 16 28 0 -2
BITMAP
0000000000000100
000000000000AB00
00000000001BFF10
0000000002DFFFB1
000000006EFFFFD6
00000001FFFB7200
0000000085100000
0000000000000000
0049BBABBB963100
1FFFFFFFFFFFFE00
0AFFFFFFFFFFFB00
03FFFFFFFFFFF300
00AFFFFFFFFFB000
004FFFFFFFFF8000
000FFFFFFFFF6000
000DFFFFFFFE1000
000AE84DFFF50000
0005204FFF600000
000000BFFB000000
000000DFF3000000
000004FFC0000000
000006FF50000000
00000CFD21000000
00001FFFFFE10000
00007FFFFFC00000
00008FFFFFC00000
0000291879900000
0000000000300000
ENDCHAR
STARTCHAR Zdotaccent
ENCODING 379
SWIDTH 695 0
DWIDTH 17 0
BBX 17 28 0 -1
BITMAP
00000488CDC7000000
000007FFFFFC000000
000005FFFFFB000000
000003FFFFFC000000
000002FFFFFD000000
000001FFFFFC000000
000000FFFFFB000000
000000863132000000
000000000000000000
0036ABBABB97310000
1EFFFFFFFFFFFFC830
0BFFFFFFFFFFFFFB00
04FFFFFFFFFFFFF300
00BFFFFFFFFFFFA000
006FFFFFFFFFFF3000
002FFFFFFFFFFB0000
000FFFFFFFFFF40000
000DE728FFFF800000
0006101EFFF5000000
0000009FFF70000000
000000DFFB00000000
000003FFF200000000
000008FF8000000000
00001DFF6420000000
00008FFFFFF7000000
0000DFFFFFE1000000
0000DECFFFC0000000
000013124920000000
ENDCHAR
STARTCHAR zdotaccent
ENCODING 380
SWIDTH 622 0
DWIDTH 15 0
BBX 14 29 0 -2
BITMAP
0001689CDB4000
0000CFFFFF6000
0000AFFFFF5000
00009FFFFF7000
00007FFFFF8000
00006FFFFF7000
00005FFFFF6000
00003752231000
00000000000000
0049BBABBB9631
1FFFFFFFFFFFFE
0AFFFFFFFFFFFB
03FFFFFFFFFFF3
00AFFFFFFFFFB0
004FFFFFFFFF80
000FFFFFFFFF60
000DFFFFFFFE10
000AE84DFFF500
0005204FFF6000
000000BFFB0000
000000DFF30000
000004FFC00000
000006FF500000
00000CFD210000
00001FFFFFE100
00007FFFFFC000
00008FFFFFC000
00002918799000
00000000003000
ENDCHAR
STARTCHAR Zcaron
ENCODING 381
SWIDTH 693 0
DWIDTH 17 0
BBX 17 32 0 -1
BITMAP
000002000001100000
0001BE20000BD10000
0003FFC0006FFA0000
0000CFF601EFF60000
00006FFD1AFFD00000
00001EFFBFFF700000
000009FFFFFE100000
000003FFFFF7000000
000000CFFFE1000000
000000110220000000
000000000000000000
000000000000000000
000000000000000000
0036ABBABB97310000
1EFFFFFFFFFFFFC830
0CFFFFFFFFFFFFFB00
04FFFFFFFFFFFFF300
00CFFFFFFFFFFFA000
006FFFFFFFFFFF3000
002FFFFFFFFFFB0000
000FFFFFFFFFF30000
000DD729FFFF800000
0006101EFFF5000000
0000009FFF70000000
000000DFFB00000000
000003FFF200000000
000008FF8000000000
00001DFF6420000000
00008FFFFFF7000000
0000EFFFFFE1000000
0000DDDFFFC0000000
000013124920000000
ENDCHAR
STARTCHAR zcaron
ENCODING 382
SWIDTH 621 0
DWIDTH 15 0
BBX 14 33 0 -2
BITMAP
00013000003100
004EE20001EC10
007FFB000AFFA0
001FFF404FFF40
0009FFC1DFFC00
0003FFFDFFF500
0000CFFFFFC000
00005FFFFF5000
00000EFEFC0000
00000100110000
00000000000000
00000000000000
00000000000000
0049BBABBB8631
1FFFFFFFFFFFFD
0AFFFFFFFFFFFA
03FFFFFFFFFFF3
00AFFFFFFFFFB0
004FFFFFFFFF70
001FFFFFFFFF60
000DFFFFFFFE10
000BE84DFFF500
0005204FFF5000
000000BFFB0000
000000DFF30000
000004FFC00000
000007FF500000
00000CFD210000
00002FFFFFE100
00007FFFFFC000
00008FFFFFB000
000029187A9000
00000000013000
ENDCHAR
STARTCHAR DZ
ENCODING 497
SWIDTH 194 0
DWIDTH 5 0
BBX 1 1 0 0
BITMAP
00
ENDCHAR
STARTCHAR Dz
ENCODING 498
SWIDTH 194 0
DWIDTH 5 0
BBX 1 1 0 0
BITMAP
00
ENDCHAR
STARTCHAR dotlessj
ENCODING 567
SWIDTH 458 0
DWIDTH 11 0
BBX 12 19 -1 -1
BITMAP
00009BB96200
0000AFFFFFC2
00003FFFFF90
00000EFFFF70
00000BFFFF20
000008FFFD00
000008FFFE00
000008FFFD00
000008FFFC00
000008FFFB00
000004FFFA00
000205FFF700
28AD05FFF600
6FFF14FFF600
1EFF65FFF300
0DFFDDFFF100
07FFFFFFA000
00ADFFFF7000
000034A45000
ENDCHAR
STARTCHAR circumflex
ENCODING 710
SWIDTH 528 0
DWIDTH 13 0
BBX 11 9 1 17
BITMAP
000000010000
002EEDFA0000
008FFFFF2000
01EFFFFFA000
06FFFDFFF300
0DFF71DFFA00
5FF9003EFF30
BFB00005FF90
8C1000006C10
ENDCHAR
STARTCHAR caron
ENCODING 711
SWIDTH 486 0
DWIDTH 12 0
BBX 12 9 0 17
BITMAP
015000001500
3DF60000BF70
4FFF2006FFF2
0CFF901EFFA0
06FFF3AFFF20
00EFFDFFFA00
007FFFFFF200
001EFFFF9000
0009ECDF2000
ENDCHAR
STARTCHAR breve
ENCODING 728
SWIDTH 464 0
DWIDTH 11 0
BBX 10 7 1 -2
BITMAP
EFE0006761
BFF100EFF1
7FFA37FFC0
4FFFFFFF60
08BFFFFD10
00181FB800
0000050600
ENDCHAR
STARTCHAR dotaccent
ENCODING 729
SWIDTH 388 0
DWIDTH 9 0
BBX 7 8 1 5
BITMAP
589CDC70
7FFFFFB0
5FFFFFA0
4FFFFFC0
2FFFFFD0
1FFFFFC0
0FFFFFB0
08631320
ENDCHAR
STARTCHAR ring
ENCODING 730
SWIDTH 370 0
DWIDTH 9 0
BBX 7 8 1 6
BITMAP
04AB9200
5FFFFD20
BF75CF90
AF102F90
6F505F30
3FFEFA00
05AFA200
00010000
ENDCHAR
STARTCHAR ogonek
ENCODING 731
SWIDTH 360 0
DWIDTH 9 0
BBX 7 10 1 -1
BITMAP
03310000
3FF30000
6FE00000
9FC00000
BFD00000
9FF60000
6FFFED80
1DFFFF70
01AEFF60
00002100
ENDCHAR
STARTCHAR tilde
ENCODING 732
SWIDTH 535 0
DWIDTH 13 0
BBX 11 6 1 -2
BITMAP
001000052000
2BD201AEF700
DFFC8FFFFF40
8FFFFFFFFFD0
0BFFFFACFE30
018C92007200
ENDCHAR
STARTCHAR hungarumlaut
ENCODING 733
SWIDTH 554 0
DWIDTH 13 0
BBX 12 8 1 17
BITMAP
00491001B300
00BFC205FC94
02FFFB0BFFF7
08FFE22FFF80
0EFE307FF900
6FF400DFA000
DF6004FB0000
970003C10000
ENDCHAR
STARTCHAR dotaccentcmb
ENCODING 775
SWIDTH 396 0
DWIDTH 10 0
BBX 7 8 1 9
BITMAP
02367730
8FFFFFD0
5FFFFFC0
3FFFFFC0
2FFFFFE0
0FFFFFD0
0FFFFFD0
0DC97970
ENDCHAR
STARTCHAR uni030F
ENCODING 783
SWIDTH 549 0
DWIDTH 13 0
BBX 13 8 0 17
BITMAP
001A3000770000
38BF901AFD0000
4FFFE07FFF5000
05FFF51CFFB000
006FFB01DFF200
0007FF102EF900
00008F7003EF20
00000A50004C10
ENDCHAR
STARTCHAR uni0311
ENCODING 785
SWIDTH 490 0
DWIDTH 12 0
BBX 10 7 1 8
BITMAP
016BDCB200
08FFFFFF20
1EFFFFFF90
3FFD55FFF1
6FF500AFF4
BFF3005BC5
1110000000
ENDCHAR
STARTCHAR uni0326
ENCODING 806
SWIDTH 360 0
DWIDTH 9 0
BBX 7 12 1 -3
BITMAP
12300100
4FFFEF30
5FFFFF40
5FFFFF50
6FFFFF50
7FFFFF50
4B9CFF50
0003FF30
0006FF10
0009FD00
000AFB00
00022100
ENDCHAR
STARTCHAR endash
ENCODING 8211
SWIDTH 478 0
DWIDTH 11 0
BBX 10 6 1 6
BITMAP
5887776771
9FFFFFFFE0
9FFFFFFFA0
AFFFFFFF80
7BFFCEDE80
0000000100
ENDCHAR
STARTCHAR emdash
ENCODING 8212
SWIDTH 567 0
DWIDTH 14 0
BBX 12 6 1 6
BITMAP
588756787772
9FFFFFFFFFF1
9FFFFFFFFFB0
AFFFFFFFFFA0
7BFFB9EEDDA0
000000110100
ENDCHAR
STARTCHAR quoteleft
ENCODING 8216
SWIDTH 373 0
DWIDTH 9 0
BBX 7 13 1 5
BITMAP
08940000
0FF60000
3FF40000
5FF10000
7FE20000
8FFFEF90
8FFFFFA0
9FFFFFA0
AFFFFF90
9FFFFF90
8FFFFF80
6DBDFF70
00000100
ENDCHAR
STARTCHAR quoteright
ENCODING 8217
SWIDTH 369 0
DWIDTH 9 0
BBX 7 13 1 5
BITMAP
59865610
BFFFFF40
CFFFFF50
CFFFFF60
DFFFFF60
DFFFFF60
EFFFFF50
667AFF50
0004FF30
0006FF00
0009FD00
000AFB00
00011000
ENDCHAR
STARTCHAR quotesinglbase
ENCODING 8218
SWIDTH 369 0
DWIDTH 9 0
BBX 7 13 1 5
BITMAP
59865610
BFFFFF40
CFFFFF50
CFFFFF60
DFFFFF60
DFFFFF60
EFFFFF50
667AFF50
0004FF30
0006FF00
0009FD00
000AFB00
00011000
ENDCHAR
STARTCHAR quotedblleft
ENCODING 8220
SWIDTH 687 0
DWIDTH 16 0
BBX 15 13 1 5
BITMAP
0894000039900000
0FF600007FE00000
3FF40000AFC00000
5FF10000CFA00000
7FE20000EF810100
8FFFEF90FFFFEF30
8FFFFFA0FFFFFF30
8FFFFFA0FFFFFF30
9FFFFF91FFFFFF20
9FFFFF91FFFFFF20
8FFFFF80FFFFFF10
6DBDFF70CCCEFE10
0000010000001000
ENDCHAR
STARTCHAR quotedblright
ENCODING 8221
SWIDTH 677 0
DWIDTH 16 0
BBX 14 13 1 5
BITMAP
69888700797563
BFFFFE00FFFFFA
CFFFFF01FFFFFB
CFFFFF01FFFFFC
DFFFFF02FFFFFC
DFFFFF02FFFFFB
EFFFFF03FFFFFB
788AFE00768DFB
0005FC00000DF9
0007FA00000FF6
000AF800003FF4
000BF600004FF2
00011000000110
ENDCHAR
STARTCHAR quotedblbase
ENCODING 8222
SWIDTH 697 0
DWIDTH 17 0
BBX 15 13 1 -8
BITMAP
3653241026532410
AFFFFF409FFFFF60
BFFFFF50AFFFFF70
CFFFFF60AFFFFF80
CFFFFF60BFFFFF80
DFFFFF60BFFFFF70
DFFFFF50CFFFFF70
899CFF50799CFF70
0003FF300001FF50
0005FF100004FF30
0008FE000007FF10
0009FC000008FD00
0002420000024300
ENDCHAR
STARTCHAR ellipsis
ENCODING 8230
SWIDTH 1462 0
DWIDTH 35 0
BBX 33 8 1 1
BITMAP
0236751000000023675100000002257630
BFFFFF40000006FFFFF60000004FFFFFC0
7FFFFF40000002FFFFF60000000FFFFFC0
5FFFFF30000001FFFFF50000000EFFFFB0
4FFFFF50000000EFFFF70000000CFFFFE0
3FFFFF50000000DFFFF70000000BFFFFD0
2FFFFF40000000DFFFF60000000AFFFFC0
2EC87920000000CC979300000009CA7960
ENDCHAR
STARTCHAR guilsinglleft
ENCODING 8249
SWIDTH 459 0
DWIDTH 11 0
BBX 11 14 0 1
BITMAP
0002BAAA9920
0004FFFFFA00
0009FFFFA100
002FFFFE1000
02DFFFF50000
1DFFFF900000
3FFFFF100000
0BFFFF800000
04FFFFD00000
006FFFF70000
0009FFFF6000
0000BFFFF600
00001BFFFF40
000000115200
ENDCHAR
STARTCHAR guilsinglright
ENCODING 8250
SWIDTH 432 0
DWIDTH 10 0
BBX 10 14 0 1
BITMAP
2BBBBC6000
0AFFFFB000
01DFFFE100
002FFFFB00
0008FFFF70
0001CFFFF4
00004FFFF9
0000CFFFF2
0002EFFFC1
001CFFFC00
01CFFFF400
0DFFFFA000
0EFFEC1000
0010000000
ENDCHAR
STARTCHAR fraction
ENCODING 8260
SWIDTH 371 0
DWIDTH 9 0
BBX 10 19 -1 -1
BITMAP
157AC9B964
05FFFFFFF5
009FFFFFE1
000CFFFF70
0007FFFF60
0008FFFF30
0009FFFF00
0009FFFC00
0009FFFA00
0008FFF900
0006FFFA00
0003FFFB00
0001FFF800
0000DFF600
0000CFF500
0000BFF400
0000AFF300
00009AF300
0000109300
ENDCHAR
STARTCHAR Euro
ENCODING 8364
SWIDTH 587 0
DWIDTH 14 0
BBX 13 23 0 -5
BITMAP
0000069BCB3000
00008FFFFFF800
000AFFFFFFFF50
002FFFFFFFFFE0
006FFFFFFFFFF0
007FFFFFFFFFF0
006FFFFFFFFFF0
004FFFFFFFFFD0
002FFFF67FFFD0
122FFFE51FFFD0
9FFFFFFC099960
134DFFD0000000
388DFFE8100000
5BBEFFFD2C9510
0005FFF15FFE10
0002FFF6BFFC00
0000CFFFFFF700
00008FFFFFB100
000003C8AD1000
00000072530000
00000095310000
00000066100000
00000005300000
ENDCHAR
STARTCHAR trademark
ENCODING 8482
SWIDTH 785 0
DWIDTH 19 0
BBX 19 14 0 5
BITMAP
00000000000020110000
5ABCCC9719CFC0EFC920
4FFFFFFD07FFF3FFF700
0EFFFFFA02FFFBFFF400
0CFFFFF901FFFFFFF200
0BFFFFF700DFFFFFF100
0449FB2300CFFFFFF100
0007FC0000AFDFDFF000
0008FB00008FAF9FE000
0008FA00005FAF7FC000
0006FA00004F7E5FA000
0005FA00002A36458000
0006E700000100001000
00020000000000000000
ENDCHAR
STARTCHAR minus
ENCODING 8722
SWIDTH 478 0
DWIDTH 11 0
BBX 10 6 1 6
BITMAP
5887776771
9FFFFFFFE0
9FFFFFFF90
AFFFFFFF80
7BFFCEDE80
0000000100
ENDCHAR
STARTCHAR commaaccent
ENCODING 63171
SWIDTH 360 0
DWIDTH 9 0
BBX 7 13 1 -4
BITMAP
13200100
AFFFEF40
BFFFFF50
BFFFFF60
CFFFFF70
DFFFFF50
DFFFFF50
BCCFFF60
0002FF40
0005FF20
0008FE00
0009FC00
00047500
ENDCHAR
STARTCHAR .notdef
ENCODING -1
SWIDTH 365 0
DWIDTH 9 0
BBX 8 16 0 0
BITMAP
3ECCCCE3
39000093
39000093
39000093
39000093
39000093
39000093
39000093
39000093
39000093
39000093
39000093
39000093
39000093
39000093
3ECCCCE3
ENDCHAR
STARTCHAR .null
ENCODING -1
SWIDTH 0 0
DWIDTH 0 0
BBX 1 1 0 0
BITMAP
00
ENDCHAR
STARTCHAR nonmarkingreturn
ENCODING -1
SWIDTH 333 0
DWIDTH 8 0
BBX 1 1 0 0
BITMAP
00
ENDCHAR
ENDFONT
